<?xml version="1.0" encoding="utf-8"?>
<!-- Generator: Adobe Illustrator 16.0.0, SVG Export Plug-In . SVG Version: 6.00 Build 0)  -->
<!DOCTYPE svg PUBLIC "-//W3C//DTD SVG 1.1//EN" "http://www.w3.org/Graphics/SVG/1.1/DTD/svg11.dtd">
<svg version="1.1" xmlns="http://www.w3.org/2000/svg" xmlns:xlink="http://www.w3.org/1999/xlink" x="0px" y="0px"
	 width="420.945px" height="318.369px" viewBox="0 0 420.945 318.369" enable-background="new 0 0 420.945 318.369"
	 xml:space="preserve">
<g id="Calque_1" display="none">
	
		<image display="inline" overflow="visible" width="1000" height="1000" xlink:href="130829_005_1000.jpg"  transform="matrix(0.322 0 0 0.322 187 138.2803)">
	</image>
</g>
<g id="Calque_2">
	<path fill="#CFC9BD" d="M317.058,119.915v124c0,0-9.33,9.67-53.67,14.34c-0.59,0.061-1.168,0.17-1.75,0.17
		c-34.247,0-58.58-7.04-58.58-7.04v-128.8c0,0-10-5.67,53.33-9c1.8-0.09,3.55-0.18,5.25-0.26
		C319.578,110.794,317.058,119.915,317.058,119.915z"/>
</g>
<g id="Calque_11">
	<path fill="#B7B2A9" d="M317.058,122.575l0.017,129.641c0,0-22.183,6.209-55.437,6.209V127.721
		C319.578,125.442,317.058,122.575,317.058,122.575z"/>
</g>
<g id="Calque_14">
	<path fill="none" stroke="#D8D5CE" stroke-width="2" stroke-miterlimit="10" d="M317.075,248.919
		c5.148,1.998-3.958,7.979-55.437,9.505c-39.119,1.16-67.58-9.173-58.58-10.84"/>
</g>
<g id="Calque_5">
	<path fill="#B7B2A9" d="M256.933,125.959c0,0-12.75-4.625-8.75-5.25s54.973-2.68,59.861,2.035
		c-5.282,0.706-50.611,3.215-50.611,3.215"/>
	<path fill="#A3A2A2" d="M259.308,127.459c0,0-12.75-4.625-8.75-5.25s54.973-2.68,59.861,2.035
		c-5.282,0.706-50.611,3.215-50.611,3.215"/>
</g>
<g id="Calque_4">
	<path fill="#B7B2A9" d="M320.708,118.645c0.01,0.77-1.261,1.52-3.601,2.23c-8.37-2.31-30.43-3.71-56.3-3.31
		c-25.83,0.39-47.81,2.46-56.14,5.01c-2.31-0.64-3.57-1.34-3.58-2.1c-0.05-3.5,26.68-6.74,59.72-7.25
		C293.838,112.725,320.658,115.145,320.708,118.645z"/>
</g>
<g id="Calque_3">
	
		<ellipse transform="matrix(0.9999 -0.0153 0.0153 0.9999 -1.8082 4.002)" fill="none" stroke="#D8D5CE" stroke-width="2.1125" stroke-miterlimit="10" cx="260.911" cy="120.293" rx="59.818" ry="7.065"/>
</g>
<g id="Calque_6">
	<g>
		<path fill="none" stroke="#D8D5CE" stroke-width="2" stroke-miterlimit="10" d="M223.947,145.8
			c10.036,0.694,22.679,1.009,36.424,0.799c13.537-0.207,25.99-0.89,35.927-1.866"/>
		<path fill="none" stroke="#D8D5CE" stroke-width="2" stroke-miterlimit="10" d="M205.965,143.547
			c-2.957-0.708-4.601-1.511-4.614-2.379c-0.008-0.526,0.591-1.045,1.708-1.551"/>
		<path fill="none" stroke="#D8D5CE" stroke-width="2" stroke-miterlimit="10" d="M205.965,143.547
			c3.919,0.939,10.159,1.712,17.981,2.253"/>
		<path fill="none" stroke="#D8D5CE" stroke-width="2" stroke-miterlimit="10" d="M314.268,141.987
			c3.174-0.827,4.941-1.715,4.928-2.62c-0.009-0.581-0.759-1.131-2.129-1.645"/>
		<path fill="none" stroke="#D8D5CE" stroke-width="2" stroke-miterlimit="10" d="M296.297,144.733
			c7.766-0.764,13.985-1.707,17.971-2.746"/>
		<path fill="none" stroke="#D8D5CE" stroke-width="2" stroke-miterlimit="10" d="M314.112,146.947
			c-9.003,2.388-29.802,4.282-54.055,4.652c-24.309,0.372-45.198-0.892-54.237-3.012"/>
		<path fill="none" stroke="#D8D5CE" stroke-width="2" stroke-miterlimit="10" d="M205.965,143.547
			c-3.174,0.828-4.941,1.715-4.927,2.62c0.014,0.885,1.72,1.701,4.782,2.42"/>
		<path fill="none" stroke="#D8D5CE" stroke-width="2" stroke-miterlimit="10" d="M314.112,146.947
			c3.077-0.816,4.783-1.689,4.77-2.58c-0.013-0.868-1.656-1.671-4.613-2.38"/>
		<path fill="none" stroke="#D8D5CE" stroke-width="2" stroke-miterlimit="10" d="M205.82,148.587
			c-3.077,0.815-4.783,1.689-4.769,2.58c0.054,3.497,26.478,5.929,59.019,5.432c32.542-0.498,58.878-3.736,58.824-7.232
			c-0.014-0.885-1.721-1.701-4.782-2.42"/>
	</g>
	<path fill="#CFC9BD" d="M203.059,131.584"/>
	<path fill="#CFC9BD" stroke="#B9B9B9" stroke-miterlimit="10" d="M317.108,137.151"/>
	<g>
		<path fill="none" stroke="#6A6A6A" stroke-width="2.4596" stroke-miterlimit="10" d="M314.417,234.865"/>
	</g>
</g>
<g id="Calque_7">
	<path fill="#CFC9BD" d="M194.058,182.915c0,0-0.33,2.58-3.6,6.07c-2.45,2.6-6.54,5.72-13.35,8.659l-76.027-72.707
		c0,0,1.667,0.647,2.667-0.063c0.91-0.65,2.07-1.62,3.2-2.96c1.38-1.64,2.7-3.84,3.44-6.66c0.03,0.02,0.07,0.05,0.11,0.08
		C117.838,120.555,194.058,182.915,194.058,182.915z"/>
	<path fill="#CFC9BD" d="M222.388,220.915c-2,21-19.33,11.34-19.33,11.34l-25.67-34.34l-0.28-0.271c6.48-2.8,10.49-5.75,12.97-8.27
		c3.62-3.69,3.98-6.46,3.98-6.46l9-7c0,0,18.11,14.16,19.38,38.55C222.558,216.544,222.548,218.695,222.388,220.915z"/>
	<path fill="none" stroke="#96948F" stroke-miterlimit="10" d="M177.108,197.644"/>
</g>
<g id="Calque_8">
	<path fill="#C2BFBA" d="M72.218,83.694c0.91-5.08,1.48-10.77,1.51-17.11c0.09,0.15,0.19,0.32,0.29,0.49
		C74.398,70.924,73.778,76.825,72.218,83.694z"/>
	<path fill="#C2BFBA" d="M70.398,91.694l13.94,11.2c-0.02,0.05-0.04,0.1-0.07,0.14c-0.08,0.18-0.16,0.37-0.25,0.54
		c-0.28,0.57-0.58,1.14-0.91,1.7c-0.15,0.26-0.31,0.52-0.48,0.77c-0.16,0.26-0.33,0.52-0.51,0.77c-0.15,0.22-0.31,0.44-0.47,0.65
		c-0.02,0.03-0.05,0.06-0.08,0.1c-0.18,0.23-0.36,0.46-0.55,0.69c-0.21,0.26-0.44,0.52-0.67,0.77c-0.08-0.07-0.12-0.11-0.12-0.11
		s-9.84,7-23.67,11.17c0.03-0.08,0.07-0.17,0.11-0.26c0.96-2.17,4.5-6.48,8.12-13.61C66.778,102.274,68.798,97.475,70.398,91.694z"
		/>
	<path fill="#C2BFBA" d="M107.678,121.674c-0.13,0.17-0.27,0.33-0.41,0.49c-0.91,1.02-2.06,1.96-3.52,2.71
		c-1.18,0.61-2.57,1.09-4.19,1.38c-4.73-4.11-17.82-15.97-19.21-17.23c0.23-0.25,0.46-0.51,0.67-0.77c0.19-0.23,0.38-0.46,0.55-0.69
		c0.03-0.04,0.06-0.07,0.08-0.1c0.16-0.22,0.32-0.43,0.47-0.65c0.18-0.25,0.35-0.51,0.51-0.77c0.17-0.25,0.33-0.51,0.48-0.77
		c0.33-0.56,0.63-1.13,0.91-1.7c0.09-0.17,0.17-0.36,0.25-0.54c0.03-0.04,0.05-0.09,0.07-0.14l16.39,13.18L107.678,121.674z"/>
	<path fill="#D8D8D8" d="M70.178,91.515c-0.29,0.94-0.58,1.89-0.89,2.85c-1.39,4.29-2.92,8.3-4.5,11.85
		c-2.75,6.2-5.64,11.04-8.12,13.61c-1.55,1.6-2.94,2.33-4.04,1.97c-2.19-0.71-2.8-5.54-1.96-12.55c0.64-5.46,2.16-12.25,4.48-19.44
		c0.91-2.82,1.89-5.52,2.9-8.05l5.14,4.14L70.178,91.515z"/>
	<path fill="#D8D8D8" d="M72.218,83.694c0.91-5.08,1.48-10.77,1.51-17.11c0.09,0.15,0.19,0.32,0.29,0.49
		C74.398,70.924,73.778,76.825,72.218,83.694z"/>
	<path fill="none" stroke="#C2BFBA" stroke-miterlimit="10" d="M70.839,89.203c-0.29,0.94-1.241,4.202-1.551,5.162
		c-1.39,4.29-2.92,8.3-4.5,11.85c-2.75,6.2-5.64,11.04-8.12,13.61c-1.55,1.6-2.94,2.33-4.04,1.97c-2.19-0.71-2.8-5.54-1.96-12.55
		c0.64-5.46,2.16-12.25,4.48-19.44c0.91-2.82,1.89-5.52,2.9-8.05l5.885,2.789L70.839,89.203z"/>
	<path fill="none" stroke="#C2BFBA" stroke-miterlimit="10" d="M72.218,83.694c0.91-5.08,1.48-10.77,1.51-17.11
		c0.09,0.15,0.19,0.32,0.29,0.49C74.398,70.924,73.778,76.825,72.218,83.694z"/>
	<path fill="#CECECE" d="M58.048,81.754l5.14,4.14c-0.64,1.99-1.3,4.02-1.95,6.04c-3.59,11.12-6.39,20.62-10.12,26.14
		c-0.31-3.09-0.49-5.95-0.45-8.83c0.06-5.64,0.97-11.34,3.39-18.85c1.06-3.28,2.16-6.34,3.34-9.16c2.18-5.29,4.63-9.75,7.55-13.26
		C62.688,71.384,60.278,76.154,58.048,81.754z"/>
</g>
<g id="Calque_9">
	<path fill="#BCB7AD" d="M194.058,182.915c0,0-0.33,2.58-3.6,6.07l-89.73-72.91l5.51-6.87c2.66,2.4,4.49,4.05,4.49,4.05
		s0,0.83-0.23,2.08c1.88,1.33,8.26,6.41,16.72,13.22C151.838,148.365,194.058,182.915,194.058,182.915z"/>
	<path fill="#C1C1C1" d="M74.018,67.075c-0.1-0.17,1.009,4.197-1.8,16.62c0,0.03-0.01,0.06-0.01,0.08
		c-0.56,2.47-1.24,5.07-2.03,7.74l-6.99-5.62c2.7-8.36,5.12-16.25,5.43-21.62c-1.31,1.08-2.53,2.32-3.67,3.7
		c2.65-4.02,5.11-6.16,6.86-5.6C73.038,62.774,73.758,64.455,74.018,67.075z"/>
	<path fill="#B7B7B7" d="M68.618,64.274c-0.31,5.37-2.73,13.26-5.43,21.62l-5.79-4.66C60.652,73.491,63.008,68.928,68.618,64.274z"
		/>
	<path fill="#A3A2A2" d="M86.918,91.604c-0.08,1.45-0.25,3.08-0.58,4.8c-0.03,0.19-0.07,0.38-0.11,0.57
		c-0.04,0.23-0.09,0.47-0.15,0.7c-0.03,0.12-0.06,0.24-0.09,0.37c-0.03,0.11-0.05,0.22-0.09,0.33c-0.06,0.26-0.13,0.53-0.21,0.79
		c-0.02,0.09-0.05,0.18-0.08,0.28c-0.07,0.23-0.14,0.46-0.21,0.69c-0.13,0.38-0.26,0.77-0.4,1.15c-0.2,0.54-0.42,1.08-0.66,1.61
		L69.717,91.144c2.02-6.51,4.681-20.219,4.301-24.069c3.23,5.61,11.58,20.46,12.71,24.34C86.778,91.464,86.848,91.535,86.918,91.604
		z"/>
	<path fill="#A3A2A2" d="M110.728,113.254c0,0,0,0.83-0.23,2.08c-0.32,1.69-1.07,4.16-2.82,6.34l-6.95-5.6l-16.39-13.18
		c0.24-0.53,0.46-1.07,0.66-1.61c0.14-0.38,0.28-0.77,0.4-1.15c0.07-0.23,0.14-0.46,0.21-0.69c0.03-0.1,0.06-0.19,0.08-0.28
		c0.08-0.26,0.15-0.53,0.21-0.79c0.04-0.11,0.06-0.22,0.09-0.33c0.03-0.13,0.06-0.25,0.09-0.37c0.06-0.23,0.11-0.47,0.15-0.7
		c0.04-0.19,0.08-0.38,0.11-0.57c0.33-1.72,0.5-3.35,0.58-4.8c2.19,2.13,13.05,11.95,19.32,17.6
		C108.898,111.604,110.728,113.254,110.728,113.254z"/>
</g>
<g id="Calque_13">
</g>
<g id="anse">
	<path fill="none" stroke="#B7B2A9" stroke-width="3" stroke-miterlimit="10" d="M199.772,135.888c0,0,1.668-8.666,1.334-11.333
		s-4.667-3.333,1.667-4c1-3,23.333-62,89-52c65.668,10,69.002,110.333,18.668,138.333"/>
	<path fill="none" stroke="#CFC9BD" stroke-width="3" stroke-miterlimit="10" d="M202.08,136.739c0,0,1.668-8.666,1.334-11.333
		c-0.333-2.667-4.666-3.333,1.667-4c1-3,24.121-63.532,89.217-50.312c64.011,13,60.261,113.08,15.011,134"/>
</g>
<g id="Calque_12">
	<rect x="296.297" y="188.917" fill="#B7B2A9" width="20.761" height="19.5"/>
</g>
</svg>
