<?xml version="1.0" encoding="utf-8"?>
<!-- Generator: Adobe Illustrator 16.0.0, SVG Export Plug-In . SVG Version: 6.00 Build 0)  -->
<!DOCTYPE svg PUBLIC "-//W3C//DTD SVG 1.1//EN" "http://www.w3.org/Graphics/SVG/1.1/DTD/svg11.dtd">
<svg version="1.1" xmlns="http://www.w3.org/2000/svg" xmlns:xlink="http://www.w3.org/1999/xlink" x="0px" y="0px"
	 width="1521.939px" height="1533.883px" viewBox="0 0 1521.939 1533.883" enable-background="new 0 0 1521.939 1533.883"
	 xml:space="preserve">
<g id="Calque_1" display="none">
	
		<image display="inline" overflow="visible" width="1400" height="1400" xlink:href="../balai-droit-d-interieur-33-cm-naturel.jpg"  transform="matrix(1 0 0 1 -875.4736 -13.3496)">
	</image>
</g>
<g id="BROSSE">
	<linearGradient id="SVGID_1_" gradientUnits="userSpaceOnUse" x1="-1040.2988" y1="1479.3408" x2="-169.1497" y2="1162.2684">
		<stop  offset="0" style="stop-color:#2B2B2B"/>
		<stop  offset="0.47" style="stop-color:#2B2B2B"/>
		<stop  offset="0.8" style="stop-color:#515356"/>
		<stop  offset="0.87" style="stop-color:#2B2B2B"/>
		<stop  offset="0.945" style="stop-color:#515356"/>
		<stop  offset="1" style="stop-color:#2B2B2B"/>
	</linearGradient>
	<path fill="url(#SVGID_1_)" d="M-1005,1214l-70,170h50l37-59l-4,59h23c0,0-1.178-55.953,5-85c-6.532,54.99,5,85,5,85h31h121
		c0,0,16-7,20-36c0,23,0,36,0,36h88c0,0,17-32,19-51s0,51,0,51s14.216-9.797,25-65c6.331,22.968,7,65.768,7,65.768h32.86
		c0,0-4.86-41.768-6.86-105.768c1.11,28.136,16.898,101.535,31.449,105.768s59.031,0,59.031,0v-84.443l36.52,84.9h62
		c0,0,12-48.225,11-70.225c3,29,10,70.225,10,70.225h57c0,0,26-47.225,26-80.225s0,81.648,0,81.648l21-1.424l10-37.225l6,37.225h57
		c0,0,9.018-13.487,0-79.225c7,28,32,79.225,32,79.225h115L-179,1228L-1005,1214z"/>
</g>
<g id="Calque_4">
	<linearGradient id="SVGID_2_" gradientUnits="userSpaceOnUse" x1="-594.2417" y1="1274.6064" x2="-594.2417" y2="1140.9508">
		<stop  offset="0" style="stop-color:#E8BC9A"/>
		<stop  offset="1" style="stop-color:#F4E0C7"/>
	</linearGradient>
	<path fill="url(#SVGID_2_)" d="M-1032,1175c0,0-2.5,59,0,63s873.059,5,875.529,0s0-63,0-63l-299.946-8.423l-68.996-32.742h-23.999
		H-655l-47.404,25.75l-103.495,6.992L-1032,1175z"/>
</g>
<g id="Calque_10">
</g>
<g id="Calque_3">
	<linearGradient id="SVGID_3_" gradientUnits="userSpaceOnUse" x1="-845.6392" y1="1188.0088" x2="-843.8083" y2="1155.0304">
		<stop  offset="0" style="stop-color:#DCC2A5"/>
		<stop  offset="1" style="stop-color:#CBA484"/>
	</linearGradient>
	<path fill="url(#SVGID_3_)" d="M-656.13,1144.67c-61.18,45.98-121.87,42.69-121.87,42.69l-214.67-0.03c0,0-39.33,1.14-39.33-12.33
		c0-19,41-19,41-19s120,2,213,0s121-33,121-33h0.05L-656.13,1144.67z"/>
	<path fill="#DFBC9A" d="M-573.33,1144.67c0,0-55-0.34-82.34-0.34c-0.15,0.12-0.31,0.229-0.46,0.34l-0.82-21.67h80.28
		L-573.33,1144.67z"/>
	<line fill="none" x1="-655" y1="1174.5" x2="-656.13" y2="1144.67"/>
	<line fill="none" x1="-656.95" y1="1123" x2="-657.5" y2="1108.5"/>
	
		<linearGradient id="SVGID_4_" gradientUnits="userSpaceOnUse" x1="-1032.4985" y1="1188.0098" x2="-1030.6676" y2="1155.0311" gradientTransform="matrix(-1 0 0 1 -1375.3301 0)">
		<stop  offset="0" style="stop-color:#DCC2A5"/>
		<stop  offset="1" style="stop-color:#CBA484"/>
	</linearGradient>
	<path fill="url(#SVGID_4_)" d="M-532.34,1144.67c61.18,45.98,121.869,42.69,121.869,42.69l214.67-0.03c0,0,39.33,1.14,39.33-12.33
		c0-19-41-19-41-19s-120,2-213,0s-121-33-121-33h-0.049L-532.34,1144.67z"/>
	<path fill="#DFBC9A" d="M-615.14,1144.67c0,0,55-0.34,82.339-0.34c0.15,0.12,0.311,0.229,0.461,0.34l0.82-21.67H-611.8
		L-615.14,1144.67z"/>
</g>
<g id="Calque_5">
	<linearGradient id="SVGID_5_" gradientUnits="userSpaceOnUse" x1="-636.6665" y1="1114.0215" x2="-544.4355" y2="1114.0215">
		<stop  offset="0" style="stop-color:#EEECE9"/>
		<stop  offset="0.415" style="stop-color:#FEFEFE"/>
		<stop  offset="0.695" style="stop-color:#A4A1A0"/>
		<stop  offset="0.765" style="stop-color:#CCCAC8"/>
		<stop  offset="0.87" style="stop-color:#FAF8F4"/>
		<stop  offset="1" style="stop-color:#D9D5CE"/>
	</linearGradient>
	<path fill="url(#SVGID_5_)" d="M-633.667,1094.339c0,0-3,24.259-3,35.675c4.5,5.708,49.917,19.264,92.231,0.237
		c-1.084-17.63-4.23-35.912-4.23-35.912S-588.75,1080.069-633.667,1094.339z"/>
</g>
<g id="Calque_13" display="none">
	<path display="inline" fill="#EEECE9" d="M-544.44,1131.98c-13.81,6.21-27.949,8.949-40.89,9.63
		c-26.71,1.38-48.31-6.021-51.34-9.87c0-11.41,3-35.67,3-35.67c17.56-5.58,34.37-6.79,48.34-6.2c21.79,0.91,36.66,6.2,36.66,6.2
		S-545.52,1114.35-544.44,1131.98z"/>
	<path display="inline" fill="#CCCAC8" d="M-544.44,1131.98c-11.553,6.21-23.381,8.949-34.206,9.63c0,0,10.036-23.61,0-51.74
		c12.267,1.464,30.668,6.2,30.668,6.2S-545.343,1114.35-544.44,1131.98z"/>
</g>
<g id="Calque_2">
	<linearGradient id="SVGID_6_" gradientUnits="userSpaceOnUse" x1="-621.5156" y1="633.7051" x2="-561.5039" y2="633.7051">
		<stop  offset="0" style="stop-color:#DCC2A5"/>
		<stop  offset="0.34" style="stop-color:#F7E7D8"/>
		<stop  offset="0.357" style="stop-color:#F4E2D2"/>
		<stop  offset="0.4567" style="stop-color:#E5CCB6"/>
		<stop  offset="0.5639" style="stop-color:#DABAA0"/>
		<stop  offset="0.6805" style="stop-color:#D1AE90"/>
		<stop  offset="0.8137" style="stop-color:#CDA687"/>
		<stop  offset="1" style="stop-color:#CBA484"/>
	</linearGradient>
	<path fill="url(#SVGID_6_)" d="M-561.504,1100.25c0,0-60.689-2.16-60.006,0s0-933.093,0-933.093h60.006V1100.25z"/>
	<linearGradient id="SVGID_7_" gradientUnits="userSpaceOnUse" x1="-622.4961" y1="635.2949" x2="-561.5039" y2="635.2949">
		<stop  offset="0" style="stop-color:#DCC2A5"/>
		<stop  offset="0.34" style="stop-color:#F7E7D8"/>
		<stop  offset="0.357" style="stop-color:#F4E2D2"/>
		<stop  offset="0.4567" style="stop-color:#E5CCB6"/>
		<stop  offset="0.5639" style="stop-color:#DABAA0"/>
		<stop  offset="0.6805" style="stop-color:#D1AE90"/>
		<stop  offset="0.8137" style="stop-color:#CDA687"/>
		<stop  offset="1" style="stop-color:#CBA484"/>
	</linearGradient>
	<path fill="url(#SVGID_7_)" d="M-561.504,1100.25c0,0-25.322,7.16-60.006,0c-2.219-0.457,0-933.093,0-933.093"/>
</g>
<g id="Calque_12" display="none">
	<path display="inline" fill="#DCC2A5" d="M-562,172.16v933.09c0,0-4.64-0.17-11.33-0.36c-17.15-0.489-47.8-1.17-48.67,0.261
		c0.02-0.36,0.04-1.681,0.06-3.891c0.56-64.42-0.07-929.1-0.07-929.1H-562z"/>
	<path display="inline" fill="#DCC2A5" d="M-562.004,1101.25c0,0-25.322,7.16-60.006,0c-2.219-0.457,0-933.093,0-933.093
		L-562.004,1101.25z"/>
</g>
<g id="Calque_14" display="none">
	<rect x="-573.33" y="171.16" display="inline" fill="#CBA484" width="11.33" height="933.09"/>
</g>
<g id="Calque_6">
	<path fill="none" stroke="#AA9383" stroke-width="2" stroke-miterlimit="10" d="M-622.201,1096.87c0,0-7.335,6.766,29.999,6.766
		s30.496-6.766,30.496-6.766"/>
	<path fill="none" stroke="#AA9383" stroke-width="2.9228" stroke-miterlimit="10" d="M-636.56,1125.727
		c0,0-5.94,14.306,46.021,14.306c50.538,0,46.103-14.306,46.103-14.306"/>
</g>
<g id="Calque_11">
	<path fill="#DCC2A5" d="M-156.471,1175v64.165H-194.5v-27.294c0,0,10.529-7.918,19.015-26.226
		C-165.851,1183.539-155.906,1178.507-156.471,1175z"/>
	<path fill="#DCC2A5" d="M-1032,1175l0.023,64h38.029v-28.5c0,0-10.541-5.265-19.026-24.381
		C-1029,1184.667-1032.564,1178.662-1032,1175z"/>
</g>
<g id="Calque_15">
	<path fill="#353434" d="M1139.47,1385.22c0,0-25-51.22-32-79.22c9.02,65.74,0,79.22,0,79.22h-57l-6-37.22l-10,37.22l-21,1.431V1305
		c0,33-26,80.22-26,80.22h-57c0,0-7-41.22-10-70.22c1,22-11,70.22-11,70.22h-62l-36.52-84.899v84.449c0,0-44.48,4.23-59.03,0
		c-14.55-4.229-30.34-77.63-31.45-105.77c2,64,6.86,105.77,6.86,105.77h-32.86c0,0-0.67-42.8-7-65.77c-10.78,55.2-25,65-25,65
		s2-70,0-51s-19,51-19,51h-88c0,0,0-13,0-36c-4,29-20,36-20,36h-152c0,0-11.53-30.01-5-85c-6.18,29.05-5,85-5,85h-23l4-59l-37,59
		h-50l59.74-145.09l10.26-24.91l410.76,6.96l415.24,7.04l6.41,11.08l22.33,38.57l62.26,107.569H1139.47z"/>
	<path fill="#F4E0C7" d="M1186,1238c-0.2,0.4-5.86,0.76-16.12,1.08c-54.391,1.71-238.021,2.4-421.65,2.3
		c-182.93-0.11-365.87-1-421.02-2.47c-10.65-0.28-16.54-0.58-16.74-0.91c-2.5-4,0-63,0-63l226.1-8.42l103.5-7l45.891-24.93
		l1.51-0.82h129.59l68.99,32.75L1186,1175C1186,1175,1188.47,1233,1186,1238z"/>
	<path fill="#DFBC9A" d="M686.34,1144.67c-61.181,45.98-121.87,42.69-121.87,42.69l-214.67-0.03c0,0-39.33,1.14-39.33-12.33
		c0-19,41-19,41-19s120,2,213,0s121-33,121-33h0.05L686.34,1144.67z"/>
	<path fill="#F7E7D8" d="M769.14,1144.67c0,0-55-0.34-82.34-0.34c-0.15,0.12-0.311,0.229-0.46,0.34l-0.82-21.67h80.28
		L769.14,1144.67z"/>
	<line fill="none" x1="687.47" y1="1174.5" x2="686.34" y2="1144.67"/>
	<line fill="none" x1="685.52" y1="1123" x2="684.97" y2="1108.5"/>
	<path fill="#DFBC9A" d="M1186,1175c0,13.47-39.33,12.33-39.33,12.33L932,1187.36c0,0-60.69,3.29-121.87-42.69l0.41-10.84
		l0.41-10.83H811c0,0,28,31,121,33s213,0,213,0S1186,1156,1186,1175z"/>
	<path fill="#F7E7D8" d="M810.95,1123l-0.41,10.83l-0.41,10.84c-0.15-0.11-0.311-0.22-0.46-0.34c-10.88,0-26.13,0.06-40.561,0.12
		c-7.1,0.03-14.01,0.069-20.09,0.1h-0.79c-12.2,0.061-20.899,0.12-20.899,0.12l0.029-0.22l0.98-6.34l0.66-4.28l1.67-10.83H810.95z"
		/>
	<path fill="#EEECE9" d="M798.029,1130.25c-3.01,1.35-6.029,2.54-9.05,3.58c-6.99,2.4-13.97,3.99-20.75,4.97
		c-6.939,0.99-13.68,1.34-20,1.23c-7.279-0.13-14.02-0.87-19.89-1.92c-6.49-1.181-11.93-2.73-15.87-4.28
		c-3.49-1.37-5.82-2.74-6.67-3.82c0-2.01,0.09-4.41,0.25-7.01c0.71-12.18,2.75-28.66,2.75-28.66c3.99-1.27,7.93-2.31,11.82-3.149
		c0.149-0.04,0.29-0.07,0.439-0.091c9.57-2.06,18.75-2.93,27.17-3.08c12.94-0.22,24.101,1.28,32.141,2.87
		c0.199,0.04,0.399,0.08,0.6,0.12c8.07,1.641,12.83,3.33,12.83,3.33s2.34,13.601,3.68,28.66
		C797.689,1125.4,797.88,1127.83,798.029,1130.25z"/>
	<path fill="#DFBC9A" d="M772.47,100v1000.022c0,0-12.114-0.643-23.496-0.912c-9.853-0.236-19.153-0.181-19.563,0.806
		c0.029-0.516,0.051-3.85,0.064-9.701c0.36-103.229-0.07-990.215-0.07-990.215H772.47z"/>
	<path fill="#DFBC9A" d="M772.47,1100.022c0,0-9.207,3.89-23.496,3.354c-5.784-0.203-12.394-1.137-19.569-3.354
		c-1.595-0.494,0-1000.022,0-1000.022l19.569,454.436L772.47,1100.022z"/>
</g>
<g id="Calque_16">
</g>
</svg>
