<?xml version="1.0" encoding="utf-8"?>
<!-- Generator: Adobe Illustrator 16.0.0, SVG Export Plug-In . SVG Version: 6.00 Build 0)  -->
<!DOCTYPE svg PUBLIC "-//W3C//DTD SVG 1.1//EN" "http://www.w3.org/Graphics/SVG/1.1/DTD/svg11.dtd">
<svg version="1.1" xmlns="http://www.w3.org/2000/svg" xmlns:xlink="http://www.w3.org/1999/xlink" x="0px" y="0px"
	 width="544.793px" height="789.571px" viewBox="0 0 544.793 789.571" enable-background="new 0 0 544.793 789.571"
	 xml:space="preserve">
<g id="Calque_1" display="none">
	
		<image display="inline" overflow="visible" width="700" height="700" xlink:href="porte-brosse-dents-ventouse-alu-zoom.800.jpg"  transform="matrix(1 0 0 1 -357.4302 41.6665)">
	</image>
</g>
<g id="Calque_2">
	<path fill="#005671" d="M255.689,88.5c0,0-28.786-11.5-39.323,11.593c-13.901,28.732-27.13,135.24-22.463,176.574
		c7.334,2,7.334,16.667,8.667,18s2.92,125.923,14.919,200.919s16.499,200.989,14.999,205.489s76.496,0,76.496,0
		s-10.499-139.493-37.498-214.489s-52.498-157.492-44.998-190.49c24.378-11.131,24.808-25.772,24.308-25.272
		S273.903,98.5,255.689,88.5z"/>
	<path fill="#147A91" d="M213.403,272c-3.438-41.333,10.25-139.264,21.829-165.5c13.352-30.25,27.826-3.833,27.826-3.833
		c6.313,17.666-12.424,154.146-15.486,167.667c-0.152,0.676-9.799,11.207-19.268,14.626C228.305,284.96,220.403,285.609,213.403,272
		z"/>
	<path opacity="0.7" fill="#024959" d="M257.459,703.034c-14.37,0.19-26.02-0.189-25.43-1.96c1.5-4.5-3-130.489-15-205.489
		c-11.99-75-13.58-199.59-14.91-200.92c-1.34-1.33-1.34-16-8.67-18c-4.67-41.33,8.561-147.84,22.46-176.57
		c6.58-14.42,20.271-15.36,29.63-14.02c-6.96,1.17-13.979,4.89-18.14,14.02c-13.9,28.73-27.13,135.24-22.46,176.57
		c7.33,2,7.33,16.67,8.67,18c1.33,1.33-1.206,116.835,23.627,200.002c26.667,75.833,36.17,203.604,34.67,208.104
		C271.486,704.031,248.899,702.885,257.459,703.034z"/>
</g>
<g id="Calque_5">
	<path fill="#CFD0D1" d="M316.079,127.341l-60.206,3.932c0,0-7.209,2.142-2.276,11.171c9.047,0.412,56.142,0.343,62.194,0.949
		c7.146-3.306,1.626-5.203,2.603-6.182c1.428-1.432,1.033-2.072,3.592-3.484c1.979-1.094-2.445-1.49-3.86-3.179
		C317.15,129.383,317.505,127.691,316.079,127.341z"/>
	<path fill="#CFD0D1" d="M317.361,111.092l-60.206,3.933c0,0-7.209,2.141-2.276,11.172c9.046,0.411,56.143,0.342,62.194,0.949
		c7.146-3.306,1.626-5.203,2.603-6.182c1.427-1.432-2.03-3.299,0.526-4.711c1.979-1.094,4.694-2.033,3.278-3.722
		C322.505,111.365,318.788,111.442,317.361,111.092z"/>
	<path fill="#CFD0D1" d="M315.856,146.962l-60.205,3.933c0,0-7.211,2.141-2.278,11.172c9.047,0.411,56.143,0.342,62.195,0.949
		c7.146-3.306,1.626-5.203,2.603-6.183c1.428-1.431-2.03-3.298,0.526-4.711c1.98-1.093,4.693-2.032,3.278-3.721
		C321,147.235,317.283,147.312,315.856,146.962z"/>
	<path fill="#CFD0D1" d="M314.491,182.359l-60.205,3.932c0,0-7.211,2.141-2.277,11.171c9.046,0.412,56.142,0.342,62.194,0.949
		c7.146-3.306,1.627-5.203,2.602-6.182c1.428-1.432,1.035-2.072,3.593-3.485c1.979-1.093-2.445-1.489-3.859-3.179
		C315.562,184.401,315.917,182.709,314.491,182.359z"/>
	<path fill="#CFD0D1" d="M314.846,164.798l-60.205,3.932c0,0-7.209,2.141-2.276,11.172c9.047,0.412,56.142,0.342,62.194,0.949
		c1.775-0.427,5.608-2.789,6.583-3.769c1.428-1.431-0.404-3.98-0.39-5.898c0.02-2.262-4.585-1.015-6-2.705
		C313.777,167.314,316.272,165.147,314.846,164.798z"/>
	<path fill="#CFD0D1" d="M309.513,236.5l-60.206,3.932c0,0-7.209,2.141-2.276,11.172c9.046,0.412,56.142,0.342,62.194,0.949
		c1.776-0.427,5.607-2.79,6.583-3.769c1.428-1.432-5.735-3.719-0.388-5.899c2.094-0.854-4.587-1.015-6.001-2.704
		C308.443,239.017,310.939,236.851,309.513,236.5z"/>
	<path fill="#CFD0D1" d="M307.536,254.77l-60.205,3.933c0,0-7.211,2.141-2.276,11.172c9.044,0.411,56.142,0.342,62.192,0.949
		c7.147-3.306,1.627-5.203,2.604-6.183c1.428-1.431,1.034-2.072,3.592-3.484c1.98-1.093-4.941-1.259-3.86-3.179
		C310.779,255.853,308.963,255.12,307.536,254.77z"/>
	<path fill="#CFD0D1" d="M311.902,201.503l-60.206,3.932c0,0-7.21,2.141-2.277,11.172c9.046,0.412,56.143,0.342,62.194,0.949
		c7.147-3.306,1.626-5.203,2.604-6.182c1.427-1.432,1.033-2.073,3.591-3.485c1.98-1.093-2.444-1.489-3.859-3.179
		C312.973,203.545,313.328,201.853,311.902,201.503z"/>
	<path fill="#CFD0D1" d="M311.146,218.988l-60.205,3.932c0,0-7.21,2.141-2.276,11.172c9.045,0.411,56.142,0.342,62.193,0.949
		c7.146-3.306,1.627-5.203,2.603-6.182c1.428-1.431-2.03-3.3,0.527-4.712c1.979-1.093,4.693-2.031,3.278-3.721
		C316.29,219.261,312.573,219.337,311.146,218.988z"/>
	<path fill="#CFD0D1" d="M301.499,260.965l-60.205,3.933c0,0-7.211,2.141-2.276,11.172c9.044,0.411,56.142,0.342,62.192,0.949
		c7.147-3.306,1.627-5.203,2.604-6.183c1.428-1.431,1.034-2.072,3.592-3.484c1.98-1.093-4.941-1.259-3.86-3.179
		C304.742,262.048,302.926,261.315,301.499,260.965z"/>
</g>
<g id="Calque_6">
	<path fill="#084866" d="M309.845,128.99l-57.239,0.573c0,0-7.298,1.823-2.765,11.062c9.019,0.808,52.992,3.519,59.012,4.391
		c7.284-2.99,1.854-5.127,2.872-6.062c1.487-1.368,1.123-2.025,3.741-3.324c2.025-1.006-2.378-1.595-3.717-3.345
		C310.825,131.078,311.254,129.403,309.845,128.99z"/>
	<path fill="#084866" d="M313.836,112.901l-57.239,0.573c0,0-7.297,1.823-2.765,11.062c9.02,0.808,52.992,3.519,59.012,4.39
		c7.285-2.989,1.853-5.126,2.872-6.062c1.487-1.367-1.886-3.384,0.733-4.683c2.025-1.005,4.777-1.824,3.438-3.575
		C318.964,113.4,315.245,113.314,313.836,112.901z"/>
	<path fill="#084866" d="M304.719,183.929l-57.24,0.573c0,0-7.296,1.823-2.765,11.062c9.02,0.808,52.993,3.519,59.012,4.39
		c7.285-2.99,1.854-5.126,2.872-6.062c1.489-1.368-1.884-3.385,0.733-4.684c2.025-1.005,4.777-1.824,3.438-3.574
		C309.846,184.427,306.128,184.341,304.719,183.929z"/>
	<path fill="#084866" d="M307.974,148.913l-57.24,0.573c0,0-7.297,1.823-2.765,11.062c9.021,0.808,52.992,3.518,59.013,4.39
		c7.284-2.989,1.853-5.126,2.871-6.062c1.488-1.368,1.124-2.025,3.741-3.324c2.026-1.006-2.378-1.595-3.717-3.346
		C308.954,151,309.383,149.325,307.974,148.913z"/>
	<path fill="#084866" d="M304.973,166.27l-57.24,0.573c0,0-7.297,1.822-2.765,11.062c9.021,0.808,52.992,3.518,59.013,4.39
		c1.792-0.349,5.725-2.541,6.743-3.476c1.488-1.368-0.229-3.994-0.13-5.91c0.117-2.259-4.537-1.216-5.877-2.966
		C303.794,168.736,306.382,166.682,304.973,166.27z"/>
	<path fill="#084866" d="M298.497,237.757l-57.24,0.573c0,0-7.296,1.823-2.764,11.062c9.02,0.808,52.992,3.519,59.013,4.391
		c1.792-0.349,5.724-2.542,6.742-3.477c1.489-1.368-5.567-3.967-0.13-5.91c2.13-0.762-4.536-1.216-5.876-2.966
		C297.318,240.224,299.907,238.169,298.497,237.757z"/>
	<path fill="#084866" d="M296.721,255.967l-57.24,0.573c0,0-7.296,1.823-2.765,11.062c9.021,0.808,52.993,3.519,59.013,4.391
		c7.285-2.99,1.853-5.127,2.871-6.062c1.489-1.368,1.124-2.025,3.741-3.324c2.026-1.005-4.881-1.474-3.717-3.345
		C299.912,257.19,298.131,256.379,296.721,255.967z"/>
	<path fill="#084866" d="M300.48,218.685l-57.24,0.574c0,0-7.297,1.822-2.765,11.061c9.02,0.808,52.992,3.519,59.013,4.39
		c7.284-2.989,1.853-5.126,2.871-6.062c1.489-1.368,1.124-2.025,3.741-3.324c2.026-1.005-2.378-1.595-3.717-3.345
		C301.46,220.772,301.89,219.097,300.48,218.685z"/>
	<path fill="#084866" d="M301.997,202.908l-57.239,0.573c0,0-7.298,1.823-2.765,11.062c9.019,0.807,52.992,3.518,59.012,4.39
		c7.284-2.99,1.854-5.126,2.871-6.062c1.489-1.368-1.884-3.385,0.733-4.684c2.025-1.005,4.777-1.824,3.438-3.574
		C307.124,203.407,303.406,203.321,301.997,202.908z"/>
</g>
<g id="Calque_7">
	<path fill="#145F7C" d="M302.917,127.877l-57.239,0.573c0,0-7.298,1.823-2.765,11.062c9.019,0.808,52.992,3.519,59.012,4.391
		c7.284-2.99,1.854-5.127,2.872-6.062c1.487-1.368,1.123-2.025,3.741-3.324c2.025-1.006-2.378-1.595-3.717-3.345
		C303.897,129.964,304.326,128.29,302.917,127.877z"/>
	<path fill="#145F7C" d="M306.908,111.788l-57.239,0.573c0,0-7.297,1.823-2.765,11.062c9.02,0.808,52.992,3.519,59.012,4.39
		c7.285-2.989,1.853-5.126,2.872-6.062c1.487-1.367-1.886-3.384,0.733-4.683c2.025-1.005,4.777-1.824,3.438-3.575
		C312.036,112.287,308.317,112.201,306.908,111.788z"/>
	<path fill="#145F7C" d="M297.791,182.815l-57.24,0.573c0,0-7.296,1.823-2.765,11.062c9.02,0.808,52.993,3.519,59.012,4.39
		c7.285-2.99,1.854-5.126,2.872-6.062c1.489-1.368-1.884-3.385,0.733-4.684c2.025-1.005,4.777-1.824,3.438-3.574
		C302.918,183.314,299.2,183.228,297.791,182.815z"/>
	<path fill="#145F7C" d="M301.046,147.799l-57.24,0.573c0,0-7.297,1.823-2.765,11.062c9.021,0.808,52.992,3.518,59.013,4.39
		c7.284-2.989,1.853-5.126,2.871-6.062c1.488-1.368,1.124-2.025,3.741-3.324c2.026-1.006-2.378-1.595-3.717-3.346
		C302.026,149.887,302.455,148.212,301.046,147.799z"/>
	<path fill="#145F7C" d="M298.045,165.156l-57.24,0.573c0,0-7.297,1.822-2.765,11.062c9.021,0.808,52.992,3.518,59.013,4.39
		c1.792-0.349,5.725-2.541,6.743-3.476c1.488-1.368-0.229-3.994-0.13-5.91c0.117-2.259-4.537-1.216-5.877-2.966
		C296.866,167.623,299.454,165.568,298.045,165.156z"/>
	<path fill="#145F7C" d="M291.569,236.644l-57.24,0.573c0,0-7.296,1.823-2.764,11.062c9.02,0.808,52.992,3.519,59.013,4.391
		c1.792-0.349,5.724-2.542,6.742-3.477c1.489-1.368-5.567-3.967-0.13-5.91c2.13-0.762-4.536-1.216-5.876-2.966
		C290.391,239.111,292.979,237.056,291.569,236.644z"/>
	<path fill="#145F7C" d="M289.793,254.854l-57.24,0.573c0,0-7.296,1.823-2.765,11.062c9.021,0.808,52.993,3.519,59.013,4.391
		c7.285-2.99,1.853-5.127,2.871-6.062c1.489-1.368,1.124-2.025,3.741-3.324c2.026-1.005-4.881-1.474-3.717-3.345
		C292.984,256.077,291.203,255.266,289.793,254.854z"/>
	<path fill="#145F7C" d="M293.553,217.571l-57.24,0.574c0,0-7.297,1.822-2.765,11.061c9.02,0.808,52.992,3.519,59.013,4.39
		c7.284-2.989,1.853-5.126,2.871-6.062c1.489-1.368,1.124-2.025,3.741-3.324c2.026-1.005-2.378-1.595-3.717-3.345
		C294.532,219.659,294.962,217.984,293.553,217.571z"/>
	<path fill="#145F7C" d="M295.069,201.795l-57.239,0.573c0,0-7.298,1.823-2.765,11.062c9.019,0.807,52.992,3.518,59.012,4.39
		c7.284-2.99,1.854-5.126,2.871-6.062c1.489-1.368-1.884-3.385,0.733-4.684c2.025-1.005,4.777-1.824,3.438-3.574
		C300.196,202.293,296.479,202.208,295.069,201.795z"/>
</g>
<g id="Calque_4">
	<path fill="#E1E7EA" d="M307.57,103.667h-60.334c0,0-7.334,1.667-3,11c9,1,56,4,62,5c1.8-0.311,1.962-5.086,3-6
		c1.518-1.335,3.671-1.33,3.812-3.243c0.166-2.256-4.51-1.312-5.812-3.09C306.339,106.108,308.971,104.109,307.57,103.667z"/>
	<path fill="#E1E7EA" d="M298.57,137.667h-60.334c0,0-7.334,1.667-3,11c9,1,56,4,62,5c7.347-2.833,1.962-5.086,3-6
		c1.518-1.335,1.167-2,3.812-3.243c2.047-0.962-2.343-1.646-3.645-3.424C299.506,139.774,299.971,138.109,298.57,137.667z"/>
	<path fill="#E1E7EA" d="M302.904,120.667H242.57c0,0-7.334,1.667-3,11c9,1,56,4,62,5c7.347-2.833,1.962-5.086,3-6
		c1.518-1.335-1.812-3.424,0.833-4.667c2.047-0.962,4.815-1.722,3.514-3.5C308.02,121.274,304.305,121.109,302.904,120.667z"/>
	<path fill="#E1E7EA" d="M295.071,156.167h-60.334c0,0-7.334,1.667-3,11c9,1,56,4,62,5c7.347-2.833,1.962-5.086,3-6
		c1.518-1.335-1.812-3.424,0.833-4.667c2.047-0.962,4.815-1.722,3.514-3.5C300.187,156.774,296.472,156.609,295.071,156.167z"/>
	<path fill="#E1E7EA" d="M290.404,191.333H230.07c0,0-7.334,1.667-3,11c9,1,56,4,62,5c7.347-2.833,1.962-5.086,3-6
		c1.518-1.335,1.167-2,3.812-3.243c2.047-0.962-2.343-1.646-3.645-3.424C291.34,193.441,291.805,191.776,290.404,191.333z"/>
	<path fill="#E1E7EA" d="M291.903,173.833h-60.334c0,0-7.334,1.667-3,11c9,1,56,4,62,5c1.8-0.311,5.777-2.418,6.815-3.332
		c1.518-1.335-0.145-3.998-0.004-5.911c0.166-2.256-4.51-1.312-5.812-3.09C290.672,176.274,293.304,174.275,291.903,173.833z"/>
	<path fill="#E1E7EA" d="M315.57,94.833h-60.334c0,0-7.334,1.667-3,11c9,1,56,4,62,5c1.8-0.311,5.777-2.418,6.815-3.332
		c1.518-1.335-0.145-3.998-0.004-5.911c0.166-2.256-4.51-1.312-5.812-3.09C314.339,97.274,316.971,95.275,315.57,94.833z"/>
	<path fill="#E1E7EA" d="M286.903,245.166h-60.334c0,0-7.334,1.667-3,11c9,1,56,4,62,5c1.8-0.311,5.777-2.418,6.815-3.332
		c1.518-1.335-5.481-4.084-0.004-5.911c2.146-0.716-4.51-1.312-5.812-3.09C285.672,247.607,288.304,245.608,286.903,245.166z"/>
	<path fill="#E1E7EA" d="M287.738,262.333h-60.334c0,0-7.334,1.667-3,11c9,1,56,4,62,5c7.347-2.833,1.962-5.086,3-6
		c1.518-1.335,1.167-2,3.812-3.243c2.047-0.962-4.849-1.578-3.645-3.424C290.903,263.625,289.139,262.776,287.738,262.333z"/>
	<path fill="#E1E7EA" d="M288.57,210.333h-60.334c0,0-7.334,1.667-3,11c9,1,56,4,62,5c7.347-2.833,1.962-5.086,3-6
		c1.518-1.335,1.167-2,3.812-3.243c2.047-0.962-2.343-1.646-3.645-3.424C289.506,212.441,289.971,210.776,288.57,210.333z"/>
	<path fill="#E1E7EA" d="M287.68,227.667h-60.334c0,0-7.334,1.667-3,11c9,1,56,4,62,5c7.347-2.833,1.962-5.086,3-6
		c1.518-1.335-1.812-3.424,0.833-4.667c2.047-0.962,4.815-1.722,3.514-3.5C292.795,228.274,289.08,228.109,287.68,227.667z"/>
</g>
</svg>
