<?xml version="1.0" encoding="utf-8"?>
<!-- Generator: Adobe Illustrator 16.0.0, SVG Export Plug-In . SVG Version: 6.00 Build 0)  -->
<!DOCTYPE svg PUBLIC "-//W3C//DTD SVG 1.1//EN" "http://www.w3.org/Graphics/SVG/1.1/DTD/svg11.dtd">
<svg version="1.1" xmlns="http://www.w3.org/2000/svg" xmlns:xlink="http://www.w3.org/1999/xlink" x="0px" y="0px"
	 width="714.284px" height="403.48px" viewBox="0 0 714.284 403.48" enable-background="new 0 0 714.284 403.48"
	 xml:space="preserve">
<g id="Calque_1" display="none">
	
		<image display="inline" overflow="visible" width="3264" height="1840" xlink:href="IMG_20131215_131107_475.jpg"  transform="matrix(0.2696 0 0 0.2696 -146.6602 -40.7803)">
	</image>
</g>
<g id="Calque_4">
	<path fill="#686A6D" d="M336.814,243.479c0,0-31.42,66.42-106.09,72.42c-13.74,1.1-25.96,0.89-36.84-0.34
		c-8.52-0.96-16.21-2.55-23.15-4.61c-5.4-1.6-10.35-3.49-14.88-5.59c-40.16-18.65-47.44-54.33-47.79-58.13
		c-0.74-7.9-5.34-24-11.34-36.66c-5.81-12.27-8.17-32.62-8.31-33.88c0-0.02-0.01-0.04-0.01-0.06l111.42-13.96l135.2-16.95
		c0,0,2.37,39.51,0.03,61.54S336.814,243.479,336.814,243.479z"/>
</g>
<g id="Calque_5">
	<path fill="#686A6D" d="M375.895,234.149c-0.47,1.84-1.34,3.35-2.41,4.59c-3.99,4.63-10.84,5.41-10.84,5.41s-13.81,3.08-24.84,0.22
		c-4.03-1.05-7.68-2.89-10.16-5.97c-9.25-11.5,2.75-75.5,2.75-75.5s1.88-0.44,4.8-0.89l0.01-0.01c6.15-0.95,16.9-1.98,24.19,0.9
		c10.75,4.25,13.81,7.69,14.75,12.25c0.61,2.96,3.78,17.92,4.11,34.36C378.425,217.799,377.875,226.469,375.895,234.149z"/>
</g>
<g id="Calque_6">
	<polygon fill="#74767C" points="352.015,187.399 352.015,220.779 349.395,219.839 340.895,218.899 340.895,185.519 
		349.015,186.459 350.274,186.849 	"/>
	<polygon fill="#4B4C4F" points="352.015,187.399 352.015,220.779 350.274,220.155 350.274,186.849 	"/>
</g>
<g id="Calque_3">
	<path fill="#74767A" d="M225.825,253.469c-19.86,2.979-39.19,2.01-56.82-2.21c-41.31-9.9-73.23-37.721-80.59-74.57
		c0-0.02-0.01-0.04-0.01-0.06c-0.25-1.27-0.48-2.54-0.67-3.83c-8.23-54.77,40.27-107.45,108.31-117.67
		c15.78-2.37,31.23-2.25,45.75,0.03c48.1,7.51,86.041,38.57,92.35,80.64c0.5,3.32,0.79,6.63,0.88,9.92
		C336.425,196.799,289.754,243.869,225.825,253.469z"/>
</g>
<g id="Calque_9">
	<path fill="#686A6D" d="M620.444,198.569c-4.21,0,0,0-11.72,0c-6.51,0-8.89,12.37-8.89,18.97c0,4.511,1.659,9.41,4.54,12.53
		c1.869,2.021,4.239,3.3,7.02,3.271c9.05-0.11,5.72-0.341,9.05-0.11c9.47,0.66,15.45-1.84,18.4-6.67c1.5-2.44,2.22-5.49,2.22-9.021
		C641.064,207.059,631.835,198.569,620.444,198.569z M623.085,230.418c-0.24-1.47-0.45-2.779-0.641-3.949
		c-3.43-21.12,0.4,2.479-3.88-23.9c11.38,0,17.83,5.86,17.83,14.73c0,4.199-1.43,7.159-3.68,9.229
		C630.215,228.819,626.715,229.969,623.085,230.418z"/>
</g>
<g id="Calque_2">
	
		<ellipse transform="matrix(0.9889 -0.1485 0.1485 0.9889 -19.3383 32.4109)" fill="#7E8082" cx="207.394" cy="145.719" rx="107" ry="83.18"/>
</g>
<g id="Calque_13">
	<path fill="#4B4C4F" d="M638.886,226.558c-2.95,4.83-8.931,7.33-18.4,6.67c-3.33-0.23,0,0-9.05,0.11
		c-2.78,0.029-5.15-1.25-7.02-3.271l0.71-3.689l17.359,0.09c0.19,1.17,0.4,2.479,0.641,3.949c3.63-0.449,7.13-1.6,9.63-3.89
		L638.886,226.558z"/>
</g>
<g id="Calque_8">
	<path fill="#EAF4F4" d="M619.215,226.708c-0.42,3.61-6.13,8.69-6.13,8.69c-0.391,0.65-1.051,1.15-1.601,1.12l-211.78-9.83
		c-0.55-0.021-0.97-0.55-0.939-1.18l0.36-7.83l1.359-29.22c0.03-0.63,0.5-1.12,1.05-1.1l211.771,9.83
		c0.55,0.03,0.979,0.56,0.95,1.19c0,0,4.489,23.9,4.97,27.52C619.255,226.159,619.255,226.429,619.215,226.708z"/>
</g>
<g id="Calque_10">
	<path fill="#D7E2E2" d="M619.215,226.708c-0.42,3.61-6.13,8.69-6.13,8.69c-0.391,0.65-1.051,1.15-1.601,1.12l-211.78-9.83
		c-0.55-0.021-0.97-0.55-0.939-1.18l0.36-7.83L619.215,226.708z"/>
</g>
<g id="Calque_7">
	<path fill="#686A6D" d="M411.725,217.069c0,0-0.05,0.33-0.13,0.87c-0.351,2.29-1.391,8.35-2.53,8.96c-1.42,0.75-36,0-36,0v-41.38
		c0,0,37.04,0.5,38.08,1.26C412.185,187.529,411.725,217.069,411.725,217.069z"/>
</g>
<g id="Calque_11">
	<path opacity="0.05" fill="#FFFFFF" d="M241.794,55.159l-41.97,107.51l-25.18,64.49l-5.64,24.09v0.011l1.73,59.689
		c-5.4-1.6-10.35-3.49-14.88-5.59c-40.16-18.65-47.44-54.33-47.79-58.13c-0.74-7.9-5.34-24-11.34-36.66
		c-5.81-12.27-8.17-32.62-8.31-33.88c0-0.02-0.01-0.04-0.01-0.06c-0.25-1.27-0.48-2.54-0.67-3.83
		c-8.23-54.77,40.27-107.45,108.31-117.67C211.825,52.759,227.274,52.879,241.794,55.159z"/>
	<path opacity="0.05" fill="#FFFFFF" d="M378.255,209.509c1.265,15.64-2.36,24.64-4.771,29.229c-3.99,4.63-10.84,5.41-10.84,5.41
		s-13.81,3.08-24.84,0.22l-1.74-0.89c0,0-1.41-44.49-0.9-81.45c0,0,0.011-0.01,0.03-0.02l0.01-0.01c6.15-0.95,16.9-1.98,24.19,0.9
		c10.75,4.25,13.81,7.69,14.75,12.25C374.755,178.109,377.925,193.069,378.255,209.509z"/>
</g>
<g id="Calque_12">
	<path fill="#4B4C4F" d="M411.595,217.939c-0.351,2.29-1.391,8.35-2.53,8.96c-1.42,0.75-31.752,0.084-31.752,0.084l1.203-9.304
		L411.595,217.939z"/>
</g>
</svg>
