<?xml version="1.0" encoding="utf-8"?>
<!-- Generator: Adobe Illustrator 16.0.0, SVG Export Plug-In . SVG Version: 6.00 Build 0)  -->
<!DOCTYPE svg PUBLIC "-//W3C//DTD SVG 1.1//EN" "http://www.w3.org/Graphics/SVG/1.1/DTD/svg11.dtd">
<svg version="1.1" id="Calque_1" xmlns="http://www.w3.org/2000/svg" xmlns:xlink="http://www.w3.org/1999/xlink" x="0px" y="0px"
	 width="464.074px" height="595.279px" viewBox="0 0 464.074 595.279" enable-background="new 0 0 464.074 595.279"
	 xml:space="preserve">
<g id="Calque_1_1_">
</g>
<g id="Calque_12">
	<g opacity="0.5">
		<g>
			<g>
				<path d="M227.111,508.754c2.934-0.585,5.774-2.236,8.829-2.097c3.785,0.172,7.237,0.392,10.71-1.076
					c6.176-2.606,12.7-3.821,19.019-5.74c2.54-0.774,5.247-0.779,7.787-1.555c2.802-0.858,5.862,0.12,8.416-1.669
					c3.842-2.687,9.213-1.895,13.699-2.354c4.146-0.436,8.168-3.033,12.352-3.275c2.051-0.117,4.39,0.936,6.418,0.77
					c1.725-0.139,3.131-1.006,4.788-1.355c-2.905-0.973-5.718,0.925-8.525,0.793c-3.67-0.171-6.516,1.677-9.937,2.798
					c-3.843,1.254-8.06,1.751-12.107,2.102c-3.537,0.299-6.897-0.697-10.262,0.818c-3.621,1.645-8.007,0.899-11.92,1.565
					c-2.256,0.383-4.734-0.035-6.797,1.246c-2.204,1.361-4.327,2.615-6.753,3.085c-7.133,1.384-14.242,3.657-21.44,5.093
					C230.164,508.145,228.386,509.744,227.111,508.754"/>
			</g>
		</g>
	</g>
	<g opacity="0.5">
		<g>
			<g>
				<path d="M248.325,511.92c2.933-0.585,5.773-2.236,8.828-2.097c3.785,0.172,7.237,0.392,10.71-1.076
					c6.176-2.606,12.7-3.821,19.019-5.74c2.54-0.774,5.247-0.779,7.787-1.555c2.802-0.858,5.862,0.12,8.416-1.669
					c3.842-2.687,9.213-1.895,13.7-2.354c4.145-0.436,8.168-3.033,12.351-3.275c2.051-0.117,4.39,0.936,6.419,0.77
					c1.723-0.139,3.13-1.006,4.787-1.355c-2.905-0.973-5.717,0.925-8.525,0.793c-3.67-0.171-6.516,1.677-9.937,2.798
					c-3.842,1.254-8.06,1.751-12.107,2.102c-3.537,0.299-6.897-0.697-10.262,0.818c-3.621,1.645-8.007,0.899-11.92,1.565
					c-2.256,0.383-4.734-0.035-6.797,1.246c-2.204,1.361-4.327,2.615-6.753,3.085c-7.132,1.384-14.242,3.657-21.44,5.093
					C251.377,511.311,249.601,512.91,248.325,511.92"/>
			</g>
		</g>
	</g>
	<g opacity="0.5">
		<g>
			<g>
				<path d="M328.327,455.308c2.232-0.463,4.389-1.752,6.721-1.652c2.891,0.121,5.527,0.28,8.165-0.867
					c4.69-2.041,9.661-3.004,14.467-4.512c1.932-0.607,3.998-0.62,5.93-1.229c2.133-0.677,4.478,0.074,6.41-1.32
					c2.909-2.096,7.016-1.498,10.437-1.869c3.16-0.351,6.209-2.378,9.398-2.578c1.564-0.098,3.357,0.711,4.905,0.576
					c1.314-0.112,2.381-0.79,3.643-1.066c-2.226-0.744-4.354,0.735-6.5,0.643c-2.803-0.121-4.959,1.32-7.561,2.201
					c-2.922,0.982-6.136,1.382-9.223,1.665c-2.697,0.243-5.271-0.52-7.825,0.667c-2.751,1.286-6.104,0.723-9.085,1.251
					c-1.718,0.305-3.613-0.013-5.177,0.986c-1.672,1.062-3.28,2.042-5.129,2.414c-5.432,1.097-10.84,2.88-16.32,4.017
					C330.651,454.825,329.308,456.073,328.327,455.308"/>
			</g>
		</g>
	</g>
	<g opacity="0.5">
		<g>
			<g>
				<path d="M344.482,457.812c2.233-0.463,4.39-1.752,6.722-1.652c2.891,0.121,5.526,0.28,8.165-0.866
					c4.69-2.042,9.66-3.005,14.467-4.514c1.932-0.606,3.998-0.62,5.93-1.229c2.132-0.675,4.478,0.075,6.41-1.32
					c2.909-2.095,7.015-1.498,10.436-1.869c3.16-0.35,6.209-2.378,9.399-2.578c1.564-0.098,3.357,0.711,4.905,0.576
					c1.313-0.112,2.381-0.79,3.643-1.065c-2.226-0.745-4.354,0.734-6.5,0.642c-2.803-0.121-4.959,1.32-7.561,2.201
					c-2.922,0.982-6.137,1.383-9.224,1.666c-2.696,0.243-5.271-0.521-7.824,0.667c-2.75,1.286-6.104,0.723-9.086,1.251
					c-1.718,0.304-3.612-0.014-5.177,0.986c-1.671,1.062-3.279,2.042-5.128,2.414c-5.432,1.096-10.84,2.88-16.321,4.017
					C346.806,457.33,345.464,458.577,344.482,457.812"/>
			</g>
		</g>
	</g>
	<g opacity="0.5">
		<g>
			<g>
				<path d="M150.793,434.334c1.921-0.337,3.807-1.328,5.791-1.219c2.458,0.137,4.7,0.298,6.991-0.575
					c4.074-1.554,8.347-2.247,12.499-3.377c1.669-0.455,3.431-0.438,5.101-0.893c1.842-0.507,3.812,0.12,5.512-0.959
					c2.56-1.62,6.035-1.091,8.965-1.338c2.706-0.234,5.382-1.8,8.107-1.915c1.337-0.056,2.836,0.608,4.159,0.522
					c1.125-0.07,2.06-0.594,3.145-0.795c-1.868-0.621-3.739,0.523-5.562,0.419c-2.386-0.134-4.276,0.979-6.526,1.643
					c-2.527,0.739-5.281,1.011-7.923,1.192c-2.309,0.156-4.474-0.482-6.695,0.423c-2.392,0.98-5.229,0.488-7.789,0.866
					c-1.476,0.218-3.079-0.06-4.448,0.711c-1.465,0.819-2.873,1.573-4.463,1.844c-4.67,0.794-9.346,2.134-14.061,2.959
					C152.793,433.984,151.602,434.953,150.793,434.334"/>
			</g>
		</g>
	</g>
	<g opacity="0.5">
		<g>
			<g>
				<path d="M164.688,436.153c1.921-0.336,3.808-1.328,5.791-1.218c2.458,0.136,4.7,0.298,6.991-0.575
					c4.075-1.554,8.347-2.248,12.499-3.377c1.669-0.456,3.431-0.438,5.101-0.893c1.843-0.507,3.812,0.12,5.513-0.959
					c2.559-1.62,6.035-1.092,8.965-1.339c2.706-0.233,5.381-1.8,8.106-1.914c1.338-0.057,2.836,0.608,4.159,0.522
					c1.125-0.071,2.061-0.594,3.146-0.795c-1.868-0.621-3.739,0.523-5.563,0.419c-2.385-0.134-4.275,0.979-6.525,1.642
					c-2.527,0.739-5.281,1.012-7.924,1.193c-2.309,0.156-4.474-0.483-6.694,0.422c-2.393,0.981-5.229,0.489-7.789,0.867
					c-1.477,0.217-3.079-0.06-4.449,0.711c-1.464,0.819-2.873,1.573-4.462,1.843c-4.67,0.794-9.346,2.135-14.062,2.959
					C166.688,435.804,165.497,436.773,164.688,436.153"/>
			</g>
		</g>
	</g>
	<g opacity="0.5">
		<g>
			<g>
				<path d="M63.31,483.524c2.362-0.559,4.604-2.047,7.098-1.974c3.089,0.089,5.907,0.224,8.671-1.112
					c4.914-2.377,10.173-3.544,15.23-5.322c2.034-0.717,4.237-0.766,6.271-1.481c2.244-0.796,4.777,0.01,6.778-1.595
					c3.012-2.407,7.417-1.804,11.05-2.278c3.354-0.446,6.518-2.78,9.911-3.061c1.664-0.137,3.613,0.745,5.259,0.567
					c1.396-0.149,2.505-0.93,3.838-1.262c-2.406-0.804-4.613,0.899-6.904,0.83c-2.995-0.091-5.231,1.569-7.968,2.604
					c-3.073,1.157-6.483,1.659-9.765,2.03c-2.866,0.317-5.646-0.497-8.317,0.882c-2.877,1.494-6.479,0.915-9.635,1.561
					c-1.819,0.37-3.854,0.046-5.479,1.197c-1.735,1.226-3.409,2.354-5.363,2.804c-5.745,1.324-11.435,3.426-17.231,4.795
					C65.769,482.942,64.392,484.368,63.31,483.524"/>
			</g>
		</g>
	</g>
	<g opacity="0.5">
		<g>
			<g>
				<path d="M80.395,486.546c2.362-0.56,4.604-2.048,7.098-1.975c3.088,0.089,5.907,0.225,8.671-1.111
					c4.914-2.378,10.173-3.545,15.23-5.322c2.034-0.717,4.237-0.767,6.271-1.482c2.244-0.796,4.777,0.01,6.778-1.594
					c3.011-2.408,7.416-1.804,11.05-2.279c3.354-0.445,6.518-2.779,9.911-3.06c1.664-0.137,3.613,0.745,5.259,0.566
					c1.396-0.148,2.505-0.93,3.838-1.262c-2.406-0.803-4.613,0.9-6.904,0.83c-2.995-0.09-5.23,1.57-7.968,2.604
					c-3.073,1.156-6.483,1.658-9.765,2.029c-2.866,0.318-5.646-0.497-8.317,0.882c-2.877,1.494-6.479,0.915-9.635,1.562
					c-1.819,0.37-3.854,0.046-5.479,1.197c-1.735,1.225-3.409,2.354-5.363,2.804c-5.744,1.324-11.435,3.425-17.231,4.795
					C82.854,485.964,81.477,487.391,80.395,486.546"/>
			</g>
		</g>
	</g>
</g>
<g id="Calque_4">
	<path fill="#BC9174" d="M326.818,144.283L295.935,273.78l52.23,184.5h12.27c0,0-46-179.5-46-185.5s19.61-143.155,19.61-143.155
		L326.818,144.283z"/>
</g>
<g id="Calque_5">
	<polygon fill="#E2C3AB" points="316.271,159.029 292.935,265.78 292.935,275.78 344.666,458.28 348.166,458.28 297.627,273.638 
		326.818,144.283 	"/>
	<polygon fill="#E2C3AB" points="185.701,144.283 182.935,257.28 193.435,257.28 196.935,144.283 	"/>
</g>
<g id="Calque_8">
	<path fill="#BC9174" d="M180.435,301.281c0,0-5,129.998-6.666,133.665c6,0.334,9.166,0,9.166,0l9.834-137.306L180.435,301.281z"/>
	<polygon fill="#BC9174" points="305.194,301.281 109.435,304.78 109.435,275.258 300.519,273.78 	"/>
</g>
<g id="Calque_6">
	<polygon fill="#BC9174" points="245.435,293.952 234.935,514.78 245.435,514.78 255.935,293.952 	"/>
	<polygon fill="#BC9174" points="245.435,293.952 226.31,284.343 234.935,283.974 255.935,293.952 	"/>
</g>
<g id="Calque_7">
	<polygon fill="#E2C3AB" points="245.435,293.952 208.852,283.974 204.065,303.085 234.935,316.78 230.935,510.78 234.935,514.78 	
		"/>
</g>
<g id="Calque_9">
	<path fill="#E2C3AB" d="M88.935,274.308l-15,211.472h10c0,0,25.521-194.063,24.589-209.004
		C95.759,276.41,88.935,274.308,88.935,274.308z"/>
	<path fill="#BC9174" d="M92.935,276.78l-15.5,209h10c0,0,25.521-194.063,24.589-209.004C99.259,276.41,92.935,276.78,92.935,276.78
		z"/>
	<polygon fill="#BC9174" points="104.421,274.308 91.242,274.308 88.935,274.308 92.935,276.78 116.268,276.78 	"/>
</g>
<g id="Calque_11">
	<path fill="none" stroke="#AA8166" stroke-miterlimit="10" d="M109.435,304.78v-24.5V304.78z"/>
	<path fill="none" stroke="#AA8166" stroke-miterlimit="10" d="M305.194,301.281l-7.496-27.501L305.194,301.281z"/>
	<path fill="none" stroke="#AA8166" stroke-miterlimit="10" d="M255.549,292.52l-25.592-7.793L255.549,292.52z"/>
	<path fill="none" stroke="#AA8166" stroke-miterlimit="10" d="M244.486,513.591l11.063-221.428L244.486,513.591z"/>
</g>
<g id="Calque_3">
	<path fill="#C1C1C1" d="M177.769,87.614c0,0,90.832,11.334,163.499-1.333c22.667-1.333-10.666,59.333-10.666,59.333
		s-32,65.333-119.333,17.333c0,0-45.334-25.333-50.668-64C157.935,72.281,177.769,87.614,177.769,87.614z"/>
	<path fill="#C1C1C1" d="M292.935,273.432c0,6.927-44.212,12.542-98.75,12.542s-95.25-3.584-96.75-12.542
		c-0.394-2.353-0.037-1.777,0.013-6.111c14.658-4.614,56.526-6.431,96.737-6.431c41.676,0,83.818,1.533,98.313,6.171
		C293.185,270.53,292.935,271.799,292.935,273.432z"/>
</g>
<g id="Calque_2">
	<path fill="#EFEFEF" d="M173.435,79.614c0,0,90.666,19.334,163.333,6.667c22.667-1.333-10.666,59.333-10.666,59.333
		s-32,65.333-119.333,17.333c0,0-45.334-25.333-50.668-64C153.435,72.281,173.435,79.614,173.435,79.614z"/>
	<path fill="#EFEFEF" d="M292.935,268.238c0,6.928-44.212,12.542-98.75,12.542s-95.25-3.584-96.75-12.542
		s42.212-12.542,96.75-12.542S292.935,261.312,292.935,268.238z"/>
</g>
<g id="Calque_10">
</g>
</svg>
