<?xml version="1.0" encoding="utf-8"?>
<!-- Generator: Adobe Illustrator 16.0.0, SVG Export Plug-In . SVG Version: 6.00 Build 0)  -->
<!DOCTYPE svg PUBLIC "-//W3C//DTD SVG 1.1//EN" "http://www.w3.org/Graphics/SVG/1.1/DTD/svg11.dtd">
<svg version="1.1" xmlns="http://www.w3.org/2000/svg" xmlns:xlink="http://www.w3.org/1999/xlink" x="0px" y="0px"
	 width="184.811px" height="595.28px" viewBox="0 0 184.811 595.28" enable-background="new 0 0 184.811 595.28"
	 xml:space="preserve">
<g id="Calque_1">
</g>
<g id="Calque_3">
	<path fill="#121412" d="M129.742,516.156c-0.05,4.84-0.109,9.04-0.18,12.5h-43.5c0.24-0.74,0.42-1.17,0.42-1.17s5.33-7.66,4-41
		c-1.34-33.33,3-58.33,5.33-72.66c2.33-14.34,5.33-30,6.33-50.34c0.07-1.36,0.08-2.63,0.04-3.83h26.649
		c0.301,0.32,0.28,1,0.311,2.17C129.862,423.626,130.062,484.036,129.742,516.156z"/>
	<path fill="#DFE0E2" d="M128.83,359.656h-26.65c-0.46-16.8-10.039-18.83-10.039-18.83l-8.511-1.7l-19.819-3.97v-8.33
		c0,0,8.35-0.24,19.08-0.439c9.67-0.19,21.279-0.351,30.42-0.29c1.17,0.01,2.3,0.02,3.38,0.04c1.479,0.02,2.859,0.05,4.12,0.09
		c3.819,0.109,6.59,0.3,7.67,0.6c-0.07,0.32-0.141,0.67-0.21,1.04c-1.4,8.1-0.79,27.48-0.79,31.62
		C128.21,359.376,128.61,359.416,128.83,359.656z"/>
	<path fill="#DFE0E2" d="M129.562,528.656c-0.11,5.41-0.25,9.03-0.42,10.5c-4.1,0.89-8.311,1.47-12.45,1.81
		c-14.37,1.181-27.82-0.51-32.21-1.81c-0.25-4.35,0.92-8.53,1.58-10.5H129.562z"/>
	<g>
		<path fill="#E2E2E2" d="M91.479,526.241c0,0,0.134-0.098,0.308-0.355c0.186-0.247,0.409-0.653,0.641-1.205
			c0.471-1.104,0.914-2.814,1.291-5.018c0.386-2.204,0.635-4.92,0.767-8.039c0.15-3.117,0.139-6.646,0.099-10.49
			c-0.062-1.923-0.126-3.926-0.192-5.999c-0.101-2.077-0.203-4.225-0.31-6.433c-0.23-4.406-0.386-9.116-0.373-13.967
			c-0.033-4.85,0.096-9.863,0.361-14.95c0.259-5.088,0.66-10.249,1.193-15.396c0.549-5.145,1.223-10.275,1.98-15.306
			c0.765-5.033,1.65-9.946,2.477-14.707c0.85-4.751,1.671-9.344,2.45-13.699c0.367-2.178,0.726-4.296,1.071-6.346
			c0.322-2.052,0.634-4.035,0.933-5.939c0.522-3.816,1.066-7.312,1.412-10.427c0.184-1.557,0.355-3.014,0.515-4.361
			c0.128-1.352,0.245-2.592,0.352-3.713c0.111-1.121,0.212-2.122,0.299-2.993c0.067-0.872,0.125-1.614,0.172-2.216
			c0.037-1.206,0.058-1.849,0.058-1.849s0.035,0.645,0.101,1.854c0.025,1.207,0.034,2.986-0.058,5.239
			c-0.035,1.128-0.073,2.378-0.114,3.737c-0.073,1.359-0.152,2.829-0.236,4.399c-0.148,3.145-0.445,6.683-0.82,10.539
			c-0.212,1.926-0.433,3.932-0.661,6.008c-0.271,2.069-0.553,4.209-0.842,6.409c-0.625,4.393-1.297,9.013-2.051,13.782
			c-1.462,9.551-3.058,19.688-4.064,29.897c-0.513,5.101-0.98,10.208-1.259,15.248c-0.27,5.039-0.508,10.002-0.574,14.81
			c-0.1,4.809-0.044,9.435,0.019,13.875c0.026,2.218,0.052,4.374,0.076,6.46c0.001,2.092-0.052,4.113-0.093,6.053
			c-0.146,3.881-0.325,7.438-0.726,10.575c-0.356,3.138-0.803,5.862-1.352,8.068c-0.521,2.211-1.163,3.896-1.741,4.969
			c-0.287,0.537-0.552,0.925-0.764,1.157C91.621,526.157,91.479,526.241,91.479,526.241z"/>
	</g>
	<path opacity="0.4" fill="#121412" d="M128.832,359.656h-12.14v-33.52c1.48,0.02,2.86,0.05,4.12,0.09c3.82,0.109,6.59,0.3,7.67,0.6
		c-1.67,7.33-1,28.33-1,32.66C128.213,359.376,128.612,359.416,128.832,359.656z"/>
	<path opacity="0.4" fill="#121412" d="M129.742,516.156c-0.05,4.84-0.109,9.04-0.18,12.5c-0.11,5.41-0.25,9.03-0.42,10.5
		c-4.1,0.89-8.311,1.47-12.45,1.81v-24.88C121.332,516.097,125.713,516.126,129.742,516.156z"/>
	<path fill="#E5E6E8" d="M121.442,413.906c0,3.18-2.57,5.75-5.75,5.75s-5.75-2.57-5.75-5.75s2.57-5.75,5.75-5.75
		S121.442,410.727,121.442,413.906z"/>
	<path fill="#E5E6E8" d="M121.442,477.906c0,3.18-2.57,5.75-5.75,5.75s-5.75-2.57-5.75-5.75s2.57-5.75,5.75-5.75
		S121.442,474.727,121.442,477.906z"/>
	<path fill="#B6B6B7" d="M121.442,477.906c0,3.18-2.57,5.75-5.75,5.75v-11.5C118.872,472.156,121.442,474.727,121.442,477.906z"/>
	<path fill="#B6B6B7" d="M115.692,419.656v-11.5c3.18,0,5.75,2.57,5.75,5.75S118.872,419.656,115.692,419.656z"/>
</g>
<g id="Calque_2">
	<path fill="#E5E6E8" d="M128.8,327.826c-0.18,0.021-0.35,0.03-0.529,0.04c-3.66,0.32-7.561,0.55-11.58,0.7
		c-1.521,0.06-3.05,0.109-4.59,0.149c-0.721,0.021-1.44,0.03-2.16,0.051c-9.37,0.189-18.9,0.069-26.92-0.13
		c-9.351-0.25-16.641-0.62-19.21-0.75c-0.66-0.04-1.011-0.061-1.011-0.061c3.95-197.81,26.87-258.02,40.15-281.08
		c2.88-5.01,5.31-8.27,6.99-10.8c1.04-1.57,1.79-2.86,2.189-4.12c0.221,0.54,0.44,1.09,0.65,1.66
		C135.351,93.616,128.8,327.826,128.8,327.826z"/>
	<path opacity="0.4" fill="#FFFFFF" d="M83.021,328.637c0.189,3.46,0.39,6.96,0.609,10.489l-19.819-3.97v-7.27
		c-0.66-0.04-1.011-0.061-1.011-0.061c3.95-197.81,26.87-258.02,40.15-281.08c-8.96,27.67-29.28,111.08-20.06,279.641
		C82.93,327.137,82.97,327.887,83.021,328.637z"/>
</g>
</svg>
