<?xml version="1.0" encoding="utf-8"?>
<!-- Generator: Adobe Illustrator 16.0.0, SVG Export Plug-In . SVG Version: 6.00 Build 0)  -->
<!DOCTYPE svg PUBLIC "-//W3C//DTD SVG 1.1//EN" "http://www.w3.org/Graphics/SVG/1.1/DTD/svg11.dtd">
<svg version="1.1" xmlns="http://www.w3.org/2000/svg" xmlns:xlink="http://www.w3.org/1999/xlink" x="0px" y="0px"
	 width="400.479px" height="268.28px" viewBox="0 0 400.479 268.28" enable-background="new 0 0 400.479 268.28"
	 xml:space="preserve">
<g id="Calque_1">
</g>
<g id="Calque_2">
	<polygon fill="#242A24" points="40.579,75.143 165.344,30.758 352.492,132.979 209.463,187.4 	"/>
	<rect x="40.579" y="67.5" fill="#242A24" width="23.934" height="7.527"/>
	<rect x="328.559" y="125.143" fill="#242A24" width="23.934" height="7.528"/>
	<polyline fill="#272D27" points="209.46,179.753 40.58,67.503 165.34,23.113 	"/>
	<polygon fill="#B3813D" points="209.21,232.63 40.579,119.781 40.579,74.913 209.569,186.54 	"/>
	<polygon opacity="0.5" fill="#2E4E3D" points="352.492,132.979 209.463,187.4 209.104,179.566 352.492,125.143 	"/>
	<polygon fill="#EDB552" points="352.492,173.565 209.21,232.63 209.463,186.4 352.492,131.979 	"/>
	<polygon fill="#2E4E3D" points="40.579,67.5 165.29,20.78 352.492,125.143 209.104,179.566 	"/>
</g>
<g id="Calque_3">
	<ellipse fill="#B3813D" cx="231.312" cy="196.252" rx="3.883" ry="2.278"/>
	<ellipse fill="#B3813D" cx="245.57" cy="205.752" rx="3.641" ry="3.278"/>
	<ellipse fill="#B3813D" cx="252.272" cy="177.868" rx="3.061" ry="2.67"/>
	<ellipse fill="#B3813D" cx="258.522" cy="192.497" rx="4.561" ry="2.799"/>
	
		<ellipse transform="matrix(-0.4801 0.8772 -0.8772 -0.4801 563.2535 10.4129)" fill="#B3813D" cx="278.541" cy="172.118" rx="3.883" ry="2.278"/>
	
		<ellipse transform="matrix(0.8767 0.481 -0.481 0.8767 125.4124 -114.7031)" fill="#B3813D" cx="286.471" cy="187.305" rx="3.641" ry="3.278"/>
	
		<ellipse transform="matrix(0.8767 0.481 -0.481 0.8767 119.3765 -118.0803)" fill="#B3813D" cx="290.032" cy="173.832" rx="3.061" ry="2.671"/>
	
		<ellipse transform="matrix(-0.1706 0.9853 -0.9853 -0.1706 506.6032 -107.2855)" fill="#B3813D" cx="298.453" cy="159.563" rx="4.561" ry="2.799"/>
	<ellipse fill="#B3813D" cx="273.312" cy="185.72" rx="3.883" ry="2.278"/>
	<ellipse fill="#B3813D" cx="306.313" cy="178.475" rx="3.641" ry="3.278"/>
	
		<ellipse transform="matrix(-0.0781 0.9969 -0.9969 -0.0781 506.6644 -145.3594)" fill="#B3813D" cx="320.542" cy="161.585" rx="3.883" ry="2.278"/>
	
		<ellipse transform="matrix(0.8767 0.481 -0.481 0.8767 119.4883 -139.582)" fill="#B3813D" cx="332.032" cy="163.3" rx="3.061" ry="2.671"/>
	
		<ellipse transform="matrix(-0.1651 0.9863 -0.9863 -0.1651 543.6359 -162.1514)" fill="#B3813D" cx="340.452" cy="149.031" rx="4.561" ry="2.799"/>
	
		<ellipse transform="matrix(0.5531 0.8331 -0.8331 0.5531 105.4708 2.0704)" fill="#996D39" cx="50.806" cy="99.341" rx="3.883" ry="2.278"/>
	
		<ellipse transform="matrix(0.5531 0.8331 -0.8331 0.5531 119.7296 9.7506)" fill="#996D39" cx="50.776" cy="116.474" rx="3.641" ry="3.278"/>
	
		<ellipse transform="matrix(0.5532 0.8331 -0.8331 0.5532 123.557 -17.0949)" fill="#996D39" cx="77.715" cy="106.635" rx="3.061" ry="2.67"/>
	
		<ellipse transform="matrix(0.553 0.8332 -0.8332 0.553 130.7553 -3.8687)" fill="#996D39" cx="68.983" cy="119.933" rx="4.561" ry="2.799"/>
	
		<ellipse transform="matrix(-0.9964 0.0852 -0.0852 -0.9964 204.3914 241.9613)" fill="#996D39" cx="97.033" cy="125.342" rx="3.883" ry="2.278"/>
	
		<ellipse transform="matrix(0.0841 0.9965 -0.9965 0.0841 221.1522 40.0937)" fill="#996D39" cx="88.766" cy="140.348" rx="3.641" ry="3.278"/>
	
		<ellipse transform="matrix(0.0841 0.9965 -0.9965 0.0841 228.7719 22.8428)" fill="#996D39" cx="101.96" cy="135.863" rx="3.061" ry="2.67"/>
	
		<ellipse transform="matrix(-0.9153 0.4028 -0.4028 -0.9153 281.3445 210.8088)" fill="#996D39" cx="118.506" cy="134.988" rx="4.561" ry="2.799"/>
	
		<ellipse transform="matrix(0.5531 0.8331 -0.8331 0.5531 144.0737 -11.5578)" fill="#996D39" cx="82.81" cy="128.508" rx="3.883" ry="2.278"/>
	
		<ellipse transform="matrix(0.553 0.8332 -0.8332 0.553 174.513 -21.289)" fill="#996D39" cx="107.097" cy="151.996" rx="3.64" ry="3.278"/>
	
		<ellipse transform="matrix(-0.8738 0.4863 -0.4863 -0.8738 316.9239 226.7736)" fill="#996D39" cx="129.038" cy="154.508" rx="3.883" ry="2.278"/>
	
		<ellipse transform="matrix(0.0841 0.9965 -0.9965 0.0841 287.148 17.6661)" fill="#996D39" cx="133.964" cy="165.03" rx="3.061" ry="2.671"/>
	
		<ellipse transform="matrix(-0.913 0.408 -0.408 -0.913 354.8918 252.6246)" fill="#996D39" cx="150.509" cy="164.153" rx="4.561" ry="2.799"/>
	
		<ellipse transform="matrix(-0.9964 0.0852 -0.0852 -0.9964 355.2134 325.4424)" fill="#996D39" cx="170.663" cy="170.3" rx="3.883" ry="2.278"/>
	
		<ellipse transform="matrix(0.0841 0.9965 -0.9965 0.0841 333.3894 7.9024)" fill="#996D39" cx="162.396" cy="185.306" rx="3.641" ry="3.278"/>
	
		<ellipse transform="matrix(0.0841 0.9965 -0.9965 0.0841 341.0116 -9.3473)" fill="#996D39" cx="175.59" cy="180.822" rx="3.061" ry="2.67"/>
	
		<ellipse transform="matrix(0.0841 0.9965 -0.9965 0.0841 350.0085 -1.0775)" fill="#996D39" cx="175.59" cy="189.851" rx="3.061" ry="2.67"/>
	
		<ellipse transform="matrix(-0.9153 0.4028 -0.4028 -0.9153 444.1126 284.5535)" fill="#996D39" cx="192.136" cy="188.975" rx="4.561" ry="2.799"/>
	
		<ellipse transform="matrix(0.553 0.8332 -0.8332 0.553 252.4071 -58.5037)" fill="#996D39" cx="180.727" cy="205.983" rx="3.64" ry="3.278"/>
	
		<ellipse transform="matrix(-0.8738 0.4863 -0.4863 -0.8738 481.1445 292.1323)" fill="#996D39" cx="202.667" cy="208.496" rx="3.883" ry="2.278"/>
</g>
</svg>
