<?xml version="1.0" encoding="utf-8"?>
<!-- Generator: Adobe Illustrator 16.0.0, SVG Export Plug-In . SVG Version: 6.00 Build 0)  -->
<!DOCTYPE svg PUBLIC "-//W3C//DTD SVG 1.1//EN" "http://www.w3.org/Graphics/SVG/1.1/DTD/svg11.dtd">
<svg version="1.1" xmlns="http://www.w3.org/2000/svg" xmlns:xlink="http://www.w3.org/1999/xlink" x="0px" y="0px"
	 width="387.025px" height="268.28px" viewBox="0 0 387.025 268.28" enable-background="new 0 0 387.025 268.28"
	 xml:space="preserve">
<g id="Calque_1">
</g>
<g id="Calque_2">
	<polygon fill="#242A24" points="43.713,114.934 168.478,70.549 355.626,172.769 212.597,227.19 	"/>
	<rect x="43.713" y="107.29" fill="#242A24" width="23.934" height="7.528"/>
	<rect x="331.692" y="164.934" fill="#242A24" width="23.934" height="7.528"/>
	<linearGradient id="SVGID_1_" gradientUnits="userSpaceOnUse" x1="249.8682" y1="76.3838" x2="149.4715" y2="196.0319">
		<stop  offset="0" style="stop-color:#2E4E3D"/>
		<stop  offset="0.8073" style="stop-color:#283A2F"/>
		<stop  offset="1" style="stop-color:#242A24"/>
	</linearGradient>
	<polygon fill="url(#SVGID_1_)" points="43.713,107.29 168.478,62.906 355.626,165.125 212.597,219.547 	"/>
	
		<line fill="none" stroke="#242A24" stroke-width="1.2582" stroke-miterlimit="10" x1="212.597" y1="183.547" x2="212.597" y2="191.19"/>
	<polygon fill="#B3813D" points="212.344,219.997 43.713,107.29 43.713,65.28 212.703,172.908 	"/>
	<polygon fill="#EDB552" points="355.626,164.934 212.344,219.997 212.344,172.908 355.732,124.947 	"/>
	<polygon opacity="0.5" fill="#2E4E3D" points="355.626,172.769 212.597,227.19 212.344,219.997 355.626,164.934 	"/>
	<polygon fill="#EDB552" points="43.713,65.165 168.478,20.78 355.732,124.947 212.597,177.421 	"/>
	<polygon opacity="0.1" fill="#FFFFFF" points="355.626,164.934 212.344,219.997 212.344,177.421 355.626,124.947 	"/>
</g>
<g id="Calque_3">
	
		<ellipse transform="matrix(0.9763 -0.2166 0.2166 0.9763 -23.7223 77.9146)" opacity="0.6" fill="#B3813D" cx="343.659" cy="147.201" rx="4.561" ry="2.799"/>
	
		<ellipse transform="matrix(-0.8738 0.4863 -0.4863 -0.8738 264.5161 208.9302)" opacity="0.6" fill="#B3813D" cx="105.149" cy="138.787" rx="3.883" ry="2.278"/>
	
		<ellipse transform="matrix(0.0841 0.9965 -0.9965 0.0841 249.6016 27.0702)" opacity="0.6" fill="#B3813D" cx="110.076" cy="149.308" rx="3.061" ry="2.671"/>
	
		<ellipse transform="matrix(-0.913 0.408 -0.408 -0.913 302.7789 232.2945)" opacity="0.6" fill="#B3813D" cx="126.621" cy="148.432" rx="4.561" ry="2.799"/>
	
		<ellipse transform="matrix(-0.8738 0.4863 -0.4863 -0.8738 428.7367 274.2889)" opacity="0.6" fill="#B3813D" cx="178.779" cy="192.774" rx="3.883" ry="2.278"/>
	
		<ellipse transform="matrix(0.5531 0.8331 -0.8331 0.5531 239.9182 -84.2379)" opacity="0.6" fill="#B3813D" cx="198.475" cy="181.501" rx="3.883" ry="2.278"/>
	
		<ellipse transform="matrix(-0.38 -0.925 0.925 -0.38 212.111 512.7782)" opacity="0.6" fill="#B3813D" cx="277.898" cy="185.306" rx="3.883" ry="2.278"/>
	
		<ellipse transform="matrix(0.0841 0.9965 -0.9965 0.0841 418.5156 -144.0232)" opacity="0.6" fill="#B3813D" cx="287.6" cy="155.643" rx="3.061" ry="2.67"/>
	
		<ellipse transform="matrix(-0.9153 0.4028 -0.4028 -0.9153 644.866 173.9194)" opacity="0.6" fill="#B3813D" cx="304.146" cy="154.767" rx="4.561" ry="2.799"/>
	
		<ellipse transform="matrix(0.553 0.8332 -0.8332 0.553 273.9743 -167.1195)" opacity="0.6" fill="#B3813D" cx="292.737" cy="171.775" rx="3.64" ry="3.278"/>
	
		<ellipse transform="matrix(-0.8738 0.4863 -0.4863 -0.8738 674.3958 173.5668)" opacity="0.6" fill="#B3813D" cx="314.677" cy="174.288" rx="3.883" ry="2.278"/>
	
		<ellipse transform="matrix(0.5532 0.8331 -0.8331 0.5532 264.7046 -211.243)" opacity="0.6" fill="#B3813D" cx="329.278" cy="141.143" rx="3.061" ry="2.67"/>
	
		<ellipse transform="matrix(0.553 0.8332 -0.8332 0.553 271.943 -198.0361)" opacity="0.6" fill="#B3813D" cx="320.547" cy="154.441" rx="4.561" ry="2.799"/>
	
		<ellipse transform="matrix(-0.9964 0.0852 -0.0852 -0.9964 709.5435 289.4201)" opacity="0.6" fill="#B3813D" cx="348.597" cy="159.849" rx="3.883" ry="2.278"/>
	
		<ellipse transform="matrix(0.5531 0.8331 -0.8331 0.5531 285.2532 -205.7212)" opacity="0.6" fill="#B3813D" cx="334.373" cy="163.015" rx="3.883" ry="2.278"/>
	
		<ellipse transform="matrix(-0.38 -0.925 0.925 -0.38 183.2326 476.6316)" opacity="0.6" fill="#B3813D" cx="251.346" cy="176.911" rx="3.883" ry="2.278"/>
	
		<ellipse transform="matrix(0.0841 0.9965 -0.9965 0.0841 377.6829 -38.6655)" opacity="0.6" fill="#B3813D" cx="209.875" cy="186.117" rx="3.641" ry="3.278"/>
	
		<ellipse transform="matrix(0.0841 0.9965 -0.9965 0.0841 385.3067 -55.9153)" opacity="0.6" fill="#B3813D" cx="223.069" cy="181.632" rx="3.061" ry="2.67"/>
	
		<ellipse transform="matrix(0.0841 0.9965 -0.9965 0.0841 410.4982 -118.2785)" opacity="0.6" fill="#B3813D" cx="269.587" cy="164.154" rx="3.061" ry="2.67"/>
	
		<ellipse transform="matrix(-0.9153 0.4028 -0.4028 -0.9153 535.3745 266.9824)" opacity="0.6" fill="#B3813D" cx="239.614" cy="189.785" rx="4.561" ry="2.799"/>
	
		<ellipse transform="matrix(0.553 0.8332 -0.8332 0.553 274.3055 -97.6997)" opacity="0.6" fill="#B3813D" cx="228.206" cy="206.793" rx="3.64" ry="3.278"/>
	
		<ellipse transform="matrix(0.5532 0.8331 -0.8331 0.5532 265.0438 -141.8382)" opacity="0.6" fill="#B3813D" cx="264.747" cy="176.161" rx="3.061" ry="2.67"/>
	
		<ellipse transform="matrix(0.553 0.8332 -0.8332 0.553 272.2761 -128.62)" opacity="0.6" fill="#B3813D" cx="256.016" cy="189.459" rx="4.561" ry="2.799"/>
	
		<ellipse transform="matrix(0.5531 0.8331 -0.8331 0.5531 99.7797 -5.4124)" fill="#996D39" cx="54.935" cy="90.295" rx="3.883" ry="2.278"/>
	
		<ellipse transform="matrix(0.5531 0.8331 -0.8331 0.5531 114.0385 2.268)" fill="#996D39" cx="54.905" cy="107.428" rx="3.641" ry="3.278"/>
	
		<ellipse transform="matrix(0.5532 0.8331 -0.8331 0.5532 117.8661 -24.5763)" fill="#996D39" cx="81.844" cy="97.59" rx="3.061" ry="2.67"/>
	
		<ellipse transform="matrix(0.553 0.8332 -0.8332 0.553 125.0641 -11.3519)" fill="#996D39" cx="73.112" cy="110.887" rx="4.561" ry="2.799"/>
	
		<ellipse transform="matrix(-0.9964 0.0852 -0.0852 -0.9964 211.8636 223.5507)" fill="#996D39" cx="101.162" cy="116.296" rx="3.883" ry="2.278"/>
	
		<ellipse transform="matrix(0.0841 0.9965 -0.9965 0.0841 215.92 27.6943)" fill="#996D39" cx="92.895" cy="131.302" rx="3.641" ry="3.278"/>
	
		<ellipse transform="matrix(0.0841 0.9965 -0.9965 0.0841 223.5398 10.443)" fill="#996D39" cx="106.089" cy="126.817" rx="3.061" ry="2.67"/>
	
		<ellipse transform="matrix(-0.9153 0.4028 -0.4028 -0.9153 285.609 191.8202)" fill="#996D39" cx="122.635" cy="125.942" rx="4.561" ry="2.799"/>
	
		<ellipse transform="matrix(0.5531 0.8331 -0.8331 0.5531 138.3826 -19.0406)" fill="#996D39" cx="86.938" cy="119.462" rx="3.883" ry="2.278"/>
	
		<ellipse transform="matrix(0.553 0.8332 -0.8332 0.553 168.8217 -28.7727)" fill="#996D39" cx="111.226" cy="142.95" rx="3.64" ry="3.278"/>
	
		<ellipse transform="matrix(-0.8738 0.4863 -0.4863 -0.8738 320.262 207.8155)" fill="#996D39" cx="133.167" cy="145.462" rx="3.883" ry="2.278"/>
	
		<ellipse transform="matrix(0.0841 0.9965 -0.9965 0.0841 281.9159 5.2664)" fill="#996D39" cx="138.093" cy="155.984" rx="3.061" ry="2.671"/>
	
		<ellipse transform="matrix(-0.913 0.408 -0.408 -0.913 359.1 233.6353)" fill="#996D39" cx="154.638" cy="155.107" rx="4.561" ry="2.799"/>
	
		<ellipse transform="matrix(-0.9964 0.0852 -0.0852 -0.9964 362.6857 307.0318)" fill="#996D39" cx="174.792" cy="161.254" rx="3.883" ry="2.278"/>
	
		<ellipse transform="matrix(0.0841 0.9965 -0.9965 0.0841 328.1573 -4.4971)" fill="#996D39" cx="166.525" cy="176.26" rx="3.641" ry="3.278"/>
	
		<ellipse transform="matrix(0.0841 0.9965 -0.9965 0.0841 335.7796 -21.7471)" fill="#996D39" cx="179.719" cy="171.776" rx="3.061" ry="2.67"/>
	
		<ellipse transform="matrix(0.0841 0.9965 -0.9965 0.0841 344.7764 -13.4772)" fill="#996D39" cx="179.719" cy="180.805" rx="3.061" ry="2.67"/>
	
		<ellipse transform="matrix(-0.9153 0.4028 -0.4028 -0.9153 448.3772 265.5649)" fill="#996D39" cx="196.265" cy="179.929" rx="4.561" ry="2.799"/>
	
		<ellipse transform="matrix(0.553 0.8332 -0.8332 0.553 246.7159 -65.9874)" fill="#996D39" cx="184.856" cy="196.937" rx="3.64" ry="3.278"/>
	
		<ellipse transform="matrix(-0.8738 0.4863 -0.4863 -0.8738 484.4826 273.1742)" fill="#996D39" cx="206.796" cy="199.45" rx="3.883" ry="2.278"/>
	<ellipse opacity="0.3" fill="#B3813D" cx="81.359" cy="72.567" rx="3.883" ry="2.278"/>
	<ellipse opacity="0.3" fill="#B3813D" cx="95.617" cy="82.067" rx="3.641" ry="3.278"/>
	<ellipse opacity="0.3" fill="#B3813D" cx="102.319" cy="54.182" rx="3.061" ry="2.67"/>
	<ellipse opacity="0.3" fill="#B3813D" cx="108.569" cy="68.811" rx="4.561" ry="2.799"/>
	
		<ellipse transform="matrix(-0.4801 0.8772 -0.8772 -0.4801 232.809 -41.1136)" opacity="0.3" fill="#B3813D" cx="128.588" cy="48.433" rx="3.883" ry="2.278"/>
	
		<ellipse transform="matrix(0.8767 0.481 -0.481 0.8767 47.432 -57.8229)" opacity="0.3" fill="#B3813D" cx="136.518" cy="63.62" rx="3.641" ry="3.278"/>
	
		<ellipse transform="matrix(0.8767 0.481 -0.481 0.8767 41.3926 -61.1987)" opacity="0.3" fill="#B3813D" cx="140.079" cy="50.147" rx="3.061" ry="2.671"/>
	
		<ellipse transform="matrix(-0.1706 0.9853 -0.9853 -0.1706 209.191 -104.3224)" opacity="0.3" fill="#B3813D" cx="148.5" cy="35.878" rx="4.561" ry="2.799"/>
	<ellipse opacity="0.3" fill="#B3813D" cx="123.359" cy="62.034" rx="3.883" ry="2.278"/>
	<ellipse opacity="0.3" fill="#B3813D" cx="156.36" cy="54.79" rx="3.641" ry="3.278"/>
	
		<ellipse transform="matrix(-0.0781 0.9969 -0.9969 -0.0781 221.6934 -129.2084)" opacity="0.3" fill="#B3813D" cx="170.588" cy="37.899" rx="3.883" ry="2.278"/>
	
		<ellipse transform="matrix(0.8767 0.481 -0.481 0.8767 41.5044 -82.7004)" opacity="0.3" fill="#B3813D" cx="182.079" cy="39.614" rx="3.061" ry="2.671"/>
	
		<ellipse transform="matrix(0.7402 -0.6723 0.6723 0.7402 -36.4159 101.7345)" opacity="0.3" fill="#B3813D" cx="113.455" cy="97.996" rx="3.883" ry="2.278"/>
	
		<ellipse transform="matrix(0.7403 -0.6723 0.6723 0.7403 -24.1624 100.2043)" opacity="0.3" fill="#B3813D" cx="117.622" cy="81.378" rx="3.641" ry="3.278"/>
	
		<ellipse transform="matrix(0.7402 -0.6724 0.6724 0.7402 -28.8509 120.3545)" opacity="0.3" fill="#B3813D" cx="141.33" cy="97.514" rx="3.061" ry="2.671"/>
	
		<ellipse transform="matrix(0.7403 -0.6723 0.6723 0.7403 -20.0983 112.9432)" opacity="0.3" fill="#B3813D" cx="136.122" cy="82.483" rx="4.561" ry="2.798"/>
	
		<ellipse transform="matrix(-0.9452 -0.3266 0.3266 -0.9452 292.7869 217.3761)" opacity="0.3" fill="#B3813D" cx="164.642" cy="84.109" rx="3.883" ry="2.277"/>
	
		<ellipse transform="matrix(0.3256 -0.9455 0.9455 0.3256 44.2488 197.1089)" opacity="0.3" fill="#B3813D" cx="160.302" cy="67.535" rx="3.641" ry="3.278"/>
	
		<ellipse transform="matrix(0.3257 -0.9455 0.9455 0.3257 44.9529 213.2628)" opacity="0.3" fill="#B3813D" cx="171.996" cy="75.115" rx="3.061" ry="2.671"/>
	
		<ellipse transform="matrix(-0.7888 -0.6147 0.6147 -0.7888 286.7858 258.5842)" opacity="0.3" fill="#B3813D" cx="187.823" cy="80.016" rx="4.561" ry="2.799"/>
	
		<ellipse transform="matrix(0.7403 -0.6722 0.6722 0.7403 -12.7635 122.0693)" opacity="0.3" fill="#B3813D" cx="151.627" cy="77.556" rx="3.883" ry="2.278"/>
	
		<ellipse transform="matrix(0.7403 -0.6723 0.6723 0.7403 6.163 137.416)" opacity="0.3" fill="#B3813D" cx="180.927" cy="60.732" rx="3.64" ry="3.278"/>
	
		<ellipse transform="matrix(-0.728 -0.6856 0.6856 -0.728 306.8167 249.0641)" opacity="0.3" fill="#B3813D" cx="202.815" cy="63.669" rx="3.883" ry="2.278"/>
	
		<ellipse transform="matrix(0.3256 -0.9455 0.9455 0.3256 90.0392 235.5862)" opacity="0.3" fill="#B3813D" cx="210.168" cy="54.675" rx="3.061" ry="2.67"/>
	
		<ellipse transform="matrix(-0.7852 -0.6192 0.6192 -0.7852 366.5641 246.2935)" opacity="0.3" fill="#B3813D" cx="225.995" cy="59.577" rx="4.561" ry="2.799"/>
	<ellipse opacity="0.3" fill="#B3813D" cx="147.281" cy="115.352" rx="3.883" ry="2.278"/>
	<ellipse opacity="0.3" fill="#B3813D" cx="161.539" cy="124.852" rx="3.641" ry="3.278"/>
	<ellipse opacity="0.3" fill="#B3813D" cx="168.241" cy="96.967" rx="3.061" ry="2.67"/>
	<ellipse opacity="0.3" fill="#B3813D" cx="174.491" cy="111.596" rx="4.561" ry="2.799"/>
	
		<ellipse transform="matrix(-0.4801 0.8772 -0.8772 -0.4801 367.9118 -35.6147)" opacity="0.3" fill="#B3813D" cx="194.51" cy="91.218" rx="3.883" ry="2.278"/>
	
		<ellipse transform="matrix(0.8767 0.481 -0.481 0.8767 76.1391 -84.2571)" opacity="0.3" fill="#B3813D" cx="202.44" cy="106.405" rx="3.641" ry="3.278"/>
	
		<ellipse transform="matrix(0.8767 0.481 -0.481 0.8767 70.101 -87.6337)" opacity="0.3" fill="#B3813D" cx="206.001" cy="92.932" rx="3.061" ry="2.671"/>
	
		<ellipse transform="matrix(-0.1706 0.9853 -0.9853 -0.1706 328.5192 -119.1916)" opacity="0.3" fill="#B3813D" cx="214.422" cy="78.663" rx="4.561" ry="2.799"/>
	<ellipse opacity="0.3" fill="#B3813D" cx="189.281" cy="104.819" rx="3.883" ry="2.278"/>
	<ellipse opacity="0.3" fill="#B3813D" cx="222.282" cy="97.575" rx="3.641" ry="3.278"/>
	
		<ellipse transform="matrix(-0.0781 0.9969 -0.9969 -0.0781 335.4177 -148.8027)" opacity="0.3" fill="#B3813D" cx="236.51" cy="80.685" rx="3.883" ry="2.278"/>
	
		<ellipse transform="matrix(0.8767 0.481 -0.481 0.8767 70.2128 -109.1353)" opacity="0.3" fill="#B3813D" cx="248.001" cy="82.399" rx="3.061" ry="2.671"/>
	<ellipse opacity="0.3" fill="#B3813D" cx="291.163" cy="99.979" rx="3.883" ry="2.278"/>
	<ellipse opacity="0.3" fill="#B3813D" cx="276.905" cy="90.479" rx="3.641" ry="3.278"/>
	<ellipse opacity="0.3" fill="#B3813D" cx="263.954" cy="103.734" rx="4.561" ry="2.799"/>
	
		<ellipse transform="matrix(0.4801 -0.8772 0.8772 0.4801 17.9477 278.5083)" opacity="0.3" fill="#B3813D" cx="243.935" cy="124.113" rx="3.883" ry="2.278"/>
	
		<ellipse transform="matrix(-0.8767 -0.481 0.481 -0.8767 390.5194 317.9422)" opacity="0.3" fill="#B3813D" cx="236.004" cy="108.926" rx="3.641" ry="3.278"/>
	
		<ellipse transform="matrix(-0.8767 -0.481 0.481 -0.8767 377.3513 341.5174)" opacity="0.3" fill="#B3813D" cx="232.443" cy="122.399" rx="3.061" ry="2.671"/>
	
		<ellipse transform="matrix(0.1706 -0.9853 0.9853 0.1706 51.1327 334.0842)" opacity="0.3" fill="#B3813D" cx="224.022" cy="136.668" rx="4.561" ry="2.799"/>
	<ellipse opacity="0.3" fill="#B3813D" cx="249.163" cy="110.511" rx="3.883" ry="2.278"/>
	<ellipse opacity="0.3" fill="#B3813D" cx="216.162" cy="117.756" rx="3.641" ry="3.278"/>
	
		<ellipse transform="matrix(0.0781 -0.9969 0.9969 0.0781 51.9301 325.4488)" opacity="0.3" fill="#B3813D" cx="201.934" cy="134.646" rx="3.883" ry="2.278"/>
	
		<ellipse transform="matrix(-0.8767 -0.481 0.481 -0.8767 293.4632 341.0812)" opacity="0.3" fill="#B3813D" cx="190.443" cy="132.931" rx="3.061" ry="2.671"/>
	
		<ellipse transform="matrix(0.1651 -0.9863 0.9863 0.1651 6.7961 302.429)" opacity="0.3" fill="#B3813D" cx="182.023" cy="147.2" rx="4.561" ry="2.799"/>
	<ellipse opacity="0.3" fill="#B3813D" cx="207.892" cy="156.193" rx="3.883" ry="2.278"/>
	<ellipse opacity="0.3" fill="#B3813D" cx="222.149" cy="165.693" rx="3.641" ry="3.278"/>
	<ellipse opacity="0.3" fill="#B3813D" cx="235.101" cy="152.437" rx="4.561" ry="2.799"/>
	
		<ellipse transform="matrix(-0.4801 0.8772 -0.8772 -0.4801 493.4474 -28.3342)" opacity="0.3" fill="#B3813D" cx="255.12" cy="132.059" rx="3.883" ry="2.278"/>
	
		<ellipse transform="matrix(0.8767 0.481 -0.481 0.8767 103.2561 -108.3761)" opacity="0.3" fill="#B3813D" cx="263.05" cy="147.246" rx="3.641" ry="3.278"/>
	
		<ellipse transform="matrix(0.8767 0.481 -0.481 0.8767 97.2192 -111.7534)" opacity="0.3" fill="#B3813D" cx="266.611" cy="133.773" rx="3.061" ry="2.671"/>
	
		<ellipse transform="matrix(-0.1706 0.9853 -0.9853 -0.1706 439.7137 -131.1033)" opacity="0.3" fill="#B3813D" cx="275.032" cy="119.504" rx="4.561" ry="2.799"/>
	<ellipse opacity="0.3" fill="#B3813D" cx="249.892" cy="145.66" rx="3.883" ry="2.278"/>
	<ellipse opacity="0.3" fill="#B3813D" cx="282.893" cy="138.416" rx="3.641" ry="3.278"/>
	
		<ellipse transform="matrix(-0.0781 0.9969 -0.9969 -0.0781 441.4773 -165.1979)" opacity="0.3" fill="#B3813D" cx="297.121" cy="121.525" rx="3.883" ry="2.278"/>
	
		<ellipse transform="matrix(0.8767 0.481 -0.481 0.8767 97.331 -133.255)" opacity="0.3" fill="#B3813D" cx="308.611" cy="123.24" rx="3.061" ry="2.671"/>
	
		<ellipse transform="matrix(-0.1651 0.9863 -0.9863 -0.1651 500.2321 -180.4189)" opacity="0.3" fill="#B3813D" cx="326.482" cy="121.525" rx="4.561" ry="2.799"/>
</g>
</svg>
