<?xml version="1.0" encoding="utf-8"?>
<!-- Generator: Adobe Illustrator 16.0.0, SVG Export Plug-In . SVG Version: 6.00 Build 0)  -->
<!DOCTYPE svg PUBLIC "-//W3C//DTD SVG 1.1//EN" "http://www.w3.org/Graphics/SVG/1.1/DTD/svg11.dtd">
<svg version="1.1" id="Calque_1" xmlns="http://www.w3.org/2000/svg" xmlns:xlink="http://www.w3.org/1999/xlink" x="0px" y="0px"
	 width="341px" height="367.062px" viewBox="0 0 341 367.062" enable-background="new 0 0 341 367.062" xml:space="preserve">
<g id="Calque_1_1_">
</g>
<g id="Calque_3">
	<polygon fill="#DCDCDC" points="553,-313 209.357,-334.5 209.357,-339.5 553,-318 	"/>
	<polygon fill="#DCDCDC" points="541.213,-178.145 218.467,-214.465 218.695,-219.46 541.441,-183.139 	"/>
	<polygon fill="#DCDCDC" points="550.623,-56.21 218.375,-98.401 218.686,-103.392 550.934,-61.2 	"/>
</g>
<g id="Calque_2">
	<polygon fill="#C0A47F" points="304.333,-52 213.667,-92.667 207,-340 304.333,-318 	"/>
	<polygon fill="#EAEAEA" points="553,-318 207,-340 313,-361 628,-340 	"/>
	<polygon fill="#DCDCDC" points="628,-99 553,-49 553,-318 628,-340 	"/>
	<polygon fill="#C0A47F" points="553,-49 374.023,-77 374.023,-329.38 553,-318 	"/>
	<polygon fill="none" stroke="#998062" stroke-miterlimit="10" points="516,-89 404.947,-103.5 404.947,-291 516,-283.5 	"/>
	<rect x="304.333" y="-318" fill="#CEB08D" width="8" height="266"/>
	<polygon fill="#CEB08D" points="304.333,-318 207,-340 213.125,-340 312.333,-318 	"/>
	<polygon fill="none" stroke="#998062" stroke-miterlimit="10" points="284.759,-91.956 230.5,-116 225.475,-302.899 283.5,-287.25 
			"/>
</g>
<g id="Calque_5">
	
		<rect x="97.089" y="156.093" transform="matrix(-0.9939 -0.1105 0.1105 -0.9939 345.0123 369.8588)" fill="#BCBBBB" width="171.331" height="38.553"/>
	
		<rect x="81.46" y="67.376" transform="matrix(-0.9939 -0.1105 0.1105 -0.9939 338.8696 241.9997)" fill="#CCCCCC" width="189.361" height="88.468"/>
	
		<rect x="90.592" y="65.943" transform="matrix(-0.9999 -0.0132 0.0132 -0.9999 218.7433 231.3259)" fill="#BCBBBB" width="39.088" height="97.994"/>
	
		<rect x="102.591" y="284.964" transform="matrix(-0.9841 -0.1777 0.1777 -0.9841 266.6516 633.6943)" fill="#BCBBBB" width="118.224" height="39.886"/>
	
		<rect x="87.161" y="192.933" transform="matrix(-0.9817 -0.1904 0.1904 -0.9817 299.5219 508.7516)" fill="#CCCCCC" width="174.079" height="94.108"/>
</g>
<g id="Calque_4">
	<polygon fill="#DCDCDC" points="214.549,73.986 61.113,64.486 61.113,59.486 214.549,68.986 	"/>
	<polygon fill="#DCDCDC" points="236.295,203.682 70.222,185.521 70.451,180.526 236.523,198.688 	"/>
	<polygon fill="#DCDCDC" points="214.704,338.986 65.624,307.16 65.934,302.171 215.014,333.996 	"/>
	<polygon fill="#C0A47F" points="161.697,81.327 161.698,349.909 104.021,324.635 65.42,307.324 58.75,59.984 	"/>
	<polygon fill="#EAEAEA" points="214.549,69.986 58.755,59.986 164.755,38.986 289.549,47.986 	"/>
	<polygon fill="#DCDCDC" points="289.549,288.986 214.549,338.986 214.549,69.986 289.549,47.986 	"/>
	<polygon fill="#CEB08D" points="167.307,349.086 161.698,349.909 161.698,81.656 167.307,80.997 	"/>
	<polygon fill="#CEB08D" points="161.698,81.656 58.755,59.986 64.88,59.986 167.307,80.997 	"/>
	<polygon fill="#CCB08F" points="136.514,308.03 82.255,283.986 77.229,97.088 135.255,112.736 	"/>
</g>
<g id="Calque_6" display="none">
	
		<polygon display="inline" opacity="0.3" fill="none" stroke="#BFA48A" stroke-miterlimit="10" enable-background="new    " points="
		252.462,261.526 198.203,237.482 193.178,50.584 251.203,66.232 	"/>
</g>
</svg>
