<?xml version="1.0" encoding="utf-8"?>
<!-- Generator: Adobe Illustrator 16.0.0, SVG Export Plug-In . SVG Version: 6.00 Build 0)  -->
<!DOCTYPE svg PUBLIC "-//W3C//DTD SVG 1.1//EN" "http://www.w3.org/Graphics/SVG/1.1/DTD/svg11.dtd">
<svg version="1.1" xmlns="http://www.w3.org/2000/svg" xmlns:xlink="http://www.w3.org/1999/xlink" x="0px" y="0px"
	 width="355.803px" height="441.902px" viewBox="0 0 355.803 441.902" enable-background="new 0 0 355.803 441.902"
	 xml:space="preserve">
<g id="Calque_1">
	
		<image overflow="visible" width="250" height="450" xlink:href="../minuteur-de-cuisine-272819.jpg"  transform="matrix(1 0 0 1 -339.0869 -62.0977)">
	</image>
</g>
<g id="Calque_9">
	<g id="Calque_12">
		<g>
			
				<image overflow="visible" width="236" height="114" xlink:href="FD6B4B07AFC41BBD.png"  transform="matrix(1 0 0 1 -442.6738 321.9004)">
			</image>
		</g>
	</g>
	<path fill="#BED259" d="M-214.214,272.9c0,78.06-52.92,113.33-108.52,113.33c-11.891,0-23.661-1.63-34.811-4.95
		c-41.01-12.21-73.72-47.32-73.72-108.68c0-78.061,49.6-165.03,108.59-165.03c2.23,0,4.45,0.12,6.65,0.37
		C-260.004,114.16-214.214,197.79-214.214,272.9z"/>
	<g id="Calque_10">
		<linearGradient id="SVGID_1_" gradientUnits="userSpaceOnUse" x1="-419.4297" y1="234.2393" x2="-343.064" y2="243.8223">
			<stop  offset="0" style="stop-color:#859536"/>
			<stop  offset="1" style="stop-color:#BED259"/>
		</linearGradient>
		<path opacity="0.7" fill="url(#SVGID_1_)" d="M-357.544,381.28c-41.01-12.21-73.72-47.32-73.72-108.68
			c0-78.061,49.6-165.03,108.59-165.03c2.23,0,4.45,0.12,6.65,0.37C-336.954,136.99-395.174,234.74-357.544,381.28z"/>
	</g>
	<linearGradient id="SVGID_2_" gradientUnits="userSpaceOnUse" x1="-411.4971" y1="345.1406" x2="-233.8856" y2="167.5292">
		<stop  offset="0" style="stop-color:#859536"/>
		<stop  offset="1" style="stop-color:#BED259"/>
	</linearGradient>
	<path opacity="0.5" fill="url(#SVGID_2_)" d="M-214.214,272.9c0,78.06-52.92,113.33-108.52,113.33
		c-11.891,0-23.661-1.63-34.811-4.95c-41.01-12.21-73.72-47.32-73.72-108.68c0-78.061,49.6-165.03,108.59-165.03
		c2.23,0,4.45,0.12,6.65,0.37C-260.004,114.16-214.214,197.79-214.214,272.9z"/>
	<g id="Calque_8">
		
			<radialGradient id="SVGID_3_" cx="-268.0967" cy="247.3604" r="105.9991" gradientTransform="matrix(1 0 0 2 0 -441.9023)" gradientUnits="userSpaceOnUse">
			<stop  offset="0" style="stop-color:#859536"/>
			<stop  offset="1" style="stop-color:#BED259"/>
		</radialGradient>
		<path opacity="0.8" fill="none" stroke="url(#SVGID_3_)" stroke-miterlimit="10" d="M-315.896,108.214
			c56.02,6.22,101.81,89.85,101.81,164.96c0,78.06-52.92,113.33-108.52,113.33"/>
	</g>
	<g id="trait_foncé">
		<linearGradient id="SVGID_4_" gradientUnits="userSpaceOnUse" x1="-429.9355" y1="282.1504" x2="-429.9355" y2="282.1504">
			<stop  offset="0" style="stop-color:#859536"/>
			<stop  offset="1" style="stop-color:#BED259"/>
		</linearGradient>
		<path fill="url(#SVGID_4_)" d="M-429.936,282.15"/>
		<path opacity="0.8" fill="none" stroke="#859536" stroke-miterlimit="10" d="M-429.936,282.15c0,0,20.929,25.074,105.595,25.074"
			/>
		<path opacity="0.8" fill="none" stroke="#859536" stroke-width="1.0206" stroke-miterlimit="10" d="M-214.353,282.15
			c0,0-21.798,25.074-109.988,25.074"/>
	</g>
	<g id="trait_clair">
		<path opacity="0.6" fill="none" stroke="#D4DF72" stroke-miterlimit="10" d="M-430.53,283.15c0,0,20.929,25.074,105.596,25.074"/>
		<path opacity="0.6" fill="none" stroke="#D4DF72" stroke-width="1.0206" stroke-miterlimit="10" d="M-214.947,283.15
			c0,0-21.798,25.074-109.988,25.074"/>
	</g>
	<g id="chiffre">
		<rect x="-359.174" y="285.9" opacity="0.6" fill="#F4F7E2" width="4.5" height="12"/>
		<rect x="-301.174" y="285.9" opacity="0.6" fill="#F4F7E2" width="4.5" height="12"/>
		<rect x="-247.674" y="278.9" opacity="0.6" fill="#F4F7E2" width="3.5" height="12"/>
		<path opacity="0.6" fill="#F4F7E2" d="M44.293,229.402h-3.13v-12h2.98C44.343,221.522,44.394,225.532,44.293,229.402z"/>
		<rect x="-407.674" y="276.15" opacity="0.6" fill="#F4F7E2" width="3.25" height="12"/>
		
			<text transform="matrix(1 0 0 1 -309.0068 282.1504)" opacity="0.6" fill="#FFFFFF" font-family="'MyriadPro-Bold'" font-size="19">35</text>
		
			<text transform="matrix(1 0 0 1 -366.3398 282.1504)" opacity="0.6" fill="#FFFFFF" font-family="'MyriadPro-Bold'" font-size="19">30</text>
		
			<text transform="matrix(0.8287 0.1019 -0.122 0.9925 -415.2793 272.5957)" opacity="0.6" fill="#FFFFFF" font-family="'MyriadPro-Bold'" font-size="19" letter-spacing="-1.198">25</text>
		
			<text transform="matrix(0.8945 -0.0308 0.0344 0.9994 -256.1445 275.4004)" opacity="0.6" fill="#FFFFFF" font-family="'MyriadPro-Bold'" font-size="19" letter-spacing="-1.117">40</text>
		
			<text transform="matrix(0.6707 -0.1013 0.1493 0.9888 -220.1025 262.4033)" opacity="0.6" fill="#FFFFFF" font-family="'MyriadPro-Bold'" font-size="19">45</text>
	</g>
</g>
<g id="Calque_11">
	<g>
		
			<image overflow="visible" width="236" height="114" xlink:href="FD6B4B07AFC41BC3.png"  transform="matrix(1 0 0 1 69.5654 277.7354)">
		</image>
	</g>
	<path fill="#BED259" d="M298.025,228.735c0,78.06-52.92,113.33-108.52,113.33c-11.891,0-23.661-1.63-34.811-4.95
		c-41.01-12.21-73.72-47.32-73.72-108.68c0-78.061,49.6-165.03,108.59-165.03c2.23,0,4.45,0.12,6.65,0.37
		C252.235,69.995,298.025,153.625,298.025,228.735z"/>
	<path opacity="0.7" fill="#99AD3F" d="M154.695,337.115c-41.01-12.21-73.72-47.32-73.72-108.68c0-78.061,49.6-165.03,108.59-165.03
		c2.23,0,4.45,0.12,6.65,0.37C175.286,92.825,117.065,190.575,154.695,337.115z"/>
	<linearGradient id="SVGID_5_" gradientUnits="userSpaceOnUse" x1="100.7422" y1="300.9756" x2="278.3535" y2="123.3642">
		<stop  offset="0" style="stop-color:#859536"/>
		<stop  offset="1" style="stop-color:#BED259"/>
	</linearGradient>
	<path opacity="0.5" fill="url(#SVGID_5_)" d="M298.025,228.735c0,78.06-52.92,113.33-108.52,113.33
		c-11.891,0-23.661-1.63-34.811-4.95c-41.01-12.21-73.72-47.32-73.72-108.68c0-78.061,49.6-165.03,108.59-165.03
		c2.23,0,4.45,0.12,6.65,0.37C252.235,69.995,298.025,153.625,298.025,228.735z"/>
	<linearGradient id="SVGID_6_" gradientUnits="userSpaceOnUse" x1="82.3027" y1="237.9854" x2="82.3027" y2="237.9854">
		<stop  offset="0" style="stop-color:#859536"/>
		<stop  offset="1" style="stop-color:#BED259"/>
	</linearGradient>
	<path fill="url(#SVGID_6_)" d="M82.304,237.985"/>
	<path opacity="0.8" fill="none" stroke="#859536" stroke-miterlimit="10" d="M82.304,237.985c0,0,20.929,25.074,105.596,25.074"/>
	<path opacity="0.8" fill="none" stroke="#859536" stroke-width="1.0206" stroke-miterlimit="10" d="M297.887,237.985
		c0,0-21.798,25.074-109.988,25.074"/>
	<path opacity="0.6" fill="none" stroke="#D4DF72" stroke-miterlimit="10" d="M81.709,238.985c0,0,20.929,25.074,105.596,25.074"/>
	<path opacity="0.6" fill="none" stroke="#D4DF72" stroke-width="1.0206" stroke-miterlimit="10" d="M297.292,238.985
		c0,0-21.798,25.074-109.988,25.074"/>
	<rect x="153.065" y="241.735" opacity="0.6" fill="#F4F7E2" width="4.5" height="12"/>
	<rect x="211.065" y="241.735" opacity="0.6" fill="#F4F7E2" width="4.5" height="12"/>
	<rect x="264.565" y="234.735" opacity="0.6" fill="#F4F7E2" width="3.5" height="12"/>
	<path opacity="0.6" fill="#F4F7E2" d="M297.945,231.235h-3.13v-12h2.98C297.995,223.355,298.046,227.365,297.945,231.235z"/>
	<rect x="104.565" y="231.985" opacity="0.6" fill="#F4F7E2" width="3.25" height="12"/>
	<text transform="matrix(1 0 0 1 203.2324 237.9854)" opacity="0.6" fill="#FFFFFF" font-family="'MyriadPro-Bold'" font-size="19">35</text>
	<text transform="matrix(1 0 0 1 145.8994 237.9854)" opacity="0.6" fill="#FFFFFF" font-family="'MyriadPro-Bold'" font-size="19">30</text>
	
		<text transform="matrix(0.8287 0.1019 -0.122 0.9925 96.96 228.4307)" opacity="0.6" fill="#FFFFFF" font-family="'MyriadPro-Bold'" font-size="19" letter-spacing="-1.198">25</text>
	
		<text transform="matrix(0.8945 -0.0308 0.0344 0.9994 256.0947 231.2354)" opacity="0.6" fill="#FFFFFF" font-family="'MyriadPro-Bold'" font-size="19" letter-spacing="-1.117">40</text>
	
		<text transform="matrix(0.6707 -0.1013 0.1493 0.9888 292.1367 218.2383)" opacity="0.6" fill="#FFFFFF" font-family="'MyriadPro-Bold'" font-size="19">45</text>
</g>
</svg>
