<?xml version="1.0" encoding="utf-8"?>
<!-- Generator: Adobe Illustrator 16.0.0, SVG Export Plug-In . SVG Version: 6.00 Build 0)  -->
<!DOCTYPE svg PUBLIC "-//W3C//DTD SVG 1.1//EN" "http://www.w3.org/Graphics/SVG/1.1/DTD/svg11.dtd">
<svg version="1.1" xmlns="http://www.w3.org/2000/svg" xmlns:xlink="http://www.w3.org/1999/xlink" x="0px" y="0px"
	 width="841.89px" height="595.28px" viewBox="0 0 841.89 595.28" enable-background="new 0 0 841.89 595.28" xml:space="preserve">
<g id="Calque_1" display="none">
	
		<image display="inline" overflow="visible" width="2953" height="2048" xlink:href="jdxp-b4-1.jpg"  transform="matrix(0.24 0 0 0.24 67 52.2803)">
	</image>
</g>
<g id="Calque_3">
	<path fill="#A8A7A7" d="M738,357.28c-1.92,1.22-4.12,2.46-6.55,3.72c-39.38,20.34-141.26,44.4-154.45,46.28
		c-5.85,0.84-24.6,7.95-45.34,16.68c-28.91,12.181-61.67,27.5-68.66,33.32c-12,10-101,44-109,46s-29,17-38,14.45
		c-0.07-0.021-0.13-0.04-0.21-0.08c1.92-0.311,4.28-1.64,7.21-4.37c46-30.52,99-49,102-52c1.83-1.83,28.92-13.32,63.84-28.58
		c10.891-4.75,22.54-9.88,34.43-15.2c10.261-4.59,20.69-9.31,30.95-14.06c1.16-0.54,2.311-1.08,3.46-1.61
		c0.971-0.45,1.95-0.91,2.92-1.359c0.131-0.07,0.271-0.131,0.4-0.19c0.48-0.22,0.96-0.45,1.44-0.66c2.3-1.06,4.67-2.09,7.09-3.1
		c2.25-0.95,4.55-1.87,6.899-2.78c5.891-2.28,12.04-4.44,18.37-6.49c1.58-0.51,3.181-1.02,4.79-1.51c1.94-0.61,3.9-1.21,5.88-1.79
		c2.11-0.63,4.23-1.24,6.36-1.84c0.9-0.26,1.81-0.51,2.71-0.76c4.38-1.221,8.8-2.38,13.22-3.5c0.73-0.181,1.46-0.37,2.19-0.551
		c38.83-9.68,77.479-15.619,96.34-18.34C732.93,358.011,737.11,357.46,738,357.28z"/>
	<path fill="#C1BFBD" d="M738,357.28c-0.89,0.18-5.07,0.73-11.71,1.68c-18.86,2.721-57.51,8.66-96.34,18.34
		c-0.73,0.181-1.46,0.37-2.19,0.551c-4.42,1.12-8.84,2.279-13.22,3.5c-0.9,0.25-1.81,0.5-2.71,0.76c-2.13,0.6-4.25,1.21-6.36,1.84
		c-1.979,0.58-3.939,1.18-5.88,1.79c-1.609,0.49-3.21,1-4.79,1.51c-6.33,2.05-12.479,4.21-18.37,6.49
		c-2.35,0.91-4.649,1.83-6.899,2.78c-2.42,1.01-4.79,2.04-7.09,3.1c-0.48,0.21-0.96,0.44-1.44,0.66c-0.13,0.06-0.27,0.12-0.4,0.19
		c-0.97,0.449-1.949,0.909-2.92,1.359c-1.149,0.53-2.3,1.07-3.46,1.61c-10.26,4.75-20.689,9.47-30.95,14.06
		c-11.89,5.32-23.539,10.45-34.43,15.2c-34.92,15.26-62.01,26.75-63.84,28.58c-3,3-56,21.48-102,52c-2.93,2.73-5.29,4.06-7.21,4.37
		c0,0.01,0,0.01-0.01,0c-1.9-0.65-4.38-3.04-7.14-6.49l-0.01-0.01c-10.56-13.21-25.27-42.01-27.63-49.87
		c-0.56-1.87-2.59-6.84-5.61-13.86c-13.12-30.58-45-100-56.39-121.14c-17.51-16.01-35-50-43-58.5s-21-34-26.5-44
		c-11.52-6.98-19.5-18.5-25-26.5c-3.26-2.72-5.8-5.97-7.71-9c-3.26-5.16-4.7-9.71-4.78-9.99c-0.01,0-0.01-0.01-0.01-0.01h3
		c0,0,1.9,0.53,5.51,1.53c2.24,0.63,5.16,1.44,8.68,2.42c1.7,0.48,3.54,0.99,5.53,1.54c5.66,1.59,12.45,3.48,20.22,5.65
		c108.73,30.37,410.22,114.83,534.64,152.459c10.54,3.19,19.81,6.04,27.58,8.5C726.29,353.261,733.36,355.59,738,357.28z"/>
</g>
<g id="Calque_7">
	<g opacity="0.2">
		
			<image overflow="visible" width="495" height="234" xlink:href="DE4D6371508B5F7E.png"  transform="matrix(1 0 0 1 277 326.2803)">
		</image>
	</g>
	<g opacity="0.2">
		<image overflow="visible" width="698" height="413" xlink:href="DE4D6371508B5F79.png"  transform="matrix(1 0 0 1 74 147.2803)">
		</image>
	</g>
</g>
<g id="Calque_2">
	<path fill="#E6E5E3" d="M738,357.28c-0.89,0.18-5.07,0.73-11.71,1.68c-18.86,2.721-57.51,8.66-96.34,18.34
		c-0.73,0.181-1.46,0.37-2.19,0.551c-4.42,1.12-8.84,2.279-13.22,3.5c-0.9,0.25-1.81,0.5-2.71,0.76c-2.13,0.6-4.25,1.21-6.36,1.84
		c-1.979,0.58-3.939,1.18-5.88,1.79c-1.609,0.49-3.21,1-4.79,1.51c-6.33,2.05-12.479,4.21-18.37,6.49
		c-2.35,0.91-4.649,1.83-6.899,2.78c-2.42,1.01-4.79,2.04-7.09,3.1c-0.48,0.21-0.96,0.44-1.44,0.66c-0.13,0.06-0.27,0.12-0.4,0.19
		c-0.97,0.449-1.949,0.909-2.92,1.359c-1.149,0.53-2.3,1.07-3.46,1.61c-10.26,4.75-20.689,9.47-30.95,14.06
		c-11.89,5.32-23.539,10.45-34.43,15.2c-34.92,15.26-62.01,26.75-63.84,28.58c-3,3-56,21.48-102,52c-2.93,2.73-5.29,4.06-7.21,4.37
		c0,0.01,0,0.01-0.01,0c-3.67,0.6-5.74-2.51-7.14-6.49l-0.01-0.01c-1.6-4.57-2.34-10.29-3.63-12.87c-3-6-9-26-10-42
		c-8-16-27-58-37-77c-12-19-49-87-54-93c-10-6-18-20-21-29c-8-7-28-32-28-39c-14-9-23-19-23-22s-11.99-7-19.99-17.99
		c-0.01,0-0.01-0.01-0.01-0.01s18-22,90-26c48-14,151-51,214-62c46-16,59-24,71-14c2.14,1.9,4.33,5.1,7.46,9.93
		c4.36,6.71,10.53,16.57,20.9,30.49c1.189,1.6,2.43,3.25,3.739,4.96c2.33,3.05,4.851,6.27,7.57,9.68c1.15,1.42,2.33,2.88,3.55,4.38
		c0.931,1.15,1.9,2.33,2.88,3.52c1.381,1.65,2.79,3.35,4.261,5.08c3.92,4.65,8.189,9.59,12.83,14.81c1.42,1.59,2.869,3.21,4.35,4.86
		h0.01c3.78,4.2,7.79,8.57,12.061,13.14c5.1,5.45,10.55,11.16,16.39,17.15c0.08,0.08,0.15,0.15,0.23,0.23
		c4.8,4.8,9.6,9.61,14.38,14.41C667.34,278.9,732.39,346.061,738,357.28z"/>
</g>
<g id="Calque_4">
	<path opacity="0.3" fill="#A8A7A7" d="M181.67,226.61c-0.05,0.18-0.17,0.37-0.37,0.58C181.68,226.34,181.83,226.04,181.67,226.61z"
		/>
	<path opacity="0.3" fill="#A8A7A7" d="M190.97,229.61c-0.04,0.55-0.33,1.22-0.8,1.99C190.74,229.47,191.05,228.521,190.97,229.61z"
		/>
	<path opacity="0.3" fill="#A8A7A7" d="M301.33,425.28c-4,5,3,1.33,3,1.33s-12,30-10,39.34c0.39,1.83-6.92-5.52-18.94-18.53
		c-13.12-30.58-45-100-56.39-121.14c-17.51-16.01-35-50-43-58.5s-21-34-26.5-44c-11.52-6.98-19.5-18.5-25-26.5
		c-3.26-2.72-5.8-5.97-7.71-9l1.21-4c0,0,0.33-2.31,2.51-4.47c1.61-1.59,4.24-3.1,8.49-3.53c9.18-0.92,1.51-0.99,0.19,5.95
		c-0.12,0.63,42.476-21.691,42.476-20.951c-19.348,12.846-27.476,22.79-25.166,22.5c7.58-0.92,6.67-2.56,10.5,0.5
		c-0.52,1.31-1.25,3.1-2.06,5.14c-2.29,5.74-5.2,13.43-5.94,17.86c0,0,10.67-11.33,11-13.67c0.33-2.33,0.33,12.34,0,21.67
		c1,8.67,5.33,14.33,5.33,14.33s7-23.66,22-28.33s-21,31.67-24.33,31.67c4.62,1.23,16.07-3.23,18.3-5.76
		c-1.15,2.63-4.44,10.56-6.97,14.09c-3.33,4.67-1.66,7-1.66,7s13.97-10.9,17.5-16.68c-1.56,5.86-5.01,20.71-7.13,26.49
		c3.47-5.8,12.95-20.01,13.96-17.48c3,0.67,15.67-10.66,14.33-6.33c-1.33,4.33-15.66,39-13.33,48.33c2.33,9.34,4.67-11,9.67-15
		s-5,17.67-2.67,22c2.67-7.33,11.67-24.66,17.67-25.66c-1.44,8.82-12.67,28.33-15.34,37c-2.66,8.66,9,11.33,9,11.33
		s6-18,11.34-21.67c5.33-3.33,6.33-1,6.33-1s-9,9.67-16.67,32.34c4.34-7.34,19.34-32.67,27.34-36
		c-9.54,14.89-23.67,27.66-22.34,37.33c1.34,9.67,13.67,29.67,18.34,17.33c4.66-12.33,0.66,3,0,12.67c2.33,6.67,7.66-6.67,7.66-6.67
		s-0.66,11.67-2,16.34c-1.33,4.66,5.67,8.66,5.67,8.66s5.67-13,10.33-12c4.67,1-5,14.34-5.33,20.67s3.67,8,3.67,8
		s11.33-20.33,28.66-23c-1.33,12-19.66,40.67-19.66,40.67s1.33,14,1.66,15c0.34,1,11-7.67,11.67-11.67s-2.67,17.67-5,21.33
		c-2.33,3.67,6.67,12.67,6.67,12.67s8-19,16.66-21.67C310,418.95,305.33,420.28,301.33,425.28z"/>
	<path opacity="0.3" fill="#A8A7A7" d="M172,185.614c0,0,31.333-33.334,79.333-33.667c6.003-0.06,6-3,6-3s9.6-0.333-76.034,38
		C169,191.614,159.667,198.947,172,185.614z"/>
	<path opacity="0.3" fill="#A8A7A7" d="M170.333,168.614c0,0,9.933-3.371,10.966-7.352S172.333,163.281,170.333,168.614z"/>
	<path opacity="0.3" fill="#A8A7A7" d="M166.196,208.947c0,0-11.53-12.333,32.47-25
		C190.277,196.509,166.196,208.947,166.196,208.947z"/>
	<path opacity="0.3" fill="#A8A7A7" d="M198.667,236.947c0,0-4.333-13.333,47-37C222,217.947,198.667,236.947,198.667,236.947z"/>
</g>
<g id="Calque_5">
	<path opacity="0.2" fill="#A8A7A7" d="M553.04,377.32c-0.19,0.1-0.37,0.19-0.54,0.26C552.57,376.811,552.76,376.78,553.04,377.32z"
		/>
	<path opacity="0.2" fill="#A8A7A7" d="M562.44,399.62c-0.48,0.21-0.96,0.44-1.44,0.66c-0.13,0.06-0.27,0.12-0.4,0.19
		c0.28-5.761-0.46-13,2.9-18.19C561.74,387.62,561.74,394.391,562.44,399.62z"/>
	<path opacity="0.2" fill="#A8A7A7" d="M576.43,393.74c-2.35,0.91-4.649,1.83-6.899,2.78c4.04-8.181,8.939-19.181,10.97-19.57
		C582.97,376.48,578.2,385.33,576.43,393.74z"/>
	<path opacity="0.2" fill="#A8A7A7" d="M599.59,385.74c-1.609,0.49-3.21,1-4.79,1.51c-2.37-4.819-5.02-11.489-5.8-18.47
		c-1.5-13.5-2.5-24.5-7.5-30c11,6,9.5,29,11,31C593.54,371.17,595.07,378.11,599.59,385.74z"/>
	<path opacity="0.2" fill="#A8A7A7" d="M611.83,382.11c-2.13,0.6-4.25,1.21-6.36,1.84c-1.38-7.14-3.41-16.26-5.97-23.67
		C595.85,349.69,606.06,369.49,611.83,382.11z"/>
	<path opacity="0.2" fill="#A8A7A7" d="M627.76,377.851c-4.42,1.12-8.84,2.279-13.22,3.5c-0.74-6.75-2-15.23-4.04-20.07
		C607.19,353.41,621.36,367.83,627.76,377.851z"/>
	<path opacity="0.2" fill="#A8A7A7" d="M726.29,358.96c-18.86,2.721-57.51,8.66-96.34,18.34c-2.44-8.729-8.49-23.789-20.95-38.52
		c-22-26,15.5,11.5,19,15.5s10,0.5,8-4.5s10.5,5,11,6.5s2.5-8.5,4.5-10s24.5-4.5,38,18.5c0-7.5-1-14,0-14.5
		c0.48-0.24-0.18-3.75,0.08-8.4c0.28-5.119,1.67-11.609,6.92-16.6c10.13,2.36,15,16,15,16s11.5,1,15.5,4.5
		c-12.26-4.09-13-0.5-13-0.5s1.09,2.26,3.16,5.1C719.25,353.25,722.34,356.7,726.29,358.96z"/>
	<path opacity="0.1" fill="#A8A7A7" d="M684,341.78c0,0-1.5-5.5-2-16.5s-2.5-15-6.5-18s18,12.5,18,12.5S687,323.28,684,341.78z"/>
	<path opacity="0.2" fill="#A8A7A7" d="M571,365.61c-2-2.66-16.67-12.66-18.67-12.66s-4.66,7.33-14-14.67
		c-10-22.67-36.66-33.33-28.66-28.67c8,4.67,25.33,45.34,24,58.67c-12-0.67-15.34-8-17.17-8s-2.17,6.67-5.5,20.25
		c-11.15-23.03-35.33-29.58-25.33-23.58s11.33,11.33,12,23.58c0.66,12.25,7.33,26.42,5.33,24.42s-38.67-28.67-24.67-3.34
		c9.439,17.09,10.7,26.67,10.51,31.09c10.891-4.75,22.54-9.88,34.43-15.2c10.261-4.59,20.69-9.31,30.95-14.06
		c1.16-0.54,2.311-1.08,3.46-1.61c-0.699-8.83-3.46-22.13-4.64-24.51c-0.19,0.1-0.37,0.19-0.54,0.26c0.07-0.77,0.26-0.8,0.54-0.26
		C558.45,374.771,572.62,367.78,571,365.61z M552.5,379.28c0.12,2.81-0.06,5.37-0.4,7.6l-1.1-8.6c0,0,0.56-0.26,1.5-0.69
		C552.47,377.971,552.47,378.53,552.5,379.28z"/>
	<path opacity="0.2" fill="#A8A7A7" d="M553.04,377.32c-0.19,0.1-0.37,0.19-0.54,0.26C552.57,376.811,552.76,376.78,553.04,377.32z"
		/>
</g>
<g id="Calque_6">
	<path opacity="0.1" fill="#A8A7A7" d="M505.32,137.36c2.319,0,5.12,0.6,8.239,1.65C510.95,138.48,508.2,137.93,505.32,137.36z"/>
	<path opacity="0.1" fill="#A8A7A7" d="M488.58,100.1c-0.99-1.37-11.62-15.95-15.43-16.9c-3.9-0.97,6.13,1.21,6.649,1.32
		l-10.649-9.16l19.67,10.84l5.64,0.01c4.36,6.71,10.53,16.57,20.9,30.49c-9.051-5.92-24.391-15-33.37-15
		C487.17,99.93,488.32,99.98,488.58,100.1z"/>
	<path opacity="0.1" fill="#A8A7A7" d="M517.32,133.03c0.18,0.02,0.54,0.13,1.05,0.3C517.2,133.08,516.68,132.95,517.32,133.03z"/>
	<path opacity="0.1" fill="#A8A7A7" d="M505.32,121.7c-7.431-0.26,6.8-0.12,13.779-0.04c2.33,3.05,4.851,6.27,7.57,9.68
		C520.37,127.17,511.08,121.9,505.32,121.7z"/>
	<path opacity="0.1" fill="#A8A7A7" d="M518.37,133.33c2.56,0.55,8.26,1.67,11.85,2.39c0.931,1.15,1.9,2.33,2.88,3.52
		C526.52,136.48,520.76,134.14,518.37,133.33z"/>
	<path opacity="0.1" fill="#A8A7A7" d="M550.19,159.13c-11.2-7.53-25.801-16.49-36.631-20.12c9.61,1.99,17.44,3.76,23.801,5.31
		C541.28,148.97,545.55,153.91,550.19,159.13z"/>
	<path opacity="0.1" fill="#A8A7A7" d="M566.61,177.13c-13.2-9.6-28.391-19.31-37.62-20.77c10.64,1.75,19.24,4.78,25.55,7.63h0.01
		C558.33,168.19,562.34,172.56,566.61,177.13z"/>
	<path opacity="0.1" fill="#A8A7A7" d="M556.99,190.62c0.87-0.02,1.79,0.03,2.76,0.16C558.85,190.72,557.93,190.67,556.99,190.62z"
		/>
	<path opacity="0.1" fill="#A8A7A7" d="M597.61,208.92c-10.53-6.92-27.03-16.74-37.811-18.13c9.811,0.68,17.811,2.27,23.431,3.72
		C588.03,199.31,592.83,204.12,597.61,208.92z"/>
</g>
</svg>
