<?xml version="1.0" encoding="utf-8"?>
<!-- Generator: Adobe Illustrator 16.0.0, SVG Export Plug-In . SVG Version: 6.00 Build 0)  -->
<!DOCTYPE svg PUBLIC "-//W3C//DTD SVG 1.1//EN" "http://www.w3.org/Graphics/SVG/1.1/DTD/svg11.dtd">
<svg version="1.1" xmlns="http://www.w3.org/2000/svg" xmlns:xlink="http://www.w3.org/1999/xlink" x="0px" y="0px"
	 width="841.89px" height="595.28px" viewBox="0 0 841.89 595.28" enable-background="new 0 0 841.89 595.28" xml:space="preserve">
<g id="Calque_1" display="none">
	
		<image display="inline" overflow="visible" width="2967" height="1806" xlink:href="cobra-z.jpg"  transform="matrix(0.24 0 0 0.24 65 81.2803)">
	</image>
</g>
<g id="Calque_7">
	<polygon fill="#5A5A5A" points="197.62,404.4 84.12,519.78 68.78,505.09 57.75,494.53 171.5,378.28 	"/>
</g>
<g id="Calque_10">
	<path fill="#BFBFBF" d="M245.479,329.559l-63.019,66.01c-0.5-0.471-0.99-0.91-1.46-1.32c-8-7-20-22-13.5-28s58.5-62.5,58.5-62.5
		S233.059,318.889,245.479,329.559z"/>
	<polygon opacity="0.2" fill="#BFBFBF" points="185.13,391.91 68.78,505.09 57.75,494.53 171.5,378.28 	"/>
</g>
<g id="Calque_8">
	<path fill="#D1D1CF" d="M191.238,410.793c0,0-13.056-3.319-28.022-23.791c-1.316-1.809,1.115-1.14,1.115-1.14
		s-0.956-2.082-5.831,2.793s-2.384,5.603-2.513,5.734S175.375,421.53,187,416.655C189.136,415.567,191.238,410.793,191.238,410.793z
		"/>
	<path fill="#D1D1CF" d="M178.157,423.977c0,0-13.056-3.319-28.022-23.791c-1.316-1.809,1.115-1.14,1.115-1.14
		s-0.956-2.082-5.831,2.793s-2.384,5.603-2.513,5.734s19.388,27.141,31.013,22.266C176.055,428.751,178.157,423.977,178.157,423.977
		z"/>
	<path fill="#D1D1CF" d="M165.64,436.634c0,0-13.056-3.319-28.022-23.791c-1.316-1.809,1.115-1.14,1.115-1.14
		s-0.956-2.082-5.831,2.793s-2.384,5.603-2.513,5.734s19.388,27.141,31.013,22.266C163.538,441.408,165.64,436.634,165.64,436.634z"
		/>
	<path fill="#D1D1CF" d="M151.515,451.259c0,0-13.056-3.319-28.022-23.791c-1.316-1.809,1.115-1.14,1.115-1.14
		s-0.956-2.082-5.831,2.793s-2.384,5.603-2.513,5.734s19.388,27.141,31.013,22.266C149.413,456.033,151.515,451.259,151.515,451.259
		z"/>
	<path fill="#D1D1CF" d="M138.39,464.384c0,0-13.056-3.319-28.022-23.791c-1.316-1.809,1.115-1.14,1.115-1.14
		s-0.956-2.082-5.831,2.793s-2.384,5.603-2.513,5.734s19.388,27.141,31.013,22.266C136.288,469.158,138.39,464.384,138.39,464.384z"
		/>
	<path fill="#D1D1CF" d="M125.265,478.009c0,0-13.056-3.319-28.022-23.791c-1.316-1.809,1.115-1.14,1.115-1.14
		s-0.956-2.082-5.831,2.793s-2.384,5.603-2.513,5.734s19.388,27.141,31.013,22.266C123.163,482.783,125.265,478.009,125.265,478.009
		z"/>
	<path fill="#D1D1CF" d="M112.015,491.509c0,0-13.056-3.319-28.022-23.791c-1.316-1.809,1.115-1.14,1.115-1.14
		s-0.956-2.082-5.831,2.793s-2.384,5.603-2.513,5.734s19.388,27.141,31.013,22.266C109.913,496.283,112.015,491.509,112.015,491.509
		z"/>
	<path fill="#D1D1CF" d="M98.14,505.634c0,0-13.056-3.319-28.022-23.791c-1.316-1.809,1.115-1.14,1.115-1.14
		s-0.956-2.082-5.831,2.793s-2.384,5.603-2.513,5.734s19.388,27.141,31.013,22.266C96.038,510.408,98.14,505.634,98.14,505.634z"/>
</g>
<g id="Calque_6">
	<path fill="#E9E9E9" d="M278,349.66c-1.5,0.01-57.5,50.62-67,59.12c-8.58,7.68-19.62-4.23-27.56-11.75
		c-0.33-0.33-0.66-0.63-0.98-0.93c-0.5-0.471-0.99-0.91-1.46-1.32c-8-7-20-22-13.5-28s58.5-62.5,58.5-62.5s11.75,9.96,24.09,20.56
		c0.07,0.061,0.15,0.131,0.22,0.19C264.22,336.98,278.79,349.65,278,349.66z"/>
</g>
<g id="Calque_5">
	<path fill="#E9E9E9" d="M228.147,294.402c0,0-10.333,6.641,14.333,32.641c30.667,32,43.333,20.667,43.333,20.667
		s121.446-143.102,262.682-162.408c46.651-43.591-19.349-44.258-19.349-44.258l-177.333,61.199L228.147,294.402z"/>
	<g>
		<path fill="#7F7F7F" d="M228.147,294.402c0,0-0.293,0.207-0.676,0.735c-0.362,0.535-0.832,1.38-1.042,2.564
			c-0.179,1.176-0.239,2.651,0.183,4.275c0.325,1.635,1.056,3.394,1.931,5.255c0.933,1.842,2.081,3.77,3.434,5.725
			c0.627,1.007,1.41,1.955,2.162,2.952c0.378,0.497,0.76,1,1.146,1.508c0.385,0.507,0.822,0.986,1.236,1.487
			c0.842,0.992,1.698,2,2.564,3.021c0.911,0.984,1.833,1.981,2.762,2.985c0.456,0.497,0.914,0.995,1.374,1.495l1.486,1.465
			c0.993,0.979,1.99,1.961,2.987,2.943c0.973,1.019,2.02,1.912,3.042,2.837c1.025,0.921,2.046,1.838,3.059,2.748
			c1.064,0.853,2.12,1.698,3.164,2.533c0.522,0.417,1.032,0.846,1.556,1.245c0.539,0.377,1.074,0.751,1.605,1.122
			c1.073,0.722,2.082,1.518,3.155,2.144c1.068,0.641,2.113,1.267,3.13,1.877c1.062,0.519,2.096,1.023,3.096,1.512
			c1.005,0.478,2.031,0.794,2.99,1.179c0.964,0.373,1.939,0.529,2.841,0.801c0.91,0.232,1.799,0.295,2.627,0.44
			c0.831,0.052,1.618,0.069,2.342,0.063c0.715-0.094,1.396-0.09,1.978-0.245c0.587-0.133,1.121-0.237,1.559-0.41
			c0.453-0.136,0.819-0.3,1.111-0.446c0.59-0.281,0.866-0.503,0.866-0.503s-0.25,0.25-0.813,0.598
			c-0.279,0.18-0.632,0.386-1.076,0.573c-0.429,0.23-0.96,0.384-1.556,0.567c-0.591,0.207-1.282,0.261-2.02,0.416
			c-0.745,0.067-1.561,0.115-2.431,0.131c-0.861-0.079-1.8-0.074-2.761-0.236c-0.479-0.093-0.97-0.188-1.473-0.286
			c-0.502-0.104-1.026-0.182-1.528-0.364c-1.011-0.337-2.103-0.609-3.168-1.04c-1.056-0.46-2.147-0.935-3.269-1.423
			c-1.072-0.582-2.174-1.182-3.299-1.793c-0.576-0.289-1.112-0.648-1.653-1.013c-0.544-0.36-1.093-0.724-1.647-1.09
			c-0.554-0.367-1.113-0.737-1.675-1.11c-0.545-0.395-1.075-0.817-1.619-1.229c-1.08-0.835-2.172-1.68-3.273-2.531
			c-1.045-0.923-2.098-1.854-3.155-2.787c-1.052-0.938-2.144-1.855-3.111-2.858c-0.989-0.991-1.978-1.981-2.962-2.969l-1.474-1.477
			c-0.475-0.525-0.949-1.049-1.421-1.57c-0.924-1.035-1.84-2.062-2.746-3.075c-0.855-1.061-1.7-2.108-2.531-3.138
			c-0.848-1.016-1.614-2.071-2.336-3.126c-0.726-1.051-1.479-2.045-2.083-3.108c-0.612-1.057-1.295-2.023-1.793-3.064
			c-0.494-1.041-1.047-2.002-1.436-3.001c-0.813-1.976-1.419-3.86-1.62-5.602c-0.302-1.722-0.12-3.283,0.169-4.49
			c0.308-1.228,0.92-2.042,1.336-2.544C227.835,294.575,228.147,294.402,228.147,294.402z"/>
	</g>
</g>
<g id="Calque_2">
	<path fill="#F3F3F3" d="M757,196.28c0,0,17-110-167-98S226,297.64,226,297.64s99.266-93.819,296-139.36
		c1.264-0.948,22.844,14.943,28,56C551,180.28,736,170.28,757,196.28z"/>
	<path fill="#CECECE" d="M756.973,196.295c-3.02-29.671-25.769-89.004-167.01-82.98c-178.96,7.633-362.35,182.81-363.93,184.29
		c3.97-4.11,181.99-187.42,363.93-199.29C772.503,86.415,757.223,194.574,756.973,196.295z"/>
</g>
<g id="Calque_3">
	<path fill="#A4A4A4" d="M668.38,235.08c-4.82,0.55-9.76,1-14.79,1.35c-58.2,4-106.42-7.72-107.689-26.17
		c-1.271-18.46,44.89-36.67,103.1-40.68c33.88-2.33,64.37,0.67,84.19,7.22c14.239,4.7,22.979,11.24,23.51,18.96
		C757.85,212.62,719.43,229.271,668.38,235.08z"/>
	<path fill="#7F7F7F" d="M545.084,190.781c0,0,7.244-25.539,112.666-28.667c95.5-2.834,98.625,12.43,98.625,12.43l0.285,23.136
		c0,0-7.41-16.4-94.91-13.4c-105.164,3.605-113,28.5-112,31C546.5,213.28,543.918,198.782,545.084,190.781z"/>
	<path fill="#939292" d="M756.66,197.68c0.04-0.29,0.06-0.57,0.06-0.86v0.96C756.72,197.78,756.7,197.75,756.66,197.68z"/>
	<path fill="#939292" d="M699.47,184.3l-0.02-22c54.884,2.063,56.925,12.244,56.925,12.244s2.233,16.868,0.28,22.756
		S699.69,182.64,699.47,184.3z"/>
</g>
<g id="Calque_9">
	<path fill="#BFBFBF" d="M756.66,197.68c-1.74,16.19-39.17,31.81-88.28,37.4c30.49-27.64,31.09-50.78,31.09-50.78
		C748.07,186.39,755.94,196.57,756.66,197.68z"/>
</g>
<g id="Calque_4">
	<path fill="#3A3A3A" d="M596.519,228.387c0,0.875-0.856,1.675-2.228,2.237c-1.275,0.533-3.008,0.857-4.911,0.857
		c-1.676,0-3.208-0.248-4.427-0.667c-1.656-0.571-2.713-1.447-2.713-2.427c0-0.857,0.8-1.628,2.104-2.189
		c1.295-0.562,3.065-0.904,5.036-0.904c2.065,0,3.922,0.381,5.226,0.99C595.796,226.835,596.519,227.578,596.519,228.387z"/>
	<path fill="#EFEDE7" d="M594.605,226.284c-0.066,1.18-0.714,8.214-1.019,9.319c-3.735,2.006-7.463,0-7.463,0s-1.903-9.1-1.78-9.405
		c1.295-0.562,3.065-0.904,5.036-0.904C591.445,225.293,593.302,225.674,594.605,226.284z"/>
	<ellipse fill="#CECDCC" cx="589.852" cy="235.764" rx="0.88" ry="0.428"/>
	<path fill="#3A3A3A" d="M669.06,226.148c0,0.875-0.856,1.675-2.228,2.237c-1.275,0.533-3.008,0.857-4.911,0.857
		c-1.676,0-3.208-0.248-4.427-0.667c-1.656-0.571-2.713-1.447-2.713-2.427c0-0.857,0.8-1.628,2.104-2.189
		c1.295-0.562,3.065-0.904,5.036-0.904c2.065,0,3.922,0.381,5.226,0.99C668.337,224.596,669.06,225.339,669.06,226.148z"/>
	<path fill="#EFEDE7" d="M667.146,224.044c-0.066,1.18-0.714,8.214-1.019,9.319c-3.735,2.006-7.463,0-7.463,0s-1.903-9.1-1.78-9.405
		c1.295-0.562,3.065-0.904,5.036-0.904C663.986,223.054,665.843,223.435,667.146,224.044z"/>
	<ellipse fill="#CECDCC" cx="662.393" cy="233.525" rx="0.88" ry="0.428"/>
	<path fill="#3A3A3A" d="M647.995,227.53c0,0.875-0.856,1.675-2.228,2.237c-1.275,0.533-3.008,0.857-4.911,0.857
		c-1.676,0-3.208-0.248-4.427-0.667c-1.656-0.571-2.713-1.447-2.713-2.427c0-0.857,0.8-1.628,2.104-2.189
		c1.295-0.562,3.065-0.904,5.036-0.904c2.065,0,3.922,0.381,5.226,0.99C647.272,225.978,647.995,226.721,647.995,227.53z"/>
	<path fill="#EFEDE7" d="M646.082,225.426c-0.066,1.18-0.714,8.214-1.019,9.319c-3.735,2.006-7.463,0-7.463,0s-1.903-9.1-1.78-9.405
		c1.295-0.562,3.065-0.904,5.036-0.904C642.922,224.436,644.778,224.817,646.082,225.426z"/>
	<ellipse fill="#CECDCC" cx="641.328" cy="234.907" rx="0.88" ry="0.428"/>
	<path fill="#3A3A3A" d="M623.135,228.655c0,0.875-0.856,1.675-2.228,2.237c-1.275,0.533-3.008,0.857-4.911,0.857
		c-1.676,0-3.208-0.248-4.427-0.667c-1.656-0.571-2.713-1.447-2.713-2.427c0-0.857,0.8-1.628,2.104-2.189
		c1.295-0.562,3.065-0.904,5.036-0.904c2.065,0,3.922,0.381,5.226,0.99C622.412,227.103,623.135,227.846,623.135,228.655z"/>
	<path fill="#EFEDE7" d="M621.222,226.551c-0.066,1.18-0.714,8.214-1.019,9.319c-3.735,2.006-7.463,0-7.463,0s-1.903-9.1-1.78-9.405
		c1.295-0.562,3.065-0.904,5.036-0.904C618.062,225.561,619.918,225.942,621.222,226.551z"/>
	<ellipse fill="#CECDCC" cx="616.468" cy="236.032" rx="0.88" ry="0.428"/>
	<path fill="#3A3A3A" d="M657.769,220.738c0,0.875-0.856,1.675-2.228,2.237c-1.275,0.533-3.008,0.857-4.911,0.857
		c-1.676,0-3.208-0.248-4.427-0.667c-1.656-0.571-2.713-1.447-2.713-2.427c0-0.857,0.8-1.628,2.104-2.189
		c1.295-0.562,3.065-0.904,5.036-0.904c2.065,0,3.922,0.381,5.226,0.99C657.046,219.186,657.769,219.929,657.769,220.738z"/>
	<path fill="#EFEDE7" d="M655.855,218.634c-0.066,1.18-0.714,8.214-1.019,9.319c-3.735,2.006-7.463,0-7.463,0s-1.903-9.1-1.78-9.405
		c1.295-0.562,3.065-0.904,5.036-0.904C652.695,217.644,654.552,218.025,655.855,218.634z"/>
	<ellipse fill="#CECDCC" cx="651.102" cy="228.115" rx="0.88" ry="0.428"/>
	<path fill="#3A3A3A" d="M680.06,219.739c0,0.875-0.856,1.675-2.228,2.237c-1.275,0.533-3.008,0.857-4.911,0.857
		c-1.676,0-3.208-0.248-4.427-0.667c-1.656-0.571-2.713-1.447-2.713-2.427c0-0.857,0.8-1.628,2.104-2.189
		c1.295-0.562,3.065-0.904,5.036-0.904c2.065,0,3.922,0.381,5.226,0.99C679.337,218.187,680.06,218.93,680.06,219.739z"/>
	<path fill="#EFEDE7" d="M678.146,217.635c-0.066,1.18-0.714,8.214-1.019,9.319c-3.735,2.006-7.463,0-7.463,0s-1.903-9.1-1.78-9.405
		c1.295-0.562,3.065-0.904,5.036-0.904C674.986,216.645,676.843,217.026,678.146,217.635z"/>
	<ellipse fill="#CECDCC" cx="673.393" cy="227.116" rx="0.88" ry="0.428"/>
	<path fill="#3A3A3A" d="M695.843,223.088c0,0.875-0.856,1.675-2.228,2.237c-1.275,0.533-3.008,0.857-4.911,0.857
		c-1.676,0-3.208-0.248-4.427-0.667c-1.656-0.571-2.713-1.447-2.713-2.427c0-0.857,0.8-1.628,2.104-2.189
		c1.295-0.562,3.065-0.904,5.036-0.904c2.065,0,3.922,0.381,5.226,0.99C695.12,221.537,695.843,222.279,695.843,223.088z"/>
	<path fill="#EFEDE7" d="M693.93,220.985c-0.066,1.18-0.714,8.214-1.019,9.319c-3.735,2.006-7.463,0-7.463,0s-1.903-9.1-1.78-9.405
		c1.295-0.562,3.065-0.904,5.036-0.904C690.77,219.995,692.626,220.375,693.93,220.985z"/>
	<ellipse fill="#CECDCC" cx="689.176" cy="230.465" rx="0.88" ry="0.428"/>
	<path fill="#3A3A3A" d="M736.5,215.246c0,0.92-0.9,1.76-2.34,2.35c-1.34,0.56-3.16,0.9-5.16,0.9c-1.76,0-3.37-0.26-4.65-0.7
		c-1.739-0.6-2.85-1.52-2.85-2.55c0-0.9,0.84-1.71,2.21-2.3c1.36-0.59,3.22-0.95,5.29-0.95c2.17,0,4.12,0.4,5.49,1.04
		C735.74,213.616,736.5,214.396,736.5,215.246z"/>
	<path fill="#EFEDE7" d="M734.49,213.036c-0.07,1.24-0.75,8.63-1.07,9.79c-3.924,2.107-7.84,0-7.84,0s-2-9.56-1.87-9.88
		c1.36-0.59,3.22-0.95,5.29-0.95C731.17,211.996,733.12,212.396,734.49,213.036z"/>
	<path fill="#3A3A3A" d="M716.5,219.129c0,0.92-0.9,1.76-2.34,2.35c-1.34,0.56-3.16,0.9-5.16,0.9c-1.76,0-3.37-0.26-4.65-0.7
		c-1.739-0.6-2.85-1.52-2.85-2.55c0-0.9,0.84-1.71,2.21-2.3c1.36-0.59,3.22-0.95,5.29-0.95c2.17,0,4.12,0.4,5.49,1.04
		C715.74,217.5,716.5,218.279,716.5,219.129z"/>
	<path fill="#EFEDE7" d="M714.49,216.919c-0.07,1.24-0.75,8.63-1.07,9.79c-3.924,2.107-7.84,0-7.84,0s-2-9.56-1.87-9.88
		c1.36-0.59,3.22-0.95,5.29-0.95C711.17,215.879,713.12,216.279,714.49,216.919z"/>
	<path fill="#3A3A3A" d="M584.25,221.929c0,0.92-0.9,1.76-2.34,2.35c-1.34,0.56-3.16,0.9-5.16,0.9c-1.76,0-3.37-0.26-4.65-0.7
		c-1.739-0.6-2.85-1.52-2.85-2.55c0-0.9,0.84-1.71,2.21-2.3c1.36-0.59,3.22-0.95,5.29-0.95c2.17,0,4.12,0.4,5.49,1.04
		C583.49,220.299,584.25,221.079,584.25,221.929z"/>
	<path fill="#3A3A3A" d="M654,203.53c0,0.92-0.9,1.76-2.34,2.35c-1.34,0.56-3.16,0.9-5.16,0.9c-1.76,0-3.37-0.26-4.65-0.7
		c-1.739-0.6-2.85-1.52-2.85-2.55c0-0.9,0.84-1.71,2.21-2.3c1.36-0.59,3.22-0.95,5.29-0.95c2.17,0,4.12,0.4,5.49,1.04
		C653.24,201.9,654,202.68,654,203.53z"/>
	<path fill="#EFEDE7" d="M651.99,201.32c-0.07,1.24-0.75,8.63-1.07,9.79c-3.924,2.107-7.84,0-7.84,0s-2-9.56-1.87-9.88
		c1.36-0.59,3.22-0.95,5.29-0.95C648.67,200.28,650.62,200.68,651.99,201.32z"/>
	<path fill="#D8D6CD" d="M664,208.114"/>
	<ellipse fill="#CECDCC" cx="646.996" cy="211.28" rx="0.924" ry="0.45"/>
	<path fill="#3A3A3A" d="M679,202.53c0,0.92-0.9,1.76-2.34,2.35c-1.34,0.56-3.16,0.9-5.16,0.9c-1.76,0-3.37-0.26-4.65-0.7
		c-1.739-0.6-2.85-1.52-2.85-2.55c0-0.9,0.84-1.71,2.21-2.3c1.36-0.59,3.22-0.95,5.29-0.95c2.17,0,4.12,0.4,5.49,1.04
		C678.24,200.9,679,201.68,679,202.53z"/>
	<path fill="#EFEDE7" d="M676.99,200.32c-0.07,1.24-0.75,8.63-1.07,9.79c-3.924,2.107-7.84,0-7.84,0s-2-9.56-1.87-9.88
		c1.36-0.59,3.22-0.95,5.29-0.95C673.67,199.28,675.62,199.68,676.99,200.32z"/>
	<ellipse fill="#CECDCC" cx="671.996" cy="210.28" rx="0.924" ry="0.45"/>
	<path fill="#3A3A3A" d="M701.5,203.53c0,0.92-0.9,1.76-2.34,2.35c-1.34,0.56-3.16,0.9-5.16,0.9c-1.76,0-3.37-0.26-4.65-0.7
		c-1.739-0.6-2.85-1.52-2.85-2.55c0-0.9,0.84-1.71,2.21-2.3c1.36-0.59,3.22-0.95,5.29-0.95c2.17,0,4.12,0.4,5.49,1.04
		C700.74,201.9,701.5,202.68,701.5,203.53z"/>
	<path fill="#EFEDE7" d="M699.49,201.32c-0.07,1.24-0.75,8.63-1.07,9.79c-3.924,2.107-7.84,0-7.84,0s-2-9.56-1.87-9.88
		c1.36-0.59,3.22-0.95,5.29-0.95C696.17,200.28,698.12,200.68,699.49,201.32z"/>
	<ellipse fill="#CECDCC" cx="694.496" cy="211.28" rx="0.924" ry="0.45"/>
	<path fill="#3A3A3A" d="M630.5,205.48c0,0.92-0.9,1.76-2.34,2.35c-1.34,0.56-3.16,0.9-5.16,0.9c-1.76,0-3.37-0.26-4.65-0.7
		c-1.739-0.6-2.85-1.52-2.85-2.55c0-0.9,0.84-1.71,2.21-2.3c1.36-0.59,3.22-0.95,5.29-0.95c2.17,0,4.12,0.4,5.49,1.04
		C629.74,203.851,630.5,204.63,630.5,205.48z"/>
	<path fill="#EFEDE7" d="M628.49,203.271c-0.07,1.24-0.75,8.63-1.07,9.79c-3.924,2.107-7.84,0-7.84,0s-2-9.56-1.87-9.88
		c1.36-0.59,3.22-0.95,5.29-0.95C625.17,202.23,627.12,202.63,628.49,203.271z"/>
	<ellipse fill="#CECDCC" cx="623.496" cy="213.23" rx="0.924" ry="0.45"/>
	<path fill="#3A3A3A" d="M610,210.146c0,0.92-0.9,1.76-2.34,2.35c-1.34,0.56-3.16,0.9-5.16,0.9c-1.76,0-3.37-0.26-4.65-0.7
		c-1.739-0.6-2.85-1.52-2.85-2.55c0-0.9,0.84-1.71,2.21-2.3c1.36-0.59,3.22-0.95,5.29-0.95c2.17,0,4.12,0.4,5.49,1.04
		C609.24,208.517,610,209.296,610,210.146z"/>
	<path fill="#EFEDE7" d="M607.99,207.937c-0.07,1.24-0.75,8.63-1.07,9.79c-3.924,2.107-7.84,0-7.84,0s-2-9.56-1.87-9.88
		c1.36-0.59,3.22-0.95,5.29-0.95C604.67,206.896,606.62,207.296,607.99,207.937z"/>
	<ellipse fill="#CECDCC" cx="602.996" cy="217.896" rx="0.924" ry="0.45"/>
	<path fill="#3A3A3A" d="M595,215.263c0,0.92-0.9,1.76-2.34,2.35c-1.34,0.56-3.16,0.9-5.16,0.9c-1.76,0-3.37-0.26-4.65-0.7
		c-1.739-0.6-2.85-1.52-2.85-2.55c0-0.9,0.84-1.71,2.21-2.3c1.36-0.59,3.22-0.95,5.29-0.95c2.17,0,4.12,0.4,5.49,1.04
		C594.24,213.633,595,214.413,595,215.263z"/>
	<path fill="#EFEDE7" d="M592.99,213.053c-0.07,1.24-0.75,8.63-1.07,9.79c-3.924,2.107-7.84,0-7.84,0s-2-9.56-1.87-9.88
		c1.36-0.59,3.22-0.95,5.29-0.95C589.67,212.013,591.62,212.413,592.99,213.053z"/>
	<ellipse fill="#CECDCC" cx="587.996" cy="223.012" rx="0.924" ry="0.45"/>
	<path fill="#EFEDE7" d="M582.24,219.719c-0.07,1.24-0.75,8.63-1.07,9.79c-3.924,2.107-7.84,0-7.84,0s-2-9.56-1.87-9.88
		c1.36-0.59,3.22-0.95,5.29-0.95C578.92,218.679,580.87,219.079,582.24,219.719z"/>
	<ellipse fill="#CECDCC" cx="577.246" cy="229.678" rx="0.924" ry="0.45"/>
	<path fill="#3A3A3A" d="M623,218.295c0,0.92-0.9,1.76-2.34,2.35c-1.34,0.56-3.16,0.9-5.16,0.9c-1.76,0-3.37-0.26-4.65-0.7
		c-1.739-0.6-2.85-1.52-2.85-2.55c0-0.9,0.84-1.71,2.21-2.3c1.36-0.59,3.22-0.95,5.29-0.95c2.17,0,4.12,0.4,5.49,1.04
		C622.24,216.666,623,217.445,623,218.295z"/>
	<path fill="#EFEDE7" d="M620.99,216.085c-0.07,1.24-0.75,8.63-1.07,9.79c-3.924,2.107-7.84,0-7.84,0s-2-9.56-1.87-9.88
		c1.36-0.59,3.22-0.95,5.29-0.95C617.67,215.045,619.62,215.445,620.99,216.085z"/>
	<ellipse fill="#CECDCC" cx="615.996" cy="226.045" rx="0.924" ry="0.45"/>
	<path fill="#3A3A3A" d="M643.49,214.045c0,0.92-0.9,1.76-2.34,2.35c-1.34,0.56-3.16,0.9-5.16,0.9c-1.76,0-3.37-0.26-4.65-0.7
		c-1.739-0.6-2.85-1.52-2.85-2.55c0-0.9,0.84-1.71,2.21-2.3c1.36-0.59,3.22-0.95,5.29-0.95c2.17,0,4.12,0.4,5.49,1.04
		C642.73,212.416,643.49,213.195,643.49,214.045z"/>
	<path fill="#EFEDE7" d="M641.48,211.835c-0.07,1.24-0.75,8.63-1.07,9.79c-3.924,2.107-7.84,0-7.84,0s-2-9.56-1.87-9.88
		c1.36-0.59,3.22-0.95,5.29-0.95C638.16,210.795,640.11,211.195,641.48,211.835z"/>
	<ellipse fill="#CECDCC" cx="636.486" cy="221.795" rx="0.924" ry="0.45"/>
	<path fill="#3A3A3A" d="M668,212.629c0,0.92-0.9,1.76-2.34,2.35c-1.34,0.56-3.16,0.9-5.16,0.9c-1.76,0-3.37-0.26-4.65-0.7
		c-1.739-0.6-2.85-1.52-2.85-2.55c0-0.9,0.84-1.71,2.21-2.3c1.36-0.59,3.22-0.95,5.29-0.95c2.17,0,4.12,0.4,5.49,1.04
		C667.24,211,668,211.779,668,212.629z"/>
	<path fill="#EFEDE7" d="M665.99,210.419c-0.07,1.24-0.75,8.63-1.07,9.79c-3.924,2.107-7.84,0-7.84,0s-2-9.56-1.87-9.88
		c1.36-0.59,3.22-0.95,5.29-0.95C662.67,209.379,664.62,209.779,665.99,210.419z"/>
	<ellipse fill="#CECDCC" cx="660.996" cy="220.379" rx="0.924" ry="0.45"/>
	<path fill="#3A3A3A" d="M690.5,213.246c0,0.92-0.9,1.76-2.34,2.35c-1.34,0.56-3.16,0.9-5.16,0.9c-1.76,0-3.37-0.26-4.65-0.7
		c-1.739-0.6-2.85-1.52-2.85-2.55c0-0.9,0.84-1.71,2.21-2.3c1.36-0.59,3.22-0.95,5.29-0.95c2.17,0,4.12,0.4,5.49,1.04
		C689.74,211.616,690.5,212.396,690.5,213.246z"/>
	<path fill="#EFEDE7" d="M688.49,211.036c-0.07,1.24-0.75,8.63-1.07,9.79c-3.924,2.107-7.84,0-7.84,0s-2-9.56-1.87-9.88
		c1.36-0.59,3.22-0.95,5.29-0.95C685.17,209.996,687.12,210.396,688.49,211.036z"/>
	<ellipse fill="#CECDCC" cx="683.496" cy="220.996" rx="0.924" ry="0.45"/>
	<path fill="#3A3A3A" d="M706.99,214.662c0,0.92-0.9,1.76-2.34,2.35c-1.34,0.56-3.16,0.9-5.16,0.9c-1.76,0-3.37-0.26-4.65-0.7
		c-1.739-0.6-2.85-1.52-2.85-2.55c0-0.9,0.84-1.71,2.21-2.3c1.36-0.59,3.22-0.95,5.29-0.95c2.17,0,4.12,0.4,5.49,1.04
		C706.23,213.032,706.99,213.812,706.99,214.662z"/>
	<path fill="#EFEDE7" d="M704.98,212.452c-0.07,1.24-0.75,8.63-1.07,9.79c-3.924,2.107-7.84,0-7.84,0s-2-9.56-1.87-9.88
		c1.36-0.59,3.22-0.95,5.29-0.95C701.66,211.412,703.61,211.812,704.98,212.452z"/>
	<ellipse fill="#CECDCC" cx="699.986" cy="222.412" rx="0.924" ry="0.45"/>
	<ellipse fill="#CECDCC" cx="709.496" cy="226.879" rx="0.924" ry="0.45"/>
	<path fill="#3A3A3A" d="M717.92,204.263c0,0.92-0.9,1.76-2.34,2.35c-1.34,0.56-3.16,0.9-5.16,0.9c-1.76,0-3.37-0.26-4.65-0.7
		c-1.739-0.6-2.85-1.52-2.85-2.55c0-0.9,0.84-1.71,2.21-2.3c1.36-0.59,3.22-0.95,5.29-0.95c2.17,0,4.12,0.4,5.49,1.04
		C717.16,202.633,717.92,203.413,717.92,204.263z"/>
	<path fill="#EFEDE7" d="M715.91,202.053c-0.07,1.24-0.75,8.63-1.07,9.79c-3.924,2.107-7.84,0-7.84,0s-2-9.56-1.87-9.88
		c1.36-0.59,3.22-0.95,5.29-0.95C712.59,201.013,714.54,201.413,715.91,202.053z"/>
	<ellipse fill="#CECDCC" cx="710.916" cy="212.013" rx="0.924" ry="0.45"/>
	<path fill="#3A3A3A" d="M731.5,209.097c0,0.92-0.9,1.76-2.34,2.35c-1.34,0.56-3.16,0.9-5.16,0.9c-1.76,0-3.37-0.26-4.65-0.7
		c-1.739-0.6-2.85-1.52-2.85-2.55c0-0.9,0.84-1.71,2.21-2.3c1.36-0.59,3.22-0.95,5.29-0.95c2.17,0,4.12,0.4,5.49,1.04
		C730.74,207.467,731.5,208.247,731.5,209.097z"/>
	<path fill="#EFEDE7" d="M729.49,206.887c-0.07,1.24-0.75,8.63-1.07,9.79c-3.924,2.107-7.84,0-7.84,0s-2-9.56-1.87-9.88
		c1.36-0.59,3.22-0.95,5.29-0.95C726.17,205.847,728.12,206.247,729.49,206.887z"/>
	<ellipse fill="#CECDCC" cx="724.496" cy="216.846" rx="0.924" ry="0.45"/>
	<ellipse fill="#CECDCC" cx="729.496" cy="222.996" rx="0.924" ry="0.45"/>
	<path fill="#3A3A3A" d="M635.63,224.306c0,0.875-0.856,1.675-2.228,2.237c-1.275,0.533-3.008,0.857-4.911,0.857
		c-1.676,0-3.208-0.248-4.427-0.667c-1.656-0.571-2.713-1.447-2.713-2.427c0-0.857,0.8-1.628,2.104-2.189
		c1.295-0.562,3.065-0.904,5.036-0.904c2.065,0,3.922,0.381,5.226,0.99C634.907,222.754,635.63,223.497,635.63,224.306z"/>
	<path fill="#EFEDE7" d="M633.717,222.202c-0.066,1.18-0.714,8.214-1.019,9.319c-3.735,2.006-7.463,0-7.463,0s-1.903-9.1-1.78-9.405
		c1.295-0.562,3.065-0.904,5.036-0.904C630.557,221.212,632.413,221.593,633.717,222.202z"/>
	<ellipse fill="#CECDCC" cx="628.963" cy="231.683" rx="0.88" ry="0.428"/>
	<path fill="#3A3A3A" d="M609.21,223.539c0,0.875-0.856,1.675-2.228,2.237c-1.275,0.533-3.008,0.857-4.911,0.857
		c-1.676,0-3.208-0.248-4.427-0.667c-1.656-0.571-2.713-1.447-2.713-2.427c0-0.857,0.8-1.628,2.104-2.189
		c1.295-0.562,3.065-0.904,5.036-0.904c2.065,0,3.922,0.381,5.226,0.99C608.487,221.987,609.21,222.729,609.21,223.539z"/>
	<path fill="#EFEDE7" d="M607.297,221.435c-0.066,1.18-0.714,8.214-1.019,9.319c-3.735,2.006-7.463,0-7.463,0s-1.903-9.1-1.78-9.405
		c1.295-0.562,3.065-0.904,5.036-0.904C604.137,220.445,605.993,220.826,607.297,221.435z"/>
	<ellipse fill="#CECDCC" cx="602.543" cy="230.916" rx="0.88" ry="0.428"/>
</g>
<g id="Calque_11">
	<path fill="#DDDDDD" d="M522.387,158.28c0,0-119.903,13.122-276.458,170.807c-28.304-27.682-17.781-34.685-17.781-34.685
		S384.934,172.085,522.387,158.28z"/>
	<path fill="#DDDDDD" d="M244.677,330.703L183.44,397.03c-0.33-0.33-0.66-0.63-0.98-0.93c-0.5-0.471-0.99-0.91-1.46-1.32
		c-8-7-20-22-13.5-28s58.5-62.5,58.5-62.5S232.337,320.104,244.677,330.703z"/>
</g>
<g id="Calque_12">
</g>
</svg>
