<?xml version="1.0" encoding="utf-8"?>
<!-- Generator: Adobe Illustrator 16.0.0, SVG Export Plug-In . SVG Version: 6.00 Build 0)  -->
<!DOCTYPE svg PUBLIC "-//W3C//DTD SVG 1.1//EN" "http://www.w3.org/Graphics/SVG/1.1/DTD/svg11.dtd">
<svg version="1.1" id="Calque_1" xmlns="http://www.w3.org/2000/svg" xmlns:xlink="http://www.w3.org/1999/xlink" x="0px" y="0px"
	 width="288px" height="329px" viewBox="0 0 288 329" enable-background="new 0 0 288 329" xml:space="preserve">
<g id="Calque_1_1_" display="none">
	
		<image display="inline" overflow="visible" enable-background="new    " width="1200" height="1200" xlink:href="../324215559-73dc7a6c-8584-4d5e-8916-b65a73f198f5_1200.jpg"  transform="matrix(0.24 0 0 0.24 -4.882812e-04 -2.441406e-04)">
	</image>
</g>
<g id="Calque_9" display="none">
	
		<radialGradient id="SVGID_1_" cx="144.0547" cy="66.3552" r="186.5243" gradientTransform="matrix(1 0 0 -0.7624 -0.0552 219.0882)" gradientUnits="userSpaceOnUse">
		<stop  offset="0" style="stop-color:#ACABB5"/>
		<stop  offset="1" style="stop-color:#646369"/>
	</radialGradient>
	<rect y="0" display="inline" fill="url(#SVGID_1_)" width="288" height="337"/>
</g>
<g id="ombre" opacity="0.6">
	<g>
		
			<image overflow="visible" enable-background="new    " width="236" height="372" xlink:href="DCACCF9A5DA63668.png"  transform="matrix(1 0 0 1 28.0005 -12.0002)">
		</image>
	</g>
</g>
<g id="Calque_3">
	<path fill="#E8E9EA" d="M231.811,302.36c0,0-4.551,1.859-10.229,3.71c-6.46,2.12-14.38,4.25-18.771,3.66
		c-2.189-0.29-3.5-1.261-3.301-3.25c0.29-2.87-3.71-3.091-9.34-2.19c-2.449,0.381-5.189,0.971-8.029,1.641
		c-5.311,1.25-10.92,2.78-15.391,3.74c-4.09,0.89-7.221,1.29-8.3,0.569c-0.431-0.279-0.53-0.75-0.229-1.439
		c1.85-4.221-10.461,0.699-21.571,4.779c-1.38,0.5-2.75,1-4.06,1.46c-3.9,1.37-7.37,2.45-9.66,2.75
		c-1.93,0.271-3.03-0.029-2.82-1.18c0.6-3.351-5.67-5.351-11.89-6.149c-0.15-0.021-0.31-0.04-0.46-0.061
		c-2.95-0.41-4.02-0.689-6.14-0.471c-0.61,0.061-1.11,0.109-1.49,0.17c-0.01,0-0.01,0-0.02,0c-0.79,0.131-1.08,0.311-0.86,0.729
		c1.38,2.79-14.64,1.99-16.29-2.449s-21.15-4.689-21.15-4.689v-280c0,0,6.77-2.5,17.22-3.01c4.64-0.24,10-0.08,15.82,0.859
		c0.45,0.07,0.9,0.15,1.35,0.23c0.37,0.06,0.73,0.13,1.1,0.2c0.34,0.069,0.68,0.13,1.02,0.21c0.67,0.13,1.35,0.29,2.03,0.449
		c0.65,0.16,1.31,0.32,1.97,0.5c0.66,0.17,1.33,0.36,1.99,0.561c13.51,2.81,9,0.28,10.5-3.11c2.69-0.189,5.07-2.42,17.86-0.649
		c5.37,0.739,12.57,2.18,22.391,4.76c0.459,0.18,0.899,0.35,1.33,0.5c8.271,3.05,10.119,2.109,10.271,0.859
		c0.101-0.85-0.601-1.859-0.601-1.859s-0.511-1.38,1.51-2.48c2.371-1.29,8.221-2.189,22.449-0.05c3.74,0.561,8.062,1.33,13.051,2.36
		c0.65,0.14,1.311,0.279,1.99,0.42c0.569,0.109,1.119,0.22,1.641,0.32c7.42,1.42,10.08,1.529,10.76,1.229
		c0.82-0.36-1.15-1.3-1.15-1.3s-4.5-3.75,15.5-0.75C231.83,24.46,231.811,302.36,231.811,302.36z"/>
</g>
<g id="Calque_4">
	<path fill="#BBBBBC" d="M217.484,30.692h-14.7l0.069-1.65l0.221-5.02c0.65,0.14,1.311,0.28,1.99,0.42
		c8.68,1.72,11.67,1.87,12.399,1.55C217.465,25.992,217.475,27.643,217.484,30.692z"/>
	<path fill="#BBBBBC" d="M221.584,306.072c-6.46,2.12-14.38,4.25-18.77,3.66c-2.19-0.29-3.5-1.26-3.301-3.25
		c0.291-2.87,2.729-263.68,2.729-263.68c0-0.011,0-0.011,0-0.021l0.181-4.09h15.109c0.011,0.79,0.011,1.61,0.011,2.47v0.01
		C217.863,92.322,219.064,266.372,221.584,306.072z"/>
	<path fill="#BBBBBC" d="M120.11,316.61c0.6-3.351-5.67-5.351-11.89-6.149c-0.15-0.021-0.31-0.04-0.46-0.061
		c-2.81-0.341-5.56-0.439-7.63-0.301c-0.01,0-0.01,0-0.02,0c-0.25,0.021-0.49,0.04-0.72,0.061L94.85,21.54
		c0.45,0.07,0.9,0.15,1.35,0.23c0.37,0.06,0.73,0.13,1.1,0.2c0.34,0.069,0.68,0.13,1.02,0.21c0.67,0.13,1.35,0.29,2.03,0.449
		c0.65,0.16,1.31,0.32,1.97,0.5c0.66,0.17,1.33,0.36,1.99,0.561c13.51,2.81,9,0.28,10.5-3.11c0,0,3.442,272.226,6.67,288.78
		C122.083,312.453,119.9,317.76,120.11,316.61z"/>
	<path fill="#BBBBBC" d="M166.664,26.052l-8.21,284.189c-0.431-0.279-0.529-0.75-0.229-1.438c1.851-4.222-10.459,0.699-21.57,4.778
		l19.74-288.39C164.664,28.242,166.516,27.302,166.664,26.052z"/>
</g>
<g id="Calque_7">
	<path opacity="0.3" fill="#BBBBBC" enable-background="new    " d="M206.704,24.762l-0.188,13.93l-3.701,271.04
		c-2.189-0.29-3.5-1.26-3.299-3.25c0.289-2.87-3.711-3.09-9.341-2.189c-2.45,0.381-5.19,0.971-8.03,1.641
		c2.08-204.86,6.181-266.851,7.881-284.271c3.74,0.561,8.06,1.33,13.05,2.36c0.649,0.14,1.312,0.28,1.989,0.42
		C205.635,24.552,206.186,24.663,206.704,24.762z"/>
	<path opacity="0.3" fill="#BBBBBC" enable-background="new    " d="M166.755,309.674c-4.091,0.89-7.221,1.289-8.301,0.568
		c-0.431-0.279-0.529-0.75-0.229-1.438c1.851-4.222-10.459,0.699-21.57,4.778c-1.38,0.5-2.75,1-4.06,1.461
		c-3.2-37.181-0.59-246.21,0.08-295.109c5.37,0.739,12.57,2.18,22.39,4.76c0.461,0.18,0.9,0.35,1.33,0.5
		c8.271,3.05,10.121,2.11,10.271,0.86c0.101-0.851-0.601-1.86-0.601-1.86s-0.51-1.38,1.511-2.48
		C170.874,62.143,167.363,274.252,166.755,309.674z"/>
	<path opacity="0.3" fill="#BBBBBC" enable-background="new    " d="M108.225,310.463c-3.31-0.439-4.37-0.76-6.6-0.529
		c-1.9,0.189-2.694,0.263-2.374,0.902c1.38,2.779-14.637,1.986-16.287-2.452c2-128.58-2.83-259.99-3.93-287.7
		c4.64-0.24,10-0.08,15.82,0.859c0.45,0.07,0.9,0.15,1.35,0.23c0.37,0.06,0.73,0.13,1.1,0.2c0.34,0.069,0.68,0.13,1.02,0.21
		c0.67,0.13,1.35,0.29,2.03,0.449L108.225,310.463z"/>
</g>
<g id="Calque_2" display="none">
	<path display="inline" fill="#69727C" d="M214.721,29h-15.111l0.359-8h14.7c0.011,0.311,0.011,0.63,0.011,0.971v0.01
		C214.689,23.89,214.7,26.24,214.721,29z"/>
	<polygon display="inline" fill="#69727C" points="199.971,21 199.609,29 0,29 0,21 	"/>
	<path display="inline" fill="#69727C" d="M288,21v8h-73.279c-0.021-2.76-0.029-5.109-0.041-7.02v-0.01c0-0.341,0-0.66-0.01-0.971
		H288z"/>
</g>
<g id="Calque_5">
	<path fill="#A5A5A5" stroke="#6F7070" stroke-miterlimit="10" d="M64.15,32.359c0,0,2.5-9.167,2.833,2.333s-2.666,11-2.833,2"/>
	<path fill="#A5A5A5" stroke="#6F7070" stroke-miterlimit="10" d="M94.854,32.191c0,0-2.705-8.498-3.205,2.501
		s3.602,12.069,3.435,1.451"/>
	<path fill="#A5A5A5" stroke="#6F7070" stroke-miterlimit="10" d="M114.882,32.356c0,0,2.6-9.496,2.6,2.336s-2.576,9.236-2.6,1.451"
		/>
	<path fill="#A5A5A5" stroke="#6F7070" stroke-miterlimit="10" d="M148.148,33.189c0,0-3.334-9.5-4.167,0
		c-0.833,9.5,3.667,15.333,4.167,3.333"/>
	<path fill="#A5A5A5" stroke="#6F7070" stroke-miterlimit="10" d="M168.648,33.356c0,0,3-9.833,4.166,0
		c1.168,9.833-3.334,14.833-4.166,3.5"/>
	<path fill="#A5A5A5" stroke="#6F7070" stroke-miterlimit="10" d="M204.314,32.356c0,0-2-8.828-2.5,2.336s2,11.831,2.5,2.164"/>
	<path fill="#A5A5A5" stroke="#6F7070" stroke-miterlimit="10" d="M215.814,36.333c0.17,0.86,0.379,1.65,0.619,2.36
		c0.32,0.979,0.7,1.81,1.11,2.47v0.01c1.819,2.971,4.13,2.65,4.399-2.479c0.061-1.1,0.029-2.43-0.131-4
		c-0.189-1.85-0.439-3.14-0.74-4c-0.858-2.48-2.079-1.47-3.02,0c-0.21,0.31-0.391,0.65-0.561,0.97"/>
	<path fill="none" stroke="#6F7070" stroke-miterlimit="10" d="M217.494,31.672c-0.51,0.971-0.85,1.851-0.85,1.851"/>
</g>
<g id="Calque_6">
	<path fill="#69727C" d="M172.395,38.692h-27.801c0,0-0.309-1.47-0.219-4h28.119C172.574,35.922,172.574,37.312,172.395,38.692z"/>
	<path fill="#69727C" d="M221.475,38.692h-19.22c0,0-0.04-1.9,0.04-4h19.039C221.465,35.992,221.534,37.422,221.475,38.692z"/>
	<path fill="#69727C" d="M117.004,34.692c-0.01,1.41-0.1,2.78-0.15,4.149l-24.73-0.149c0,0-0.07-1.8,0.03-4H117.004z"/>
	<path fill="#69727C" d="M66.455,38.692h-28.64v-4h28.73C66.584,36.092,66.555,37.462,66.455,38.692z"/>
	<path fill="#69727C" d="M259.874,34.692v3.96h-28c0-1.41,0-2.73-0.011-3.96H259.874z"/>
</g>
<g id="Calque_8">
	<path fill="#7F8993" d="M66.544,34.692h-28.73v-4h28.41C66.395,31.972,66.504,33.342,66.544,34.692z"/>
	<path fill="#7F8993" d="M117.004,34.692h-24.85c0.06-1.29,0.18-2.72,0.41-4c0.03-0.15,24.22-0.21,24.22-0.21
		C116.975,31.942,117.024,33.342,117.004,34.692z"/>
	<path fill="#7F8993" d="M172.494,34.692h-28.119c0.039-1.13,0.17-2.48,0.449-4c-0.1,0.09,27.01,0,27.01,0
		C171.965,30.992,172.346,32.603,172.494,34.692z"/>
	<path fill="#7F8993" d="M221.334,34.692h-19.039c0.051-1.42,0.159-2.93,0.359-4c0.039-0.17,17.859,0,17.859,0
		C220.805,31.152,221.135,32.782,221.334,34.692z"/>
	<path fill="#7F8993" d="M259.874,30.652v4.04h-28.011c0.011-1.49,0-2.84-0.01-4.04H259.874z"/>
</g>
<g id="Calque_10" display="none">
	
		<image display="inline" overflow="visible" opacity="0.5" enable-background="new    " width="700" height="700" xlink:href="../rideau-douche-coquelicot.jpg"  transform="matrix(0.5379 0 0 0.5379 -8.9517 -51.0002)">
	</image>
</g>
</svg>
