<?xml version="1.0" encoding="utf-8"?>
<!-- Generator: Adobe Illustrator 16.0.0, SVG Export Plug-In . SVG Version: 6.00 Build 0)  -->
<!DOCTYPE svg PUBLIC "-//W3C//DTD SVG 1.1//EN" "http://www.w3.org/Graphics/SVG/1.1/DTD/svg11.dtd">
<svg version="1.1" id="Calque_1" xmlns="http://www.w3.org/2000/svg" xmlns:xlink="http://www.w3.org/1999/xlink" x="0px" y="0px"
	 width="328px" height="362px" viewBox="0 0 328 362" enable-background="new 0 0 328 362" xml:space="preserve">
<g id="Calque_1_1_" display="none">
</g>
<g id="Calque_5">
	<rect x="72.833" y="113" fill="#C7C7D2" width="63.5" height="19.667"/>
</g>
<g id="Calque_6">
	<path fill="#9496A4" d="M229.5,71L141,88l-1.5,21.75c0,0,2.25,15.62-33.25,14c-8.3-0.38-14.75-1.47-19.75-2.92
		c-3.64-1.05-6.51-2.3-8.78-3.59c-0.3-0.17-0.58-0.34-0.86-0.52c-7.12-4.41-7.61-9.221-7.61-9.221s-0.4-28.83,1.84-31.5
		c0.23-0.27,0.41-0.6,0.63-0.97c0.69-1.13,1.83-2.69,6-4.41c2.07-0.85,4.89-1.75,8.78-2.649c11.53-2.69,32.44-5.46,71-7.471
		c86.5-4.5,83-5,83.5,0S238,69,229.5,71z"/>
</g>
<g id="Calque_8">
	<path fill="#6E717C" d="M141,88c0,0-34.667,4.5-39.333,15.5c-1,11.167-1.168,19.851-1.168,19.851s32.655,1.979,38.662-10.686
		C140.116,100.818,141,88,141,88z"/>
</g>
<g id="Calque_7">
	<path fill="#C7C7D2" d="M241,60.5c-0.5-5,3-4.5-83.5,0S71.097,72.514,71.09,76C71.068,87.333,241.5,65.5,241,60.5z"/>
</g>
<g id="Calque_2">
	<path fill="#9496A4" d="M144.09,187.25c-0.02,2.48-0.21,4.91-0.59,7.25c-7,24.5-7.5,87-7.5,87s-0.47,16.94-4.67,21.83
		c-7.96,6.479-19.28,8.11-32,7.41c-4.15-0.221-8.45-0.7-12.83-1.34c-0.17-0.021-0.33-0.051-0.5-0.07
		c-3.51-0.521-6.21-1.42-8.28-2.54c-1-0.529-1.85-1.119-2.57-1.729C69.64,300.41,71.33,294,71.33,294V120.67
		c1.44,1.271,3,2.4,4.66,3.391c0.4,0.239,0.81,0.479,1.23,0.7c0.17,0.09,0.33,0.18,0.5,0.27c2.75,1.43,5.72,2.54,8.78,3.39
		c18.07,4.95,39.53,0.66,39.53-0.029C126.68,129.5,144.39,161.03,144.09,187.25z"/>
</g>
<g id="Calque_11">
	<path fill="#6E717C" d="M283.67,156.62v10.78c0,0.55,0.01,1.1-1.21,2.06c-2.54,1.99-12.84,5.011-22.36,4.45
		c-2.799-0.17-5.539-0.64-7.988-1.55c-1.95-0.72-3.711-1.71-5.19-3.03c-0.739-0.66-1.06-1.38-1.06-1.93v-10.78c0-0.55,0.449-1,1-1
		h35.81C283.221,155.62,283.67,156.07,283.67,156.62z"/>
</g>
<g id="Calque_4">
	<path fill="#9496A4" d="M104,224c1.42-1.05,4.84-3.149,9.64-5.989L99.5,264.5C99.5,264.5,98,233,104,224z"/>
	<path fill="#9496A4" d="M289.939,148.76c-0.771,7.63-13.021,9.489-25.84,9.01c-2.67-0.101-5.369-0.3-7.99-0.57
		c-6.229-0.64-12.039-1.68-16.109-2.7c-14-3.5-19.5,2-23.5,5c-3.4,2.55-75.53,42.36-102.86,58.51l15.64-51.439h0.01L132.5,156l97-30
		l26.68,1.32l7.92,0.39l25.961,1.28l0.131,0.01C290.189,129,291.25,135.76,289.939,148.76z"/>
</g>
<g id="Calque_3">
	<path fill="#6E717C" d="M290.061,128.99c-0.211,0.73-0.721,1.5-1.561,2.32c-4.7,4.58-14.279,5.72-24.4,5.359
		c-2.648-0.1-5.33-0.3-7.97-0.56c-14.14-1.43-27.13-4.8-27.13-4.8s-67.37,27.8-99.72,35.26c-7.21,1.67-12.68,2.32-15.28,1.43
		c-3.88-1-9.11-2.09-14.11-13.59l0.61-24.21c37.42,1.72,35.83-9.53,35.83-9.53s5.79,3.2,10.17,17.83
		c4.17,18.67,93.5-21.02,93.5-21.02s7.27,0.189,16.279,0.95c2.511,0.21,5.16,0.47,7.82,0.77
		C277.68,120.77,291.65,123.67,290.061,128.99z"/>
	<path fill="#347991" d="M256.604,180.039c0,0-17.803,21.104-2.16,26.244c9.513,2.532,12.664-10.504,4.693-14.602
		C255.596,189.859,256.604,180.039,256.604,180.039z"/>
	<path fill="#AACED6" d="M254.423,204.645c-6.911-3.203-5.549-8.99-3.092-12.53C247.398,200.149,254.404,204.638,254.423,204.645z"
		/>
	<path fill="#347991" d="M277.077,213.038c0,0,17.805,21.105,2.159,26.244c-9.512,2.533-12.664-10.504-4.692-14.602
		C278.087,222.86,277.077,213.038,277.077,213.038z"/>
	<path fill="#AACED6" d="M279.262,237.644c6.909-3.203,5.549-8.99,3.09-12.529C286.282,233.149,279.275,237.638,279.262,237.644z"/>
	<path fill="#347991" d="M261.671,231.067c0,0-17.803,21.104-2.159,26.244c9.512,2.533,12.663-10.504,4.692-14.603
		C260.661,240.888,261.671,231.067,261.671,231.067z"/>
	<path fill="#AACED6" d="M259.488,255.673c-6.911-3.202-5.549-8.989-3.092-12.528C252.466,251.179,259.473,255.665,259.488,255.673z
		"/>
</g>
<g id="Calque_9">
	<path fill="#6E717C" d="M141.791,201.831c-7,24.5-5.791,79.669-5.791,79.669s-0.47,16.94-4.67,21.83
		c-7.96,6.479-19.28,8.11-32,7.41v-83.49C99.33,227.25,142.171,199.491,141.791,201.831z"/>
</g>
<g id="Calque_10">
	<path opacity="0.1" fill="#FFFFFF" enable-background="new    " d="M86.5,79.202v41.628c-3.64-1.05-6.51-2.3-8.78-3.59V78.586
		C77.72,78.586,81.335,79.328,86.5,79.202z"/>
	<path opacity="0.1" fill="#FFFFFF" enable-background="new    " d="M86.5,128.42V309.4c-0.17-0.021-0.33-0.051-0.5-0.07
		c-3.51-0.521-6.21-1.42-8.28-2.54V125.03C80.47,126.46,83.44,127.57,86.5,128.42z"/>
	<path fill="#6E717C" d="M77.22,78.656v38.174c-0.12-0.03-0.24-0.069-0.36-0.109c-7.12-4.41-7.61-9.221-7.61-9.221
		s-0.4-28.83,1.84-31.5C71.32,75.73,70,77.812,77.22,78.656z"/>
	<path fill="#6E717C" d="M77.22,124.42V305.4c-0.17-0.021-0.33-0.051-0.5-0.07c-0.54-0.08-1.07-0.17-1.57-0.271
		C69.64,300.41,71.33,294,71.33,294V122.38c1.51,0.641,3.07,1.2,4.66,1.681C76.4,124.19,76.81,124.31,77.22,124.42z"/>
	<path opacity="0.2" fill="#FFFFFF" enable-background="new    " d="M260.1,157.549v16.361c-2.8-0.17-5.539-0.64-7.988-1.55
		c-0.012-4.25-0.014-9.042,0.007-15.632L260.1,157.549z"/>
	<path opacity="0.2" fill="#FFFFFF" enable-background="new    " d="M268.333,136.67v21.101c-4.083-0.056-8.211-0.166-12.218-0.315
		c-0.018-2.345-0.031-6.675,0.029-11.664c0.016-1.564,0.047-3.202,0.076-4.86c0.047-1.626,0.094-3.28,0.153-4.917
		C259.626,136.375,264.268,136.504,268.333,136.67z"/>
</g>
</svg>
