<?xml version="1.0" encoding="utf-8"?>
<!-- Generator: Adobe Illustrator 16.0.0, SVG Export Plug-In . SVG Version: 6.00 Build 0)  -->
<!DOCTYPE svg PUBLIC "-//W3C//DTD SVG 1.1//EN" "http://www.w3.org/Graphics/SVG/1.1/DTD/svg11.dtd">
<svg version="1.1" xmlns="http://www.w3.org/2000/svg" xmlns:xlink="http://www.w3.org/1999/xlink" x="0px" y="0px" width="320px"
	 height="390px" viewBox="0 0 320 390" enable-background="new 0 0 320 390" xml:space="preserve">
<g id="SALIERE">
	<g id="Calque_1" display="none">
		
			<image display="inline" overflow="visible" width="231" height="219" xlink:href="10FD9FCF5C5F1459.jpg"  transform="matrix(1.5388 0 0 1.5388 -280 0)">
		</image>
	</g>
	<g id="Calque_21">
		
			<radialGradient id="SVGID_1_" cx="-172.9697" cy="70.9458" r="29.4048" fx="-175.0897" fy="71.0802" gradientTransform="matrix(0.9758 0 0 1 -5.5508 0)" gradientUnits="userSpaceOnUse">
			<stop  offset="0" style="stop-color:#8A8A8A"/>
			<stop  offset="1" style="stop-color:#FFFFFF"/>
		</radialGradient>
		<path opacity="0.3" fill="url(#SVGID_1_)" d="M-126.218,86.732c-0.072,0.083-0.618,2.709-0.718,2.767
			c-10.225,5.916-24.53,11.539-48.325,11.539c-22.793,0-38.372-3.346-48.589-12.397c-0.096-0.103-0.179-0.184-0.275-0.266
			c-1.645-11.75,16.021-24.376,48.162-24.374C-132.688,64.005-126.218,79.733-126.218,86.732z"/>
	</g>
	<g id="Image" display="none">
		
			<image display="inline" overflow="visible" width="1200" height="1092" xlink:href="10FD9FCF5C5F145F.jpg"  transform="matrix(0.3404 -9.280000e-04 9.280000e-04 0.3404 -427.6094 30.9268)">
		</image>
	</g>
	<g id="Calque_9">
	</g>
	<g id="Calque_3" display="none">
		<linearGradient id="SVGID_2_" gradientUnits="userSpaceOnUse" x1="-250.7295" y1="223.125" x2="-122.3217" y2="223.125">
			<stop  offset="0" style="stop-color:#A3A3A3"/>
			<stop  offset="1" style="stop-color:#EFEFEF"/>
		</linearGradient>
		<path display="inline" fill="url(#SVGID_2_)" d="M-174.688,325.25L-231.07,321c-14.903-8-19.659-37.333-19.659-37.333
			L-221.135,121c0,0,41.231,19.5,92.895,0l29.529,163.225c0,0-4.691,28.775-19.594,36.775L-174.688,325.25"/>
		<g display="inline">
			<g>
				<g>
					<path fill="#C6C6C6" d="M-107.234,310.97c2.568-4.063,4.474-8.463,5.991-12.954c1.503-4.516,2.653-9.073,3.381-13.835
						l0.023-0.152l-0.052-0.286l-14.292-78.822l-13.59-72.699l-1.983-9.805l-0.405-2.006l-1.861,0.723
						c-10.244,3.978-20.974,6.755-31.928,8.001c-10.946,1.243-22.094,1.031-33.019-0.752c-4.399-0.864-8.784-1.835-13.054-3.198
						c-4.266-1.318-8.521-2.874-12.467-4.823l-0.984-0.486l-0.203,1.072l-6.598,34.889l-10.297,55.957l-5.581,36.57l-7.581,35.132
						l0.125,0.351l0.1,1.087c1.72,6.741,4.066,13.309,7.275,19.514c1.616,3.091,3.468,6.085,5.708,8.815
						c2.225,2.729,4.888,5.191,8.055,6.943l0.178,0.098l0.211,0.018l55.25,4.604c-18.382-1.95-36.764-3.9-55.181-5.435
						c0.046-0.128,0.092-0.257,0.071-0.263c-3.026-1.785-5.571-4.268-7.677-7.047c-2.13-2.769-3.87-5.821-5.384-8.966
						c-2.993-6.3-5.162-13.049-6.956-19.727c0.121,0.134,0.243,0.268,0.245,0.379l5.684-26.8l16.475-89.525
						c2.722-15.391,5.445-30.782,8.273-46.153c-0.765,0.349-1.53,0.697-2.312,1.077c2.983,1.447,5.918,2.568,8.958,3.586
						l2.268,0.758l2.294,0.666l2.294,0.663l2.319,0.562c3.079,0.806,6.217,1.339,9.342,1.91c3.149,0.425,6.288,0.929,9.462,1.109
						c6.328,0.608,12.692,0.459,19.022,0.12c1.581-0.123,3.154-0.337,4.73-0.501c1.573-0.194,3.156-0.314,4.72-0.568l4.675-0.862
						l2.337-0.432c0.781-0.135,1.559-0.283,2.32-0.505c2.982-0.841,5.993-1.576,8.941-2.505c2.911-1.04,5.822-2.08,8.771-3.017
						c-0.308-0.2-0.616-0.399-0.96-0.592l12.35,59.957l12.447,75.809c1.673,8.523,3.346,17.047,4.942,25.585
						c0.023-0.112,0.045-0.225,0.042-0.34c-0.475,3.508-1.25,7.064-2.206,10.521c-0.97,3.461-2.147,6.869-3.635,10.131
						c-1.481,3.26-3.263,6.395-5.495,9.165c-2.209,2.783-4.932,5.157-8.147,6.613c0.096,0.021,0.192,0.044,0.284,0.019
						l-55.242,4.796l55.375-3.057l0.317-0.221c1.58-0.724,3.093-1.601,4.492-2.636c1.376-1.057,2.682-2.213,3.854-3.486"/>
				</g>
			</g>
		</g>
	</g>
	<g id="Clair_bas">
		<path opacity="0.4" fill="#FFFFFF" d="M-205.875,125.792c0,0-19.542,156.7-6.542,163.2c1.012-8.617,19.915-160.37,19.268-160.458
			C-200.328,127.565-205.875,125.792-205.875,125.792z"/>
	</g>
	<g id="Clair">
		<path opacity="0.5" fill="#FFFFFF" d="M-174.75,322.036L-229.436,318c-14.219-7.634-20.189-34.333-20.189-34.333l29.669-156.494
			c0,0,39.341,18.606,88.634,0l28.913,159.818c0,0-5.214,23.375-19.433,31.009L-174.75,322.036"/>
	</g>
	<g id="Calque_23">
		<path opacity="0.5" fill="#898989" d="M-221.447,119.996c0,0-2.784-7.746,2.322-18.864c0.432-6.244,0.454-21.817,0.454-21.817
			s-0.079-4.347,5.734-13.779c6.333-6.562,53.717-14.744,80.05-0.309c3.22,3.64,4.512,14.416,4.512,14.416l-0.125,21.859
			c0,0,3.75,11.829,0,19.498C-138.324,129.25-193.561,140.664-221.447,119.996"/>
	</g>
	<g id="Calque_28">
		
			<radialGradient id="SVGID_3_" cx="-174.0068" cy="61.1445" r="59.3401" gradientTransform="matrix(1 0 0 0.9835 0 1.2093)" gradientUnits="userSpaceOnUse">
			<stop  offset="0" style="stop-color:#B4C0CE"/>
			<stop  offset="1" style="stop-color:#4D5962"/>
		</radialGradient>
		<path opacity="0.55" fill="url(#SVGID_3_)" d="M-220.046,121.873c0,0-0.785-0.343-1.498-1.015
			c-1.633-3.542-0.73-15.131,2.425-19.82c0.056-7.119-0.176-21.551-0.176-21.551s0.333-5.245,6-13.769
			c6.333-6.556,54.074-14.915,80.407-0.491c2.667,4.59,4.306,14.831,4.306,14.831l0.125,21.473c0,0,3.459,12.259-0.291,19.464
			C-133.25,127.173-189.162,140.5-220.046,121.873"/>
	</g>
	<g id="Trait_bouchons">
		<g opacity="0.05">
			<path fill="#4B4B4C" d="M-219.25,101.502c0,0,0.332,0.153,0.97,0.402c0.629,0.268,1.578,0.597,2.773,1.042
				c1.213,0.394,2.666,0.935,4.381,1.403c0.854,0.244,1.762,0.502,2.72,0.775c0.966,0.243,1.981,0.499,3.041,0.765
				c1.054,0.288,2.171,0.503,3.324,0.743c1.155,0.227,2.338,0.513,3.574,0.712c2.474,0.377,5.066,0.864,7.783,1.132
				c1.355,0.15,2.73,0.339,4.127,0.464c1.4,0.09,2.818,0.181,4.247,0.273c0.714,0.046,1.432,0.092,2.151,0.139
				c0.72,0.029,1.444,0.019,2.168,0.03c1.449,0.013,2.903,0.025,4.357,0.038c1.455,0.063,2.907-0.077,4.354-0.114
				c1.448-0.061,2.89-0.121,4.32-0.18c2.854-0.231,5.654-0.565,8.37-0.831c2.7-0.379,5.298-0.847,7.772-1.223
				c0.618-0.099,1.228-0.196,1.828-0.292c0.593-0.135,1.177-0.268,1.75-0.398c1.148-0.261,2.258-0.514,3.324-0.756
				c1.066-0.241,2.088-0.472,3.06-0.692c0.98-0.19,1.888-0.452,2.738-0.709c1.707-0.497,3.195-0.93,4.42-1.286
				c2.458-0.702,3.862-1.104,3.862-1.104s-1.383,0.469-3.803,1.289c-1.213,0.405-2.687,0.896-4.376,1.459
				c-1.674,0.625-3.647,1.031-5.768,1.59c-1.064,0.269-2.172,0.548-3.319,0.838c-0.574,0.145-1.157,0.292-1.75,0.442
				c-0.601,0.11-1.21,0.223-1.829,0.337c-2.476,0.437-5.078,0.981-7.795,1.367c-2.729,0.289-5.546,0.647-8.418,0.902
				c-1.44,0.071-2.892,0.144-4.349,0.216c-1.458,0.047-2.92,0.203-4.386,0.146c-1.465-0.024-2.93-0.048-4.389-0.073
				c-0.729-0.017-1.458-0.013-2.183-0.047c-0.724-0.052-1.446-0.104-2.166-0.156c-1.438-0.104-2.865-0.207-4.275-0.309
				c-1.406-0.138-2.789-0.338-4.153-0.5c-2.735-0.273-5.334-0.843-7.811-1.278c-1.237-0.229-2.422-0.545-3.577-0.801
				c-1.153-0.268-2.271-0.51-3.323-0.825c-1.057-0.295-2.07-0.579-3.034-0.848c-0.951-0.311-1.852-0.606-2.7-0.883
				c-1.7-0.535-3.138-1.134-4.337-1.575C-217.949,102.17-219.25,101.502-219.25,101.502z"/>
		</g>
		<g opacity="0.05">
			<path fill="#4B4B4C" d="M-219.333,79.667c0,0,0.347,0.099,0.997,0.283c0.648,0.188,1.61,0.424,2.83,0.738
				c1.222,0.303,2.712,0.654,4.426,1.022c1.719,0.352,3.654,0.759,5.779,1.13c2.117,0.418,4.433,0.742,6.875,1.114
				c1.219,0.203,2.485,0.308,3.771,0.473c1.291,0.133,2.599,0.349,3.942,0.456c2.686,0.216,5.453,0.548,8.282,0.637
				c1.412,0.07,2.836,0.141,4.265,0.211c1.431,0.013,2.867,0.027,4.304,0.04c1.436,0.001,2.873,0.082,4.303,0.022
				c1.43-0.045,2.854-0.09,4.268-0.135c2.831-0.026,5.599-0.341,8.285-0.542c2.691-0.166,5.264-0.576,7.716-0.876
				c1.224-0.163,2.419-0.301,3.568-0.472c1.142-0.216,2.246-0.426,3.305-0.627c2.114-0.425,4.073-0.723,5.782-1.111
				c1.703-0.422,3.187-0.791,4.409-1.094c2.451-0.595,3.851-0.936,3.851-0.936s-1.382,0.409-3.8,1.124
				c-1.212,0.352-2.685,0.779-4.373,1.269c-1.697,0.459-3.646,0.836-5.761,1.301c-1.059,0.228-2.162,0.464-3.304,0.709
				c-1.15,0.199-2.345,0.366-3.571,0.56c-2.455,0.36-5.034,0.847-7.74,1.018c-2.699,0.224-5.481,0.562-8.327,0.611
				c-1.421,0.056-2.854,0.113-4.292,0.17c-1.438,0.069-2.883,0.003-4.328,0.009c-1.444-0.025-2.889-0.05-4.328-0.075
				c-1.437-0.083-2.868-0.165-4.287-0.246c-2.843-0.112-5.622-0.466-8.319-0.706c-2.69-0.303-5.282-0.68-7.731-1.072
				c-2.444-0.432-4.758-0.812-6.872-1.282c-2.126-0.411-4.05-0.898-5.757-1.32c-1.703-0.436-3.181-0.844-4.392-1.195
				C-217.98,80.167-219.333,79.667-219.333,79.667z"/>
		</g>
		<g opacity="0.05">
			<path fill="#4B4B4C" d="M-212.672,65.419c0.016-0.017-0.177,0.356,0.13,0.904c0.303,0.549,1.153,0.985,2.263,1.24
				c1.128,0.26,2.499,0.575,4.07,0.937c0.785,0.181,1.624,0.358,2.51,0.536c0.884,0.186,1.812,0.389,2.787,0.563
				c1.944,0.382,4.062,0.732,6.308,1.053c2.246,0.323,4.625,0.565,7.086,0.824c1.233,0.093,2.487,0.187,3.757,0.283
				c1.27,0.091,2.559,0.119,3.856,0.182c1.297,0.073,2.607,0.07,3.921,0.083c1.314,0.01,2.634,0.04,3.953-0.008
				c1.32-0.02,2.64-0.041,3.955-0.061c1.313-0.061,2.622-0.122,3.92-0.182c2.599-0.084,5.146-0.366,7.616-0.535
				c2.465-0.248,4.848-0.488,7.107-0.715c2.254-0.29,4.384-0.564,6.351-0.817c1.967-0.258,3.76-0.564,5.356-0.792
				c0.797-0.12,1.544-0.232,2.234-0.335c0.685-0.112,1.343-0.162,1.857-0.37c0.518-0.209,0.91-0.576,1.043-0.995
				c0.144-0.414,0.108-0.808,0.043-1.105c-0.146-0.601-0.34-0.881-0.34-0.881s0.208,0.268,0.386,0.87
				c0.08,0.299,0.14,0.7,0.009,1.148c-0.118,0.455-0.53,0.881-1.075,1.12c-0.561,0.244-1.197,0.311-1.881,0.453
				c-0.686,0.131-1.428,0.272-2.22,0.424c-1.588,0.289-3.37,0.678-5.335,0.972c-1.965,0.301-4.093,0.627-6.345,0.973
				c-2.261,0.271-4.642,0.609-7.116,0.85c-2.479,0.19-5.033,0.493-7.643,0.598c-1.304,0.071-2.618,0.143-3.938,0.215
				c-1.321,0.031-2.648,0.062-3.975,0.093c-1.327,0.042-2.654-0.002-3.976-0.022c-1.322-0.023-2.639-0.031-3.944-0.115
				c-1.305-0.074-2.601-0.112-3.877-0.213c-1.277-0.106-2.538-0.211-3.778-0.314c-1.236-0.146-2.452-0.288-3.642-0.428
				c-1.188-0.155-2.343-0.357-3.47-0.526c-2.25-0.377-4.368-0.779-6.311-1.21c-1.946-0.412-3.715-0.855-5.275-1.272
				c-1.557-0.423-2.915-0.792-4.033-1.096c-1.123-0.3-1.979-0.81-2.263-1.396C-212.874,65.762-212.654,65.403-212.672,65.419z"/>
		</g>
	</g>
	<g id="Ombre_capsuule_bas">
		<path opacity="0.2" fill="#505050" d="M-212.726,65.501c0,0-5.42,8.511-5.961,13.967c0.208,6,0.015,22.365,0.015,22.365
			s-4.828,10.416-2.114,18.918c5.442,2.522,7.399,2.481,7.399,2.481s-3.488-8.858-1.224-19.85c-1.14-11.82-1.89-23.039-1.89-23.039
			S-216.06,75.418-212.726,65.501z"/>
	</g>
	<g id="Ombre_Bouchon">
		<linearGradient id="SVGID_4_" gradientUnits="userSpaceOnUse" x1="-204.8926" y1="125.3242" x2="-193.4951" y2="71.3621">
			<stop  offset="0" style="stop-color:#FFFFFF"/>
			<stop  offset="0.1944" style="stop-color:#FCFCFD"/>
			<stop  offset="0.3547" style="stop-color:#F2F4F6"/>
			<stop  offset="0.5029" style="stop-color:#E0E5EB"/>
			<stop  offset="0.643" style="stop-color:#C8D1DB"/>
			<stop  offset="0.735" style="stop-color:#B4C0CE"/>
		</linearGradient>
		<path opacity="0.12" fill="url(#SVGID_4_)" d="M-205.026,70.358l-3.64,12.457c0,0,3.209,19.899,2.749,23.518
			c-4.75,10.833-0.756,20.798-0.155,21.069c2.701,1.218,10.135,2.423,12.924,2.707c-0.408-1.928-3.435-14.109,1.022-21.813
			c0.074-4.419,0.5-21.492,0.5-21.492s9.92-13.165,9.262-13.207C-189.907,73.107-205.026,70.358-205.026,70.358z"/>
		<linearGradient id="SVGID_5_" gradientUnits="userSpaceOnUse" x1="-138.1255" y1="103.001" x2="-138.3921" y2="83.9982">
			<stop  offset="0" style="stop-color:#FFFFFF"/>
			<stop  offset="0.1944" style="stop-color:#FCFCFD"/>
			<stop  offset="0.3547" style="stop-color:#F2F4F6"/>
			<stop  offset="0.5029" style="stop-color:#E0E5EB"/>
			<stop  offset="0.643" style="stop-color:#C8D1DB"/>
			<stop  offset="0.735" style="stop-color:#B4C0CE"/>
		</linearGradient>
		<path opacity="0.05" fill="url(#SVGID_5_)" d="M-144,85c0,0-1.458,6.723,0,21.667c7-2,12-4,12-4s0-7.583,0-20.147
			C-142.333,85.333-144,85-144,85z"/>
	</g>
	<g id="trou_sel">
		<ellipse opacity="0.5" fill="#6D6D6D" cx="-196.771" cy="64.604" rx="2.56" ry="0.624"/>
		<ellipse opacity="0.5" fill="#6D6D6D" cx="-181.312" cy="64.604" rx="2.56" ry="0.624"/>
		<ellipse opacity="0.5" fill="#6D6D6D" cx="-166.307" cy="64.604" rx="2.56" ry="0.624"/>
		<ellipse opacity="0.5" fill="#6D6D6D" cx="-151.062" cy="64.604" rx="2.56" ry="0.624"/>
		<ellipse opacity="0.5" fill="#6D6D6D" cx="-189.162" cy="61.877" rx="2.56" ry="0.624"/>
		<ellipse opacity="0.5" fill="#6D6D6D" cx="-173.702" cy="61.877" rx="2.56" ry="0.624"/>
		<ellipse opacity="0.5" fill="#6D6D6D" cx="-158.698" cy="61.877" rx="2.56" ry="0.624"/>
		<ellipse opacity="0.5" fill="#6D6D6D" cx="-173.702" cy="67.189" rx="2.56" ry="0.624"/>
	</g>
	<g id="Calque_12">
		<path opacity="0.5" fill="#FFFFFF" d="M-131.913,127.354L-103,291.181c0,0-6.997,20.5-19.433,27
			c-13.567,1.569-16.442,1.069-16.442,1.069l-35.875,2.786l16.031-32.855l1.711-155.724
			C-157.008,133.457-138.957,131.526-131.913,127.354z"/>
	</g>
	<g id="Calque_16">
	</g>
	<g id="Calque_13">
	</g>
	<g id="Calque_4">
		<path fill="none" stroke="#000000" stroke-miterlimit="10" d="M-128.5,121"/>
	</g>
	<g id="Calque_10">
		<g>
			<g>
				<g>
					<path fill="#D4D2D2" d="M-196.619,151.95l-4.342,33.31l-2.708,22.822l-2.042,23.79l-2.484,19.287l-2.083,17.557l-0.583,11.502
						l-1.637,8.724l0.072,0.148l0.298,2.629l6.129,29.421c-1.69-10.777-3.381-21.555-5.604-32.222
						c0.182,0.065,0.363,0.13,0.365,0.174l1.218-6.103l3.333-28.09l3.901-37.812l1.953-24.69l3.967-23.563l3.812-38.713
						l-3.357,20.074"/>
				</g>
			</g>
		</g>
		<g>
			<g>
				<g>
					<path fill="#C6C5C5" d="M-157.404,150.823l2.669,33.794l2.093,23.098l2.952,23.913l1.576,19.562l1.61,17.769l1.826,11.478
						c0.066,2.869,0.132,5.738,0.391,8.591c-0.059-0.054-0.117-0.107-0.113-0.144l-1.098,2.811l-8.492,29.115l10.928-31.535
						l-0.149-0.345l-0.056-5.933l-2.576-28.429l-4.045-38.147l-3.229-24.785l-1.004-24.093l-4.321-39.018l0.877,20.52"/>
				</g>
			</g>
		</g>
	</g>
	<g id="Ombre_foncé">
		<path opacity="0.2" fill="#78787A" d="M-213.387,123.233l-7.54-3l-30.876,163.434c0,0,5.18,23.087,19.67,36.712
			c17.875,1.194,22.113,2.208,22.113,2.208s-6.24-5.268-15.7-35.475C-227.227,259.766-230.155,209.923-213.387,123.233z"/>
	</g>
	<g id="Trait_horizontal">
		<g>
			<g>
				<g>
					<path fill="#C6C5C5" d="M-116.791,285.019c-8.682,1.208-17.363,2.417-26.03,3.726c0.047-0.037,0.094-0.074,0.142-0.077
						l-0.228-0.039l-18.146-0.163l-18.848,0.442l-15.353-0.292l-13.96-0.126c-0.928,0.054-1.855,0.108-2.782,0.1
						c0.015,0.022,0.029,0.044,0.046,0.046l-6.293-0.417l-8.905-1.845l-23.508-3.237l30.212,5.706l8.308,1.144l0.063,0.009
						l0.064,0.001l13.949,0.125l30.015-0.188l19.548-0.59c1.937,0.112,3.873,0.224,5.81,0.241c0.002,0.031,0.005,0.062,0.003,0.062
						l12.987-1.286l30.274-5.191l-15.986,1.641"/>
				</g>
			</g>
		</g>
	</g>
	<g id="Ombre">
		<ellipse fill="#B2B2B2" cx="-172.242" cy="337" rx="69.833" ry="5"/>
	</g>
	<g id="Calque_5">
	</g>
</g>
<g id="Calque_31">
	
		<radialGradient id="SVGID_6_" cx="182.6641" cy="70.8423" r="29.4043" fx="180.5441" fy="70.9767" gradientTransform="matrix(0.9758 0 0 1 -5.5508 0)" gradientUnits="userSpaceOnUse">
		<stop  offset="0" style="stop-color:#8A8A8A"/>
		<stop  offset="1" style="stop-color:#FFFFFF"/>
	</radialGradient>
	<path opacity="0.3" fill="url(#SVGID_6_)" d="M220.809,86.629c-0.071,0.083-0.617,2.709-0.718,2.767
		c-10.226,5.916-24.53,11.539-48.325,11.539c-22.793,0-38.372-3.346-48.589-12.397c-0.097-0.103-0.179-0.184-0.274-0.266
		c-1.646-11.75,16.021-24.376,48.161-24.374C214.339,63.902,220.809,79.629,220.809,86.629z"/>
	<path fill="#C6C4C4" d="M172.34,325.146l-56.383-4.25c-14.902-8-19.659-37.333-19.659-37.333l29.595-162.667
		c0,0,41.231,19.5,92.895,0l29.529,163.225c0,0-4.691,28.775-19.594,36.775L172.34,325.146"/>
	<g>
		<g>
			<g>
				<path fill="#C6C6C6" d="M239.793,310.866c2.568-4.063,4.475-8.463,5.992-12.954c1.502-4.516,2.652-9.073,3.381-13.835
					l0.023-0.152l-0.053-0.286l-14.292-78.822l-13.59-72.699l-1.983-9.805l-0.404-2.006l-1.861,0.723
					c-10.244,3.978-20.975,6.755-31.928,8.001c-10.946,1.243-22.095,1.031-33.02-0.752c-4.398-0.864-8.783-1.835-13.054-3.198
					c-4.267-1.318-8.521-2.874-12.468-4.823l-0.983-0.486l-0.202,1.072l-6.598,34.889l-10.297,55.957l-5.582,36.57l-7.58,35.132
					l0.125,0.351l0.1,1.087c1.72,6.741,4.066,13.309,7.274,19.514c1.616,3.091,3.468,6.085,5.708,8.815
					c2.225,2.729,4.888,5.191,8.055,6.943l0.178,0.098l0.211,0.018l55.25,4.604c-18.382-1.95-36.764-3.9-55.181-5.435
					c0.046-0.128,0.092-0.257,0.071-0.263c-3.026-1.785-5.57-4.268-7.678-7.047c-2.13-2.769-3.869-5.821-5.383-8.966
					c-2.994-6.3-5.162-13.049-6.957-19.727c0.121,0.134,0.243,0.268,0.245,0.379l5.684-26.8l16.475-89.525
					c2.722-15.391,5.444-30.782,8.273-46.153c-0.765,0.349-1.53,0.697-2.312,1.077c2.983,1.447,5.918,2.568,8.958,3.586l2.268,0.758
					l2.294,0.666l2.294,0.663l2.319,0.562c3.079,0.806,6.218,1.339,9.342,1.91c3.149,0.425,6.288,0.929,9.462,1.109
					c6.328,0.608,12.691,0.459,19.021,0.12c1.581-0.123,3.154-0.337,4.73-0.501c1.574-0.194,3.156-0.314,4.721-0.568l4.676-0.862
					l2.336-0.432c0.781-0.135,1.559-0.283,2.32-0.505c2.982-0.841,5.992-1.576,8.941-2.505c2.91-1.04,5.821-2.08,8.771-3.017
					c-0.309-0.2-0.617-0.399-0.961-0.592l12.35,59.957l12.447,75.81c1.674,8.523,3.347,17.047,4.942,25.585
					c0.022-0.112,0.046-0.225,0.042-0.34c-0.475,3.508-1.25,7.064-2.206,10.521c-0.97,3.461-2.147,6.869-3.635,10.131
					c-1.481,3.26-3.263,6.395-5.495,9.165c-2.209,2.783-4.932,5.157-8.146,6.613c0.096,0.021,0.191,0.044,0.283,0.019l-55.241,4.796
					l55.375-3.057l0.317-0.221c1.58-0.724,3.093-1.601,4.492-2.636c1.377-1.057,2.682-2.213,3.854-3.486"/>
			</g>
		</g>
	</g>
	<path opacity="0.4" fill="#FFFFFF" d="M141.152,125.688c0,0-19.542,156.7-6.542,163.2c1.013-8.617,19.915-160.37,19.269-160.458
		C146.699,127.461,141.152,125.688,141.152,125.688z"/>
	<path opacity="0.5" fill="#FFFFFF" d="M172.277,321.933l-54.686-4.036c-14.219-7.634-20.189-34.333-20.189-34.333l29.67-156.494
		c0,0,39.34,18.606,88.634,0l28.913,159.818c0,0-5.215,23.375-19.434,31.009L172.277,321.933"/>
	<path opacity="0.5" fill="#898989" d="M125.58,119.893c0,0-1.938-7.643,2.322-18.864c0.432-6.244,0.453-21.817,0.453-21.817
		s-0.078-4.347,5.734-13.779c6.334-6.562,53.717-14.744,80.051-0.309c3.219,3.64,4.512,14.416,4.512,14.416l-0.125,21.859
		c0,0,3.75,11.829,0,19.498C208.703,129.146,153.467,140.561,125.58,119.893"/>
	<path opacity="0.55" fill="#8897A5" d="M218.28,120.89c-4.5,6.18-60.41,19.51-91.3,0.88c0,0-0.78-0.34-1.5-1.02
		c-1.631-3.54-0.07-15.13,2.43-19.82c0.05-7.11-0.18-21.55-0.18-21.55s0.34-5.19,5.92-13.65c0.029-0.04,0.05-0.08,0.08-0.12
		c6.34-6.55,54.079-14.91,80.409-0.49c0.4,0.68,0.771,1.48,1.12,2.36c2,5.04,3.19,12.47,3.19,12.47l0.12,21.48
		C218.57,101.43,222.03,113.69,218.28,120.89z"/>
	<g opacity="0.05">
		<path fill="#4B4B4C" d="M127.777,101.399c0,0,0.332,0.153,0.971,0.402c0.629,0.268,1.578,0.597,2.773,1.042
			c1.213,0.394,2.666,0.935,4.381,1.403c0.854,0.244,1.762,0.502,2.719,0.775c0.967,0.243,1.981,0.499,3.041,0.765
			c1.054,0.288,2.172,0.503,3.324,0.743c1.155,0.227,2.338,0.513,3.574,0.712c2.473,0.377,5.066,0.864,7.783,1.132
			c1.355,0.15,2.729,0.339,4.127,0.464c1.4,0.09,2.818,0.181,4.247,0.273c0.714,0.046,1.432,0.092,2.151,0.139
			c0.72,0.029,1.443,0.019,2.168,0.03c1.448,0.013,2.902,0.025,4.357,0.038c1.454,0.063,2.906-0.077,4.354-0.114
			c1.448-0.061,2.891-0.121,4.32-0.18c2.854-0.231,5.654-0.565,8.371-0.831c2.699-0.379,5.297-0.847,7.771-1.223
			c0.619-0.099,1.229-0.196,1.828-0.292c0.594-0.135,1.178-0.268,1.751-0.398c1.148-0.261,2.259-0.514,3.323-0.756
			c1.066-0.241,2.088-0.472,3.061-0.692c0.979-0.19,1.888-0.452,2.738-0.709c1.707-0.497,3.194-0.93,4.42-1.286
			c2.457-0.702,3.861-1.104,3.861-1.104s-1.383,0.469-3.803,1.289c-1.213,0.405-2.687,0.896-4.377,1.459
			c-1.674,0.625-3.646,1.031-5.768,1.59c-1.063,0.269-2.172,0.548-3.318,0.838c-0.574,0.145-1.158,0.292-1.75,0.442
			c-0.602,0.11-1.211,0.223-1.829,0.337c-2.476,0.437-5.077,0.981-7.795,1.367c-2.729,0.289-5.546,0.647-8.418,0.902
			c-1.44,0.071-2.892,0.144-4.349,0.216c-1.459,0.047-2.92,0.203-4.387,0.146c-1.465-0.024-2.93-0.048-4.389-0.073
			c-0.73-0.017-1.459-0.013-2.184-0.047c-0.725-0.052-1.446-0.104-2.166-0.156c-1.438-0.104-2.865-0.207-4.274-0.309
			c-1.406-0.138-2.789-0.338-4.153-0.5c-2.734-0.273-5.334-0.843-7.811-1.278c-1.237-0.229-2.422-0.545-3.577-0.801
			c-1.153-0.268-2.271-0.51-3.323-0.825c-1.057-0.295-2.07-0.579-3.033-0.848c-0.951-0.311-1.853-0.606-2.7-0.883
			c-1.7-0.535-3.138-1.134-4.337-1.575C129.078,102.066,127.777,101.399,127.777,101.399z"/>
	</g>
	<g opacity="0.05">
		<path fill="#4B4B4C" d="M127.693,79.563c0,0,0.348,0.099,0.997,0.283c0.648,0.188,1.61,0.424,2.83,0.738
			c1.222,0.303,2.712,0.654,4.427,1.022c1.719,0.352,3.653,0.759,5.779,1.13c2.116,0.418,4.432,0.742,6.875,1.114
			c1.219,0.203,2.484,0.308,3.771,0.473c1.29,0.133,2.599,0.349,3.941,0.456c2.687,0.216,5.453,0.548,8.282,0.637
			c1.412,0.07,2.836,0.141,4.265,0.211c1.432,0.013,2.867,0.027,4.305,0.04c1.436,0.001,2.873,0.082,4.303,0.022
			c1.43-0.045,2.854-0.09,4.268-0.135c2.83-0.026,5.599-0.341,8.285-0.542c2.69-0.166,5.264-0.576,7.715-0.876
			c1.225-0.163,2.42-0.301,3.568-0.472c1.143-0.216,2.246-0.426,3.305-0.627c2.114-0.425,4.074-0.723,5.783-1.111
			c1.702-0.422,3.186-0.791,4.408-1.094c2.451-0.595,3.852-0.936,3.852-0.936s-1.383,0.409-3.801,1.124
			c-1.212,0.352-2.684,0.779-4.373,1.269c-1.697,0.459-3.646,0.836-5.76,1.301c-1.06,0.228-2.162,0.464-3.305,0.709
			c-1.149,0.199-2.345,0.366-3.57,0.56c-2.455,0.36-5.035,0.847-7.74,1.018c-2.699,0.224-5.481,0.562-8.327,0.611
			c-1.421,0.056-2.854,0.113-4.292,0.17c-1.438,0.069-2.883,0.003-4.328,0.009c-1.444-0.025-2.889-0.05-4.328-0.075
			c-1.436-0.083-2.867-0.165-4.287-0.246c-2.842-0.112-5.621-0.466-8.318-0.706c-2.689-0.303-5.282-0.68-7.731-1.072
			c-2.444-0.432-4.758-0.812-6.872-1.282c-2.126-0.411-4.051-0.898-5.758-1.32c-1.703-0.436-3.18-0.844-4.392-1.195
			C129.047,80.063,127.693,79.563,127.693,79.563z"/>
	</g>
	<path id="haut" opacity="0.2" fill="#F5F9FC" d="M215.26,67.48c-9.8,3.04-23.37,4.92-38.359,4.92c-17.681,0-33.381-2.62-43.25-6.67
		c0.029-0.04,0.05-0.08,0.08-0.12c6.34-6.55,54.079-14.91,80.409-0.49C214.54,65.8,214.91,66.6,215.26,67.48z"/>
	<g opacity="0.05">
		<path fill="#4B4B4C" d="M134.355,65.315c0.016-0.017-0.178,0.356,0.13,0.904c0.303,0.549,1.153,0.985,2.263,1.24
			c1.129,0.26,2.499,0.575,4.07,0.937c0.785,0.181,1.624,0.358,2.51,0.536c0.885,0.186,1.812,0.389,2.787,0.563
			c1.945,0.382,4.062,0.732,6.309,1.053c2.246,0.323,4.625,0.565,7.086,0.824c1.232,0.093,2.486,0.187,3.756,0.283
			c1.27,0.091,2.56,0.119,3.857,0.182c1.297,0.073,2.606,0.07,3.921,0.083c1.314,0.01,2.634,0.04,3.953-0.008
			c1.319-0.02,2.64-0.041,3.954-0.061c1.314-0.061,2.623-0.122,3.921-0.182c2.599-0.084,5.146-0.366,7.616-0.535
			c2.465-0.248,4.848-0.488,7.107-0.715c2.254-0.29,4.385-0.564,6.352-0.817c1.967-0.258,3.76-0.564,5.355-0.792
			c0.797-0.12,1.544-0.232,2.234-0.335c0.685-0.112,1.343-0.162,1.857-0.37c0.518-0.209,0.91-0.576,1.043-0.995
			c0.145-0.414,0.107-0.808,0.043-1.105c-0.146-0.601-0.34-0.881-0.34-0.881s0.207,0.268,0.386,0.87
			c0.08,0.299,0.14,0.7,0.009,1.148c-0.117,0.455-0.529,0.881-1.074,1.12c-0.561,0.244-1.197,0.311-1.881,0.453
			c-0.686,0.131-1.428,0.272-2.221,0.424c-1.588,0.289-3.369,0.678-5.335,0.972c-1.965,0.301-4.093,0.627-6.345,0.973
			c-2.262,0.271-4.642,0.609-7.116,0.85c-2.479,0.19-5.032,0.493-7.644,0.598c-1.304,0.071-2.617,0.143-3.938,0.215
			c-1.321,0.031-2.648,0.062-3.975,0.093c-1.326,0.042-2.654-0.002-3.977-0.022c-1.322-0.023-2.639-0.031-3.943-0.115
			c-1.305-0.074-2.601-0.112-3.877-0.213c-1.277-0.106-2.538-0.211-3.778-0.314c-1.236-0.146-2.452-0.288-3.642-0.428
			c-1.188-0.155-2.343-0.357-3.471-0.526c-2.249-0.377-4.367-0.779-6.311-1.21c-1.945-0.412-3.715-0.855-5.274-1.272
			c-1.558-0.423-2.915-0.792-4.033-1.096c-1.122-0.3-1.979-0.81-2.263-1.396C134.154,65.658,134.373,65.3,134.355,65.315z"/>
	</g>
	<linearGradient id="SVGID_7_" gradientUnits="userSpaceOnUse" x1="142.1367" y1="125.2207" x2="153.5341" y2="71.2591">
		<stop  offset="0" style="stop-color:#FFFFFF"/>
		<stop  offset="0.1944" style="stop-color:#FCFCFD"/>
		<stop  offset="0.3547" style="stop-color:#F2F4F6"/>
		<stop  offset="0.5029" style="stop-color:#E0E5EB"/>
		<stop  offset="0.643" style="stop-color:#C8D1DB"/>
		<stop  offset="0.735" style="stop-color:#B4C0CE"/>
	</linearGradient>
	<path opacity="0.12" fill="url(#SVGID_7_)" d="M142.001,70.254l-3.64,12.457c0,0,3.209,19.899,2.748,23.518
		c-4.75,10.833-0.756,20.798-0.154,21.069c2.7,1.218,10.135,2.423,12.924,2.707c-0.408-1.928-3.436-14.109,1.021-21.813
		c0.074-4.419,0.501-21.492,0.501-21.492s9.921-13.165,9.262-13.207C157.12,73.004,142.001,70.254,142.001,70.254z"/>
	<ellipse opacity="0.5" fill="#6D6D6D" cx="150.256" cy="64.5" rx="2.561" ry="0.624"/>
	<ellipse opacity="0.5" fill="#6D6D6D" cx="165.716" cy="64.5" rx="2.56" ry="0.624"/>
	<ellipse opacity="0.5" fill="#6D6D6D" cx="180.72" cy="64.5" rx="2.56" ry="0.624"/>
	<ellipse opacity="0.5" fill="#6D6D6D" cx="195.966" cy="64.5" rx="2.56" ry="0.624"/>
	<ellipse opacity="0.5" fill="#6D6D6D" cx="157.865" cy="61.773" rx="2.561" ry="0.624"/>
	<ellipse opacity="0.5" fill="#6D6D6D" cx="173.325" cy="61.773" rx="2.56" ry="0.624"/>
	<ellipse opacity="0.5" fill="#6D6D6D" cx="188.33" cy="61.773" rx="2.561" ry="0.624"/>
	<ellipse opacity="0.5" fill="#6D6D6D" cx="173.325" cy="67.086" rx="2.56" ry="0.624"/>
	<path opacity="0.5" fill="#FFFFFF" d="M215.115,127.25l28.912,163.827c0,0-6.997,20.5-19.433,27
		c-13.567,1.569-16.442,1.069-16.442,1.069l-35.875,2.786l16.031-32.855l1.711-155.724
		C190.02,133.353,208.07,131.423,215.115,127.25z"/>
	<path fill="none" stroke="#000000" stroke-miterlimit="10" d="M218.527,120.896"/>
	<g>
		<g>
			<g>
				<path fill="#D4D2D2" d="M150.408,151.846l-4.342,33.31l-2.707,22.821l-2.042,23.79l-2.483,19.287l-2.084,17.557l-0.583,11.502
					l-1.638,8.724l0.072,0.148l0.299,2.629l6.129,29.421c-1.689-10.777-3.381-21.555-5.604-32.222
					c0.182,0.065,0.363,0.13,0.365,0.174l1.219-6.103l3.332-28.09l3.9-37.812l1.953-24.69l3.967-23.563l3.812-38.713l-3.357,20.074"
					/>
			</g>
		</g>
	</g>
	<g>
		<g>
			<g>
				<path fill="#C6C5C5" d="M189.623,150.719l2.67,33.793l2.093,23.099l2.952,23.913l1.576,19.562l1.609,17.769l1.826,11.478
					c0.065,2.869,0.132,5.738,0.391,8.591c-0.059-0.054-0.117-0.107-0.113-0.144l-1.099,2.811l-8.491,29.115l10.928-31.535
					l-0.148-0.345l-0.057-5.933l-2.576-28.429l-4.045-38.147l-3.229-24.785l-1.004-24.093l-4.321-39.017l0.878,20.52"/>
			</g>
		</g>
	</g>
	<g>
		<g>
			<g>
				<path fill="#C6C5C5" d="M230.236,284.915c-8.682,1.208-17.363,2.417-26.029,3.726c0.047-0.037,0.094-0.074,0.142-0.077
					l-0.228-0.039l-18.146-0.163l-18.849,0.442l-15.353-0.292l-13.96-0.126c-0.928,0.054-1.855,0.108-2.782,0.1
					c0.015,0.022,0.029,0.044,0.047,0.046l-6.294-0.417l-8.905-1.845l-23.508-3.237l30.213,5.706l8.308,1.144l0.063,0.009
					l0.063,0.001l13.948,0.125l30.016-0.188l19.548-0.59c1.937,0.112,3.872,0.224,5.81,0.241c0.003,0.031,0.006,0.062,0.004,0.062
					l12.986-1.286l30.274-5.191l-15.986,1.641"/>
			</g>
		</g>
	</g>
	<ellipse fill="#B2B2B2" cx="174.786" cy="336.896" rx="69.833" ry="5"/>
</g>
</svg>
